<?xml version="1.0" encoding="utf-8"?><svg viewBox="0 0 176.362 121.91" xmlns="http://www.w3.org/2000/svg" xmlns:xlink="http://www.w3.org/1999/xlink"><style>:root>svg{display:none}:root>svg:target{display:block}</style><svg viewBox="0 0 24 24" id="location" xmlns="http://www.w3.org/2000/svg"><g fill="none"><path d="M0 0h24v24H0z"/><g stroke="#f3f9eb" stroke-linecap="round" stroke-linejoin="round" stroke-width="2"><path d="M21 10c0 7-9 13-9 13s-9-6-9-13a9 9 0 1118 0z"/><circle cx="3" cy="3" r="3" transform="translate(9 7)"/></g></g></svg><svg viewBox="0 0 176.362 121.91" id="logo" xmlns="http://www.w3.org/2000/svg"><path d="M89.067 121.91c-1.781 0-3.16-1.338-3.16-3.653 0-2.363 1.422-3.671 3.2-3.671a3.833 3.833 0 012.283.714l-.164.979a3.205 3.205 0 00-2.15-.844c-1.334 0-2.176 1.082-2.176 2.806s.858 2.807 2.283 2.807a3.086 3.086 0 002.135-.831l.133.89a3.68 3.68 0 01-2.386.8M102.246 121.761v-10.488l.966-.18v10.668zM115.099 113.056a.714.714 0 010-1.427.714.714 0 010 1.427m-.487 1.679h.965v7.026h-.965zM131.416 121.761v-4.844c0-.906-.416-1.455-1.305-1.455a3.471 3.471 0 00-2.267 1.219v5.08h-.979v-7.026h.753l.166 1.038a3.859 3.859 0 012.521-1.187 1.909 1.909 0 012.089 2.152v5.023zM144.113 113.056a.714.714 0 010-1.427.714.714 0 010 1.427m-.491 1.679h.966v7.026h-.966zM158.628 121.91c-1.781 0-3.16-1.338-3.16-3.653 0-2.363 1.424-3.671 3.2-3.671a3.828 3.828 0 012.283.714l-.162.979a3.21 3.21 0 00-2.15-.844c-1.334 0-2.179 1.082-2.179 2.806s.859 2.807 2.284 2.807a3.091 3.091 0 002.136-.831l.13.89a3.675 3.675 0 01-2.386.8M173.751 121.896a5.481 5.481 0 01-2.518-.642l.16-.948a4.641 4.641 0 002.449.757c.977 0 1.587-.416 1.587-1.13 0-.7-.415-1.011-1.81-1.384-1.557-.4-2.226-.9-2.226-2.061 0-1.1.938-1.9 2.39-1.9a5.225 5.225 0 012.18.476l-.164.936a4.413 4.413 0 00-2.048-.551c-.963 0-1.42.416-1.42 1s.384.876 1.571 1.187c1.66.446 2.461.979 2.461 2.228 0 1.28-.993 2.038-2.612 2.038M97.709 54.453a3.37 3.37 0 01-3.387 3.689c-2.182 0-3.419-1.518-3.419-3.689a3.785 3.785 0 01.962-2.674h-2.232c-1.482 0-2.346 1.37-2.346 3.59v5.465h-1.14v-5.532c0-3.032 1.157-4.517 3.486-4.517h4.7c2.069 0 3.372 1.453 3.372 3.669m-1.367-.095c0-1.568-.7-2.529-1.955-2.529-1.335 0-2.083 1.027-2.083 2.707 0 1.534.748 2.545 2.018 2.545 1.351 0 2.02-.914 2.02-2.723M99.893 47.635h1.14v10.557h-1.14zM105.854 50.782v6.022c0 2.66-1.027 3.932-3.421 4.061v-1.092c1.515 0 2.279-.832 2.279-2.759v-6.232zM122.04 50.784v4.533c0 1.911-.8 2.874-2.38 2.874h-5q-4.689 0-4.689-4.749v-2.674h1.14v2.674c0 2.43 1.155 3.605 3.45 3.605h4.722c1.158 0 1.612-.44 1.612-2.234v-4.03zm-6.465-.016h-1.158v-1.385h1.158zm2.135 0h-1.158v-1.385h1.158zM124.223 47.635h1.14v10.557h-1.14zM134.319 58.191h-7.231v-1.143h6.031a6.684 6.684 0 00-.8-3.507 3.554 3.554 0 00-3.013-1.7h-.439v-1.079a4.693 4.693 0 014.7 2.741 11.456 11.456 0 01.752 4.684M140.086 58.191H138.8a2.018 2.018 0 01-1.482-.62 2.612 2.612 0 01-.7-1.976v-7.96h1.175v7.274a3.081 3.081 0 00.324 1.618 1.253 1.253 0 00.93.507c.111.014.242.014 1.041.014z" fill="#fff"/><path fill="#fff" d="M139.858 57.048h3.437v1.144h-3.437z"/><path fill="#fff" d="M143.081 57.048h3.437v1.144h-3.437z"/><path fill="#fff" d="M146.306 57.048h3.437v1.144h-3.437z"/><path fill="#fff" d="M149.531 57.048h3.437v1.144h-3.437z"/><path d="M158.323 58.191h-5.617v-1.126h1.043a1.41 1.41 0 001.385-.67 3.663 3.663 0 00.245-1.582v-4.03h1.139v4.53a4.091 4.091 0 01-.308 1.731h2.113zm-3.923 2.5h-1.161v-1.386h1.157zm2.135 0h-1.157v-1.386h1.161z" fill="#fff"/><path fill="#fff" d="M158.097 57.048h3.435v1.144h-3.435z"/><path fill="#fff" d="M161.322 57.048h3.437v1.144h-3.437z"/><path fill="#fff" d="M164.547 57.048h3.437v1.144h-3.437z"/><path d="M176.302 58.192h-8.958v-1.143h2.491a4.3 4.3 0 01-.586-2.284 4.251 4.251 0 01.9-2.82 3.222 3.222 0 012.686-1.193 3.817 3.817 0 012.18.619 2.718 2.718 0 011.255 1.879l-1.383.147a1.863 1.863 0 00-2.036-1.73 1.909 1.909 0 00-1.774 1 4.359 4.359 0 00-.441 2.1 3.16 3.16 0 00.752 2.284h4.914zM41.652 121.761a4.688 4.688 0 01-4.676-4.689l.055-35.561a14.197 14.197 0 001.925-.039l-.056 35.6a2.753 2.753 0 105.506 0V97.885a3.767 3.767 0 111.927.04v19.147a4.691 4.691 0 01-4.681 4.689zm-4.621-40.25A15.423 15.423 0 0126.8 76.7c-.122.286-.347.584-.509.588h-.393c-5.593 0-9.82-2.551-12.923-7.8-.033-.057-.07-.115-.1-.171a2.379 2.379 0 01-.326-.669 4.95 4.95 0 00-3.456-3.7c-3.614-1.536-6.272-4.476-7.9-8.737a17.959 17.959 0 013.1-18.132c.267-.289.545-.593.93-1.015-.13-.271-.258-.528-.381-.777a26.16 26.16 0 01-.676-1.432A18.6 18.6 0 012.9 24.845a16.544 16.544 0 014.075-8.825 15.94 15.94 0 014.909-3.73 12.464 12.464 0 015.342-1.185 15.428 15.428 0 013.864.519 1.832 1.832 0 00.456.069c.467 0 .743-.293 1.018-1.08A15.007 15.007 0 0136.579 0a12.023 12.023 0 015.2 1.2 17.462 17.462 0 014.949 3.677 16.288 16.288 0 012.112 2.937c.3.5.545.689.875.689a1.34 1.34 0 00.468-.1 14.921 14.921 0 015.234-1.014 13.312 13.312 0 018.765 3.48c3.972 3.4 5.9 7.989 5.745 13.65a20.443 20.443 0 01-.685 4.108c-.119.5-.242 1.02-.348 1.528a5.9 5.9 0 01-.368 1.065c-.077.185-.157.376-.234.584l.373.329.026.023h.005c.246.217.477.423.715.627a16.387 16.387 0 015.7 10.364 18.615 18.615 0 01-.457 8.091 17.535 17.535 0 01-3.6 6.474 13.462 13.462 0 01-6.208 4.172 2.054 2.054 0 00-1.364 1.453c-1.932 5.136-5.248 8.343-10.138 9.806a12.252 12.252 0 01-2.237.391 20.607 20.607 0 01-4.75 5.065 14.432 14.432 0 01-5.815 2.645 15.037 15.037 0 01-1.587.226l.025-16.249a10.685 10.685 0 009.791-10.675V38.771h-4.424A1.6 1.6 0 0042.8 37.45h-1.12a1.613 1.613 0 00-1.61 1.611v1.346a1.614 1.614 0 001.61 1.613h1.12a1.6 1.6 0 001.551-1.32h2.5v13.848a8.828 8.828 0 11-17.656 0V40.7h2.695a1.58 1.58 0 001.551 1.32h1.12a1.614 1.614 0 001.61-1.613v-1.345a1.613 1.613 0 00-1.61-1.611h-1.12a1.6 1.6 0 00-1.551 1.321h-4.62v15.776a10.685 10.685 0 009.789 10.675l-.028 16.287zM107.232 100.939a7.714 7.714 0 01-1.14-.185c-.425-.142-.474-.093-.664-.563-.143-.325-4.038-9.492-4.561-10.614s-1.232-1.169-11.4-.795c-.57 0-.665.281-.665 1.217 0 1.728.095 9.584.141 10.053.049.559 0 .609-.473.7a6.58 6.58 0 01-1.046.091 4.906 4.906 0 01-.95-.091c-.474-.093-.522-.142-.474-.842.047-.47.474-11.034.474-14.776s-.285-15.008-.285-15.476c0-.7 0-.8.475-.844.619-.047 2.28-.093 4.559-.139 1.618-.047 4.847-.095 5.8-.095 6.509 0 10.972 3.322 10.972 10.008 0 5.707-2.279 7.623-4.558 9.072-.38.234-.427.607-.19 1.122.475.981 4.133 9.3 4.988 11.223.333.749.333.749.046.888a2.255 2.255 0 01-1.045.046m-12.967-30.3c-4.657 0-5.272.186-5.272.561-.049 1.4-.1 6.64-.145 9.3-.045 1.355-.186 5.423-.186 5.986 0 .186 5.7.186 9.166.186 5.13 0 7.741-2.337 7.741-7.013 0-6.406-2.516-9.024-11.3-9.024M141.292 100.754a6.032 6.032 0 01-2.091 0c-.57-.141-.617-.186-.95-1.031-.38-1.027-3.041-7.948-3.276-8.091-.237-.091-4.18-.139-7.933-.139-3.848-.048-8.028.048-8.266.282-.285.234-2.516 7.06-2.706 7.623-.332 1.122-.382 1.261-.809 1.356a4.585 4.585 0 01-1.137.091 4.264 4.264 0 01-1.1-.091c-.615-.141-.332-.424.049-1.356 1.282-3.136 4.465-11.785 5.747-15.012 1.424-3.6 5.984-14.589 6.224-15.338.283-.936.333-.888.807-.84a8.072 8.072 0 001.14.047c.38 0 .949.045 1.187.045s.237-.093.522.7c1.947 5.05 4.988 11.924 5.94 14.218.76 1.867 6.7 16.364 6.932 16.923.192.424.242.515-.283.61m-10.357-19.547c-2.469-6.264-3.609-8.509-4.226-9.865-.57 1.5-3.707 9.211-4.467 11.034-.665 1.59-2.279 6.08-2.612 6.874.617.141 5.132.188 7.174.188 1.852 0 6.651-.093 7.314-.234-.141-.656-2.374-5.984-3.183-8M175.815 100.755a4.472 4.472 0 01-1 .091 3.812 3.812 0 01-.9-.091c-.475-.1-.522-.141-.475-.7.047-.467.425-24.128.425-24.689 0-.7-.425-.7-.76.045-2.515 5.659-7.884 17.909-11.068 25.484-.095.234-.8.282-1.046.234-.473-.047-1-.138-1.092-.372-3.8-8.979-8.119-18.846-10.972-24.6-.333-.654-.57-.654-.57-.046 0 4.113.142 23.474.142 23.942 0 .561 0 .607-.475.7a3.23 3.23 0 01-.9.091 4.476 4.476 0 01-1-.091c-.475-.1-.523-.1-.475-.658.047-.511.475-11.221.475-14.961s-.427-15.1-.475-15.571c-.048-.7-.048-.888.427-.84a7.344 7.344 0 001 .047 2.291 2.291 0 00.855-.143c.38-.139.334-.095.807.84 5.179 10.616 10.4 22.727 11.067 24.41.714 1.825 1.142 2.854 1.428 2.854a9.991 9.991 0 001.233-2.527c1.092-2.478 9.215-20.9 10.832-24.689.235-.559.38-.84.617-.793a3.705 3.705 0 00.9.093 4.686 4.686 0 001-.093c.475-.1.475.138.475.84 0 .467-.285 11.829-.285 15.571s.237 14.309.285 14.774c.047.7 0 .749-.475.844" fill="#fff"/></svg><svg viewBox="0 0 24 24" id="phone" xmlns="http://www.w3.org/2000/svg"><g fill="none"><path d="M0 0h24v24H0z"/><path d="M13.388 7.558a3.823 3.823 0 013.02 3.02M13.388 4.5a6.881 6.881 0 016.078 6.07m-.765 6.1v2.294a1.529 1.529 0 01-1.667 1.529 15.13 15.13 0 01-6.6-2.347 14.908 14.908 0 01-4.581-4.586 15.13 15.13 0 01-2.347-6.629 1.529 1.529 0 011.521-1.666h2.294A1.529 1.529 0 018.85 6.579a9.816 9.816 0 00.538 2.149 1.529 1.529 0 01-.344 1.613l-.971.971a12.232 12.232 0 004.584 4.588l.971-.971a1.529 1.529 0 011.613-.344 9.816 9.816 0 002.147.534 1.529 1.529 0 011.315 1.552z" stroke="#f3f9eb" stroke-linecap="round" stroke-linejoin="round" stroke-width="2"/></g></svg></svg>