<svg xmlns="http://www.w3.org/2000/svg" width="48.372" height="56"><path d="M8.846 32.046a6.8 6.8 0 002.546.531 51.328 51.328 0 003.347 11.764 45.645 45.645 0 003.825 7.264l.029.046a64.914 64.914 0 001.512 2.248 4.933 4.933 0 008.092-.022 49.674 49.674 0 005.283-9.537 51.311 51.311 0 003.346-11.76h.062a7.347 7.347 0 002.637-.535c4.734-1.977 7.245-8.821 7.9-10.872 1.823-5.692.979-11.24-2.316-15.222C41.504 1.589 34.975-.72 28.865.2a17.586 17.586 0 00-4.68 1.412A17.519 17.519 0 0019.509.2C13.399-.721 6.867 1.589 3.258 5.951-.037 9.933-.88 15.482.942 21.173c.659 2.052 3.17 8.896 7.904 10.873zm22.769 10.243a1.245 1.245 0 00-.277.027l-13.463 2.946c-.286-.6-.567-1.22-.833-1.868-.05-.121-.094-.241-.142-.362l15.462-2.77c-.233.672-.487 1.35-.747 2.027zm-2.34 5.109l-9.071 2.14a46.728 46.728 0 01-1.16-1.984l11.4-2.5q-.541 1.175-1.169 2.344zm3.911-9.786a1.257 1.257 0 00-.225.017l-16.957 3.036q-.4-1.145-.743-2.277l18.451-2.8a51.55 51.55 0 01-.526 2.024zm-9.042 15.9a2.453 2.453 0 01-2-1.044 56.17 56.17 0 01-.495-.713l5.895-1.39c-.438.694-.9 1.39-1.387 2.093a2.454 2.454 0 01-2.013 1.054zm10.095-20.518l-19.638 2.977q-.415-1.7-.694-3.4h.3c3.268-.011 6.647-.022 9.959.029h.038c3.312-.051 6.69-.04 9.959-.029h.149c-.023.141-.049.283-.073.423zM5.175 7.538c3.024-3.655 8.765-5.661 13.964-4.876a15.172 15.172 0 014.493 1.43c.024.012.049.017.073.027.04.017.08.033.121.045.012 0 .023.01.035.013a1.222 1.222 0 00.176.118 16.4 16.4 0 014.938 4.017 1.244 1.244 0 101.92-1.583 18.854 18.854 0 00-3.9-3.547 14.609 14.609 0 012.24-.521c5.2-.784 10.938 1.221 13.962 4.876 2.743 3.315 3.422 8.009 1.863 12.876-1.185 3.699-3.515 8.093-6.495 9.337a4.307 4.307 0 01-1.665.343h-.008l-2.717-.008c-3.273-.011-6.657-.021-9.986.028-3.329-.05-6.712-.039-9.986-.028l-2.722.007h-.008a4.318 4.318 0 01-1.665-.343c-2.98-1.244-5.307-5.638-6.491-9.335-1.563-4.867-.884-9.56 1.858-12.876z" fill="#8cc63f"/></svg>