<svg xmlns="http://www.w3.org/2000/svg" width="45.003" height="56"><defs><style>.a{fill:#8cc63f}</style></defs><g transform="translate(-14.223 -4.992)"><path class="a" d="M22 34.872a1.5 1.5 0 01.552 1.353c-1.3 9.256-.032 16.684 3.755 22.08a9.854 9.854 0 002.023 2.059 2.649 2.649 0 001.3.612 2.344 2.344 0 00.294.017 2.563 2.563 0 002.5-1.587 3.308 3.308 0 00.1-1.165 1.243 1.243 0 00-.01-.431c-.638-3.021-1.3-6.144-.887-9.149a8.939 8.939 0 013.582-6.235 2.562 2.562 0 013.037 0 8.936 8.936 0 013.582 6.235c.41 3-.249 6.129-.887 9.149a1.241 1.241 0 00-.011.428 3.249 3.249 0 00.094 1.153 2.636 2.636 0 002.82 1.581 2.6 2.6 0 001.261-.6 9.914 9.914 0 002.038-2.072c3.786-5.393 5.049-12.821 3.754-22.076a1.494 1.494 0 01.55-1.353c7.137-5.908 10.749-17.1 4.75-24.355-3.35-4.049-9.411-6.2-15.077-5.339a16.257 16.257 0 00-4.4 1.319 16.243 16.243 0 00-4.394-1.318c-5.668-.857-11.73 1.29-15.08 5.339-5.994 7.252-2.382 18.448 4.754 24.355zM19.169 12.1c2.769-3.344 8.031-5.181 12.793-4.46a13.914 13.914 0 014.2 1.349 1.139 1.139 0 00.14.05 1.222 1.222 0 00.145.1 15.024 15.024 0 014.575 3.748 1.244 1.244 0 001.929-1.572A17.454 17.454 0 0039.5 8.1a13.328 13.328 0 011.993-.46c4.76-.72 10.018 1.117 12.787 4.46 5.509 6.659.972 16.389-4.421 20.853a3.968 3.968 0 00-1.426 3.612c1.2 8.611.086 15.442-3.325 20.3a7.6 7.6 0 01-1.56 1.562 1.204 1.204 0 01-.089.068l-.056-.011a8.361 8.361 0 01.142-.989 27.3 27.3 0 00.745-9.177 11.205 11.205 0 00-4.717-8 5.036 5.036 0 00-5.7 0 11.206 11.206 0 00-4.717 8A27.3 27.3 0 0029.9 57.5a8.256 8.256 0 01.141.99L30 58.5c-.022-.016-.058-.042-.111-.085a7.52 7.52 0 01-1.543-1.547c-3.412-4.861-4.53-11.691-3.326-20.3a3.969 3.969 0 00-1.428-3.612C18.2 28.493 13.659 18.763 19.169 12.1z"/><circle class="a" cx="2.052" cy="2.052" r="2.052" transform="translate(41.086 21.646)"/><circle class="a" cx="2.052" cy="2.052" r="2.052" transform="translate(28.258 21.646)"/><path class="a" d="M30.558 29.748a1.245 1.245 0 00-.063 1.759 8.316 8.316 0 0012.459 0 1.246 1.246 0 00-1.822-1.7 5.831 5.831 0 01-8.815 0 1.245 1.245 0 00-1.759-.059z"/></g></svg>