<svg xmlns="http://www.w3.org/2000/svg" width="35.138" height="60.25"><defs><style>.a{fill:#8cc63f}</style></defs><path class="a" d="M6.075 40.116a.861.861 0 01.324.78c-1.005 7.185-.019 12.959 2.934 17.166a7.833 7.833 0 001.608 1.639 2.311 2.311 0 001.145.532 2.364 2.364 0 002.456-1.409 2.789 2.789 0 00.088-.98 1.22 1.22 0 00-.014-.388 20.717 20.717 0 01-.678-6.928 6.571 6.571 0 012.619-4.584 1.685 1.685 0 012.025 0 6.57 6.57 0 012.617 4.583 20.7 20.7 0 01-.678 6.929 1.238 1.238 0 00-.014.385 2.757 2.757 0 00.083.969 2.266 2.266 0 003.591.9 7.879 7.879 0 001.625-1.654c2.951-4.2 3.938-9.98 2.933-17.163a.859.859 0 01.321-.777c5.589-4.627 8.4-13.411 3.687-19.114a13.21 13.21 0 00-11.846-4.2 12.769 12.769 0 00-3.334.982 12.744 12.744 0 00-3.331-.981 13.208 13.208 0 00-11.848 4.2c-4.716 5.706-1.902 14.49 3.687 19.113zM4.307 22.593a10.792 10.792 0 019.562-3.327 10.39 10.39 0 013.141 1.009c.034.017.071.025.106.039a1.242 1.242 0 00.108.072 11.242 11.242 0 013.42 2.8 1.244 1.244 0 001.928-1.57 13.634 13.634 0 00-2.239-2.155c.311-.078.624-.144.938-.191a10.791 10.791 0 019.56 3.328c4.111 4.97.693 12.259-3.358 15.611a3.334 3.334 0 00-1.2 3.036c.915 6.539.072 11.717-2.5 15.387a4.639 4.639 0 01-.693.763c0-.019.006-.034.009-.05a21.2 21.2 0 00.576-7.151 8.9 8.9 0 00-3.755-6.35 4.156 4.156 0 00-4.685 0 8.9 8.9 0 00-3.755 6.35 21.2 21.2 0 00.576 7.146c0 .016.006.034.011.054a4.587 4.587 0 01-.69-.76c-2.578-3.672-3.42-8.85-2.505-15.39a3.334 3.334 0 00-1.2-3.036C3.614 34.852.199 27.562 4.307 22.593zm19.502-15.44a.121.121 0 00-.238 0c-.533 2.7-1.13 3.3-3.833 3.833a.121.121 0 000 .238c2.7.533 3.3 1.13 3.833 3.833a.121.121 0 00.238 0c.533-2.7 1.13-3.3 3.833-3.833a.121.121 0 000-.238c-2.703-.533-3.3-1.13-3.833-3.833zM7.708.134a.166.166 0 00-.326 0c-.73 3.706-1.549 4.525-5.255 5.255a.166.166 0 000 .326c3.706.73 4.525 1.549 5.255 5.255a.166.166 0 00.326 0c.73-3.706 1.549-4.525 5.255-5.255a.166.166 0 000-.326C9.255 4.659 8.437 3.84 7.708.134z"/><path class="a" d="M11.225 23.816a.131.131 0 00-.257 0c-.575 2.918-1.22 3.562-4.138 4.138a.131.131 0 000 .257c2.918.575 3.562 1.22 4.138 4.138a.131.131 0 00.257 0c.575-2.918 1.22-3.562 4.138-4.138a.131.131 0 000-.257c-2.918-.576-3.562-1.221-4.138-4.138z"/></svg>