<svg xmlns="http://www.w3.org/2000/svg" width="56.654" height="56"><path d="M55.4 16.216h-3.12a14.452 14.452 0 00-3.182-10.334C45.526 1.572 39.074-.713 33.037.198a17.313 17.313 0 00-4.711 1.419A17.326 17.326 0 0023.618.199c-6.045-.912-12.493 1.372-16.06 5.683a14.451 14.451 0 00-3.182 10.334H1.259a1.259 1.259 0 100 2.518h3.448a23.472 23.472 0 007.919 13.088 1.67 1.67 0 01.616 1.511c-1.092 7.808-.774 13.017 4 19.823a10.47 10.47 0 002.15 2.187 2.757 2.757 0 001.354.638 2.437 2.437 0 00.31.019 2.664 2.664 0 002.6-1.645 3.464 3.464 0 00.1-1.227 1.244 1.244 0 00-.009-.444c-.047-.223-.094-.429-.14-.639-.012-.065-.021-.13-.034-.2a1.183 1.183 0 00-.035-.116q-.11-.481-.214-.923a14.774 14.774 0 01-.526-6.2 5.441 5.441 0 014.372-4.654 5.191 5.191 0 015.619 2.529c1.578 2.684.952 6.189.287 9.364v.015c0 .011 0 .023-.006.035l-.1.49-.064.3a1.259 1.259 0 00-.009.444 3.419 3.419 0 00.1 1.213 2.686 2.686 0 004.252 1.017 10.491 10.491 0 002.167-2.2c4.776-6.8 5.094-12.012 4-19.819a1.666 1.666 0 01.614-1.511 23.48 23.48 0 007.92-13.09h3.45a1.26 1.26 0 000-2.52zM42.417 29.887a4.171 4.171 0 00-1.5 3.8c1.023 7.31.749 11.872-3.568 18.022a8.152 8.152 0 01-1.68 1.678 1.44 1.44 0 01-.124.092.813.813 0 01-.15-.033 7.644 7.644 0 01.141-1.051c.73-3.482 1.489-7.685-.574-11.193a7.641 7.641 0 00-8.285-3.715 7.929 7.929 0 00-6.371 6.783 17.187 17.187 0 00.569 7.118c.088.376.181.78.274 1.2a6.349 6.349 0 01.106.866.9.9 0 01-.147.033 1.519 1.519 0 01-.14-.1 8.129 8.129 0 01-1.668-1.679c-4.318-6.152-4.591-10.714-3.568-18.025a4.173 4.173 0 00-1.5-3.8 21.8 21.8 0 01-6.98-11.15h11.614v3.926a3.125 3.125 0 003.121 3.128H23a3.117 3.117 0 002.92-2.05h4.81a3.117 3.117 0 002.918 2.05h1.015a3.125 3.125 0 003.121-3.121v-3.931H49.4a21.809 21.809 0 01-6.983 11.152zm-21.033-7.226V12.287a.6.6 0 01.6-.6H23a.6.6 0 01.6.6V22.66a.6.6 0 01-.6.6h-1.013a.6.6 0 01-.603-.599zm4.74-1.442v-7.492h4.4v7.493zm9.143-3.713v5.155a.6.6 0 01-.6.6h-1.018a.6.6 0 01-.6-.6V12.287a.6.6 0 01.6-.6h1.015a.6.6 0 01.6.6v5.19c0 .01.003.018.003.029zm14.533-1.29H37.785v-3.929a3.125 3.125 0 00-3.121-3.121h-1.015a3.117 3.117 0 00-2.918 2.045h-4.81A3.117 3.117 0 0023 9.164h-1.013a3.125 3.125 0 00-3.121 3.123v3.931H6.853A11.881 11.881 0 019.5 7.487c2.976-3.6 8.623-5.572 13.746-4.8a14.938 14.938 0 014.517 1.45 1.17 1.17 0 00.151.055 1.25 1.25 0 00.155.1 16.062 16.062 0 013.941 2.939 1.26 1.26 0 101.8-1.764 18.558 18.558 0 00-2.687-2.246 14.379 14.379 0 012.288-.534c5.114-.77 10.767 1.2 13.743 4.8a11.884 11.884 0 012.646 8.729z" fill="#f3f9eb"/></svg>