<svg xmlns="http://www.w3.org/2000/svg" width="75.469" height="48"><defs><clipPath id="a"><path fill="#fff" d="M0 0h75.47v48H0z"/></clipPath></defs><g clip-path="url(#a)" fill="#fff"><path d="M19.428 30.753a3.489 3.489 0 01-.44-.187 7.925 7.925 0 00-2.768-1.023 6.93 6.93 0 00-2.016-.019 7.738 7.738 0 00-4.383 1.975 7.488 7.488 0 00-2.428 4.541 7.695 7.695 0 0014.852 3.73 2.94 2.94 0 01.168-.384 3.758 3.758 0 00.362-1.255 25.143 25.143 0 00.275-3.717V12.386c0-1.446-.026-2.892-.169-4.331a26.76 26.76 0 00-1.143-5.895A8.3 8.3 0 0021.05.6c-.03-.051-.054-.106-.081-.162C21.176.38 34.825.356 35.389.41a.29.29 0 01-.023.091 6.769 6.769 0 00-.893 2.092c-.156.574-.337 1.142-.47 1.722a24.475 24.475 0 00-.513 3.479c-.137 1.634-.161 3.272-.161 4.91v20.688a14.252 14.252 0 01-1.366 6.183 13.163 13.163 0 01-5.14 5.659 18.068 18.068 0 01-5.8 2.26 23.774 23.774 0 01-3.226.432 30.825 30.825 0 01-3.573.037 19.763 19.763 0 01-5.2-.838 14.464 14.464 0 01-4.91-2.665 10.847 10.847 0 01-3.688-6.12 16.512 16.512 0 01-.421-4.039 11.82 11.82 0 012.554-7.253 9.848 9.848 0 015.915-3.643 9.333 9.333 0 012.8-.085 11.587 11.587 0 013.226.8 8.683 8.683 0 012.839 1.816 5.767 5.767 0 011.385 2.054 11.836 11.836 0 01.7 2.391c.012.078.022.156.027.234a.9.9 0 01-.018.141"/><path d="M62.676 29.367c.233.494.463.957.672 1.429a15.179 15.179 0 011.048 3.133 5.672 5.672 0 01.131 1.956 3.679 3.679 0 01-.179.764 2.1 2.1 0 01-1.755 1.368 5.512 5.512 0 01-2.623-.2 3.952 3.952 0 01-2.572-2.482c-.092-.243-.164-.494-.3-.784a1.57 1.57 0 01-.089.154 26.394 26.394 0 01-11.262 8.775 16.787 16.787 0 01-2.845.825q-3.625.818-7.253 1.622a4.946 4.946 0 01-.756.077c-1 .063-1.994.119-2.991.179a8.569 8.569 0 01-.927.025c.066-.022.13-.047.2-.065 2.793-.771 5.588-1.537 8.378-2.316.97-.271 1.927-.583 2.894-.864a19.149 19.149 0 004.242-1.875 20.85 20.85 0 005.855-4.938 20.647 20.647 0 003.472-6.355 23.683 23.683 0 001.1-4.617 19.349 19.349 0 00-2.425-12.379 24.611 24.611 0 00-2.486-3.573 10.49 10.49 0 00-3.753-2.942 7.749 7.749 0 00-2.326-.716 4.637 4.637 0 00-3.532.855 4.745 4.745 0 00-1.564 2.35 8.433 8.433 0 00-.351 2.959 15.79 15.79 0 001.418 5.6 22.914 22.914 0 005.68 7.9 28.8 28.8 0 002.978 2.418.676.676 0 01.311.364.744.744 0 01-.136.1 25.418 25.418 0 00-2.725 1.416 27.74 27.74 0 00-3.479 2.309 8.355 8.355 0 00-1.63 1.595 6.351 6.351 0 00-.5.888 1.219 1.219 0 00.925 1.632 4.279 4.279 0 001.461-.086 11.472 11.472 0 002.675-1 36.038 36.038 0 004.973-3.04c.332-.241.691-.446 1.043-.66a2.51 2.51 0 01.363-.142 1.486 1.486 0 01-.062.35 1.636 1.636 0 01-.242.372 27.635 27.635 0 01-4.823 4.364 15.7 15.7 0 01-5.331 2.463 8.422 8.422 0 01-2.393.293 3.628 3.628 0 01-1.952-.617 3.045 3.045 0 01-1.028-1.207 2.113 2.113 0 01-.078-1.49 4.84 4.84 0 01.75-1.525 13.9 13.9 0 012.345-2.511 30.472 30.472 0 013.539-2.636c.293-.189.565-.41.865-.631a1.205 1.205 0 00-.137-.108 12.875 12.875 0 01-2.9-2.244 25.815 25.815 0 01-1.516-1.64 17.688 17.688 0 01-2.513-4.082 23.3 23.3 0 01-1.788-6 22 22 0 01-.3-4.607 15.319 15.319 0 011.1-5.324 7.957 7.957 0 011.768-2.65A5.5 5.5 0 0142.779.019a8.368 8.368 0 013.184.416 13.377 13.377 0 015.6 3.464 26.5 26.5 0 014.609 6.267 32.609 32.609 0 012.951 7.873c.332 1.372.566 2.761.79 4.153.054.337.108.674.164 1.011a1.716 1.716 0 00.073.208c.053-.134.085-.21.113-.286.849-2.32 1.771-4.61 2.829-6.843a42.277 42.277 0 013.521-6.21 18.628 18.628 0 013.077-3.51 8.172 8.172 0 012.206-1.409 3.37 3.37 0 011.639-.289 1.6 1.6 0 011.265.785 3.89 3.89 0 01.648 1.729 7 7 0 01.017 1.179 37.79 37.79 0 01-.447 3.384 23.608 23.608 0 01-2.885 7.82 30.342 30.342 0 01-6.52 7.679 13.205 13.205 0 01-2.757 1.821c-.053.026-.1.061-.167.1"/></g></svg>