<svg xmlns="http://www.w3.org/2000/svg" width="48" height="48" viewBox="0 0 48 48">
  <g id="icons8-whatsapp" transform="translate(-2 -2)">
    <path id="Path_234" data-name="Path 234" d="M26,2A23.961,23.961,0,0,0,4.5,36.624L2.092,46.269A3,3,0,0,0,5.73,49.908L15.376,47.5A23.991,23.991,0,1,0,26,2Z" transform="translate(0 0)" fill="#62c766" opacity="0.35"/>
    <path id="Path_235" data-name="Path 235" d="M29.543,22.52a4.973,4.973,0,0,0-7.032,0l-1.238,1.238-7.032-7.032,1.238-1.238a4.972,4.972,0,1,0-8.366-2.462,20.929,20.929,0,0,0,6.021,11.837,20.929,20.929,0,0,0,11.837,6.021,4.965,4.965,0,0,0,4.572-8.364Z" transform="translate(7 7)" fill="#62c766"/>
  </g>
</svg>
