<?xml version="1.0" encoding="utf-8"?><svg viewBox="0 0 32 32" xmlns="http://www.w3.org/2000/svg" xmlns:xlink="http://www.w3.org/1999/xlink"><style>:root>svg{display:none}:root>svg:target{display:block}</style><svg viewBox="0 0 99.584 16" id="Group_1516" xmlns="http://www.w3.org/2000/svg"><g fill="#ebb73f"><path d="M90.326.557l-2.037 4.137-4.563.665a1 1 0 00-.553 1.706l3.3 3.218-.781 4.546a1 1 0 001.45 1.053l4.084-2.146 4.084 2.147a1 1 0 001.45-1.053l-.781-4.546 3.3-3.218a1 1 0 00-.553-1.707l-4.565-.666L92.126.557a1 1 0 00-1.8 0zM69.609.557l-2.037 4.137-4.563.665a1 1 0 00-.553 1.706l3.3 3.218-.781 4.546a1 1 0 001.45 1.053l4.084-2.146 4.084 2.147a1 1 0 001.45-1.053l-.781-4.546 3.3-3.218a1 1 0 00-.553-1.707l-4.565-.666L71.409.557a1 1 0 00-1.8 0zM48.892.557l-2.037 4.137-4.563.665a1 1 0 00-.553 1.706l3.3 3.218-.781 4.546a1 1 0 001.45 1.053l4.084-2.146 4.084 2.147a1 1 0 001.45-1.053l-.781-4.546 3.3-3.218a1 1 0 00-.553-1.707l-4.565-.666L50.692.557a1 1 0 00-1.8 0zM28.175.557l-2.037 4.137-4.563.665a1 1 0 00-.553 1.706l3.3 3.218-.781 4.546a1 1 0 001.45 1.053l4.084-2.146 4.084 2.147a1 1 0 001.45-1.053l-.781-4.546 3.3-3.218a1 1 0 00-.553-1.707l-4.565-.666L29.975.557a1 1 0 00-1.8 0zM7.459.557L5.422 4.694l-4.563.665a1 1 0 00-.553 1.706l3.3 3.218-.781 4.546a1 1 0 001.45 1.053l4.084-2.146 4.084 2.147a1 1 0 001.45-1.053l-.781-4.546 3.3-3.218a1 1 0 00-.553-1.707l-4.565-.666L9.259.557a1 1 0 00-1.8 0z"/></g></svg><svg viewBox="0 0 222.482 216" id="after" xmlns="http://www.w3.org/2000/svg"><defs><filter id="aba" x="0" y="0" width="192.327" height="216" filterUnits="userSpaceOnUse"><feOffset dy="2"/><feGaussianBlur stdDeviation="28" result="c"/><feFlood flood-color="#2f3443" flood-opacity=".102"/><feComposite operator="in" in2="c"/><feComposite in="SourceGraphic"/></filter><filter id="abc" x="30.155" y="0" width="192.327" height="216" filterUnits="userSpaceOnUse"><feOffset dy="2"/><feGaussianBlur stdDeviation="28" result="f"/><feFlood flood-color="#2f3443" flood-opacity=".102"/><feComposite operator="in" in2="f"/><feComposite in="SourceGraphic"/></filter><linearGradient id="abb" x1=".953" y1=".141" x2="-.308" y2="1.236" gradientUnits="objectBoundingBox"><stop offset="0" stop-color="#637f95"/><stop offset="1" stop-color="#243c7e"/></linearGradient></defs><g filter="url(#aba)"><path d="M18.155 26.182H5.726c.212-12.722 2.65-14.819 10.255-19.45a1.932 1.932 0 00.636-2.615 1.855 1.855 0 00-1.14-.87 1.806 1.806 0 00-1.4.217C5.117 8.911 1.99 12.235 1.99 28.089v14.683a8.311 8.311 0 008.188 8.418h7.95a8.128 8.128 0 008.188-8.418V34.6a8.091 8.091 0 00-8.162-8.418z" transform="translate(82.01 78.81)" fill="url(#abb)"/></g><g filter="url(#abc)"><path d="M28.975 26.182H16.546C16.758 13.461 19.2 11.363 26.8 6.732a1.932 1.932 0 00.636-2.615 1.855 1.855 0 00-1.14-.87 1.806 1.806 0 00-1.4.217C15.937 8.911 12.81 12.235 12.81 28.089v14.683A8.311 8.311 0 0021 51.189h7.95a8.128 8.128 0 008.188-8.418V34.6a8.091 8.091 0 00-8.162-8.418z" transform="translate(101.35 78.81)" opacity=".4" fill="url(#abb)"/></g></svg><svg viewBox="0 0 222.482 216" id="before" xmlns="http://www.w3.org/2000/svg"><defs><filter id="aca" x="30.156" y="0" width="192.327" height="216" filterUnits="userSpaceOnUse"><feOffset dy="2"/><feGaussianBlur stdDeviation="28" result="c"/><feFlood flood-color="#2f3443" flood-opacity=".102"/><feComposite operator="in" in2="c"/><feComposite in="SourceGraphic"/></filter><filter id="acc" x="0" y="0" width="192.327" height="216" filterUnits="userSpaceOnUse"><feOffset dy="2"/><feGaussianBlur stdDeviation="28" result="f"/><feFlood flood-color="#2f3443" flood-opacity=".102"/><feComposite operator="in" in2="f"/><feComposite in="SourceGraphic"/></filter><linearGradient id="acb" x1=".047" y1=".141" x2="1.308" y2="1.236" gradientUnits="objectBoundingBox"><stop offset="0" stop-color="#637f95"/><stop offset="1" stop-color="#243c7e"/></linearGradient></defs><g filter="url(#aca)"><path d="M10.152 26.182h12.429c-.212-12.722-2.65-14.819-10.255-19.45a1.932 1.932 0 01-.636-2.615 1.855 1.855 0 011.14-.87 1.806 1.806 0 011.4.217c8.957 5.448 12.084 8.772 12.084 24.626v14.682a8.311 8.311 0 01-8.188 8.418h-7.95a8.128 8.128 0 01-8.186-8.418V34.6a8.091 8.091 0 018.162-8.418z" transform="translate(112.17 78.81)" fill="url(#acb)"/></g><g filter="url(#acc)"><path d="M20.972 26.182H33.4c-.212-12.722-2.65-14.819-10.255-19.45a1.932 1.932 0 01-.636-2.615 1.855 1.855 0 011.14-.87 1.806 1.806 0 011.4.217c8.957 5.448 12.084 8.772 12.084 24.626v14.682a8.311 8.311 0 01-8.188 8.418H21a8.128 8.128 0 01-8.188-8.418V34.6a8.091 8.091 0 018.162-8.418z" transform="translate(71.19 78.81)" opacity=".4" fill="url(#acb)"/></g></svg><svg viewBox="0 0 96 96" id="branches" xmlns="http://www.w3.org/2000/svg"><defs><linearGradient id="ada" x1=".953" y1=".141" x2="-.308" y2="1.236" gradientUnits="objectBoundingBox"><stop offset="0" stop-color="#637f95"/><stop offset="1" stop-color="#243c7e"/></linearGradient></defs><g transform="translate(-766 -1572)"><circle cx="48" cy="48" r="48" transform="translate(766 1572)" fill="url(#ada)"/><g fill="#fff"><path d="M808.862 1607.586h2.483v2.483a.828.828 0 00.828.828h3.31a.828.828 0 00.828-.828v-2.483h2.483a.827.827 0 00.828-.828v-3.31a.827.827 0 00-.828-.828h-2.483v-2.482a.827.827 0 00-.827-.828h-3.31a.828.828 0 00-.828.828v2.482h-2.483a.828.828 0 00-.828.828v3.31a.827.827 0 00.828.828zm.828-3.31h2.483a.827.827 0 00.828-.828v-2.483h1.655v2.483a.827.827 0 00.828.828h2.483v1.655h-2.483a.828.828 0 00-.828.828v2.483h-1.655v-2.484a.827.827 0 00-.828-.828h-2.483z"/><path d="M837.828 1606.759h-14.9v-9.931a.827.827 0 00-.828-.828h-16.548a.828.828 0 00-.828.828v9.931h-14.9a.828.828 0 00-.828.828v3.313a.827.827 0 00.828.828h.828v31.444a.827.827 0 00.828.828h44.69a.827.827 0 00.828-.828v-31.448h.828a.827.827 0 00.828-.828v-3.31a.827.827 0 00-.828-.828zm-31.448-9.1h14.9v14.9h-14.9zm-15.725 12.41v-1.655h14.069v1.655zm13.245 29.793v2.483h-11.59v-7.445h14.9v.828h-.828a.828.828 0 00-.828.828v2.483h-.828a.828.828 0 00-.826.823zm16.552-2.483v1.655h-13.245v-1.655zm-11.586-1.655v-10.758H813v10.758zm5.793 0v-10.758h4.138v10.758zm7.448 6.621h-16.555v-1.655H822.1zm13.241 0h-11.589v-2.483a.827.827 0 00-.828-.828h-.831v-2.482a.827.827 0 00-.828-.828h-.828v-.824h14.9zm0-9.1h-14.9v-9.1a.827.827 0 00-.828-.828h-11.586a.828.828 0 00-.828.828v9.1H792.31v-21.521h12.414v1.655a.827.827 0 00.828.828H822.1a.827.827 0 00.828-.828v-1.655h12.414zm1.652-23.176h-14.069v-1.655H837z"/><path d="M826.241 1623.31h-3.31a.828.828 0 00-.828.828v4.966a.827.827 0 00.828.828h3.31a.827.827 0 00.828-.828v-4.966a.828.828 0 00-.828-.828zm-.828 4.966h-1.655v-3.31h1.655zM829.552 1629.931h3.31a.827.827 0 00.828-.828v-4.966a.828.828 0 00-.828-.828h-3.31a.828.828 0 00-.828.828v4.966a.827.827 0 00.828.828zm.828-4.966h1.655v3.31h-1.655zM798.104 1623.31h-3.31a.828.828 0 00-.828.828v4.966a.827.827 0 00.828.828h3.31a.827.827 0 00.828-.828v-4.966a.827.827 0 00-.828-.828zm-.828 4.966h-1.655v-3.31h1.655zM804.724 1623.31h-3.31a.828.828 0 00-.828.828v4.966a.827.827 0 00.828.828h3.31a.827.827 0 00.828-.828v-4.966a.828.828 0 00-.828-.828zm-.828 4.966h-1.655v-3.31h1.655zM798.104 1615.034h-3.31a.828.828 0 00-.828.828v4.966a.827.827 0 00.828.828h3.31a.827.827 0 00.828-.828v-4.966a.827.827 0 00-.828-.828zm-.828 4.966h-1.655v-3.31h1.655zM804.724 1615.034h-3.31a.828.828 0 00-.828.828v4.966a.827.827 0 00.828.828h3.31a.827.827 0 00.828-.828v-4.966a.827.827 0 00-.828-.828zm-.828 4.966h-1.655v-3.31h1.655zM822.931 1615.034a.828.828 0 00-.828.828v4.966a.827.827 0 00.828.828h3.31a.827.827 0 00.828-.828v-4.966a.827.827 0 00-.828-.828zm2.483 4.966h-1.655v-3.31h1.655zM829.552 1621.655h3.31a.827.827 0 00.828-.828v-4.966a.827.827 0 00-.828-.828h-3.31a.828.828 0 00-.828.828v4.966a.827.827 0 00.828.828zm.828-4.966h1.655v3.31h-1.655zM812.172 1615.034h-3.31a.828.828 0 00-.828.828v4.966a.827.827 0 00.828.828h3.31a.827.827 0 00.828-.828v-4.966a.827.827 0 00-.828-.828zm-.828 4.966h-1.655v-3.31h1.655zM818.793 1615.034h-3.31a.828.828 0 00-.828.828v4.966a.827.827 0 00.828.828h3.31a.827.827 0 00.828-.828v-4.966a.827.827 0 00-.828-.828zm-.828 4.966h-1.655v-3.31h1.655z"/></g></g></svg><svg viewBox="0 0 96 96" id="clients" xmlns="http://www.w3.org/2000/svg"><defs><linearGradient id="aea" x1=".953" y1=".141" x2="-.308" y2="1.236" gradientUnits="objectBoundingBox"><stop offset="0" stop-color="#637f95"/><stop offset="1" stop-color="#243c7e"/></linearGradient></defs><g transform="translate(4331 -3864)"><circle cx="48" cy="48" r="48" transform="translate(-4331 3864)" fill="url(#aea)"/><path fill="none" d="M-4307 3888h48v48h-48z"/><path d="M-4292.619 3906.417a7.03 7.03 0 10-6.834-7.027 6.94 6.94 0 006.834 7.027zm0-12.42a5.395 5.395 0 11-5.244 5.393 5.326 5.326 0 015.244-5.393zM-4273.382 3916.039a7.03 7.03 0 10-6.834-7.027 6.94 6.94 0 006.834 7.027zm0-12.42a5.395 5.395 0 11-5.244 5.393 5.326 5.326 0 015.244-5.393zM-4302.238 3921.198a.806.806 0 00.795.817h17.648a.806.806 0 00.795-.817v-2.925a9.622 9.622 0 10-19.237 0zm1.59-2.925a8.032 8.032 0 1116.058 0v2.108h-16.059zM-4283 3930.819a.806.806 0 00.795.817h17.648a.806.806 0 00.795-.817v-2.925a9.622 9.622 0 10-19.237 0zm1.59-2.925a8.032 8.032 0 1116.058 0v2.108h-16.059z" fill="#fff"/></g></svg><svg viewBox="0 0 33.5 33.5" id="close" xmlns="http://www.w3.org/2000/svg"><g fill="none" stroke="#fff" stroke-linecap="round" stroke-linejoin="round" stroke-width="1.5"><path d="M16.75 32.75a16 16 0 10-16-16 16.047 16.047 0 0016 16z"/><g opacity=".4"><path d="M12.222 21.281l9.056-9.056M21.278 21.281l-9.056-9.056"/></g></g></svg><svg viewBox="0 0 96 96" id="doctors" xmlns="http://www.w3.org/2000/svg"><defs><linearGradient id="aga" x1=".953" y1=".141" x2="-.308" y2="1.236" gradientUnits="objectBoundingBox"><stop offset="0" stop-color="#637f95"/><stop offset="1" stop-color="#243c7e"/></linearGradient></defs><g transform="translate(-766 -1572)"><circle cx="48" cy="48" r="48" transform="translate(766 1572)" fill="url(#aga)"/><g fill="#fff"><path d="M830.814 1628.48c-.454-.3-.909-.606-1.438-.984l-1.666-.984a27.584 27.584 0 01-1.438-.757l-.53-.3c-.454-.227-.984-.53-1.514-.757a10.514 10.514 0 00-1.969-.757l-.833-.227-.379.606c-.379.53-3.861 3.861-7.193 6.89-3.331-3.1-6.814-6.36-7.192-6.89l-.379-.606-.833.3a7.592 7.592 0 00-1.893.757c-.53.227-1.06.53-1.59.757l-1.06.53-1.741.984c-.757.454-1.514.909-2.12 1.363a10.156 10.156 0 00-3.483 3.71 9.442 9.442 0 00-.53 4.315v4.618a2.956 2.956 0 002.953 2.953h35.736a2.956 2.956 0 002.953-2.953v-4.543a9.443 9.443 0 00-.53-4.315 9.848 9.848 0 00-3.331-3.71zm-5.148 5.148a1.985 1.985 0 01.984 1.211 1.765 1.765 0 01-.151 1.514 1.985 1.985 0 01-1.211.984 1.765 1.765 0 01-1.514-.151 1.985 1.985 0 01-.984-1.211 1.765 1.765 0 01.151-1.514 1.985 1.985 0 011.211-.984 1.668 1.668 0 01.606-.076 2.016 2.016 0 01.907.227zm7.117 2.726v4.618a1.035 1.035 0 01-1.06 1.06h-35.736a1.035 1.035 0 01-1.06-1.06v-4.694a7.307 7.307 0 01.379-3.407 8.439 8.439 0 012.8-2.877 20.507 20.507 0 011.893-1.287l.909-.53a21.7 21.7 0 00.53 2.12 3.162 3.162 0 00-1.136.833 4.5 4.5 0 00-.984 1.363 5.114 5.114 0 00-.379 3.18l.983 4.162 2.953-.681a.936.936 0 10-.454-1.817l-1.136.227-.53-2.347a2.719 2.719 0 01.227-1.893 3.362 3.362 0 01.606-.833 3.028 3.028 0 011.363-.757 2.557 2.557 0 011.514.076 2.689 2.689 0 01.681.3c.076.076.151.076.227.151a2.843 2.843 0 011.06 1.59l.53 2.347-1.136.227a.936.936 0 10.454 1.817l2.953-.681-.984-4.164a4.468 4.468 0 00-1.666-2.65 1.584 1.584 0 00-.454-.3 3.957 3.957 0 00-1.136-.53 12.822 12.822 0 00-1.741-.076 13.38 13.38 0 01-.606-2.347c0-.076 0-.076-.076-.151l.151-.076c.454-.227.984-.53 1.514-.757a9.234 9.234 0 011.287-.53c1.59 1.666 6.133 5.905 7.647 7.268l.606.606.606-.606c1.514-1.363 6.057-5.6 7.647-7.268.379.151.833.3 1.287.53s.984.454 1.439.681l.53.3c.379.227.757.379 1.136.606a11.921 11.921 0 01-1.211 3.483 3.36 3.36 0 00-1.741.151 3.654 3.654 0 00-2.271 1.968 3.986 3.986 0 00-.227 2.953 3.654 3.654 0 001.968 2.271 3.6 3.6 0 001.817.454 6.628 6.628 0 001.211-.151 3.655 3.655 0 002.271-1.968 3.986 3.986 0 00.227-2.953 4.42 4.42 0 00-1.363-1.968 12.808 12.808 0 001.136-3.255l.151.076c.454.3.909.606 1.287.833a8.438 8.438 0 012.8 2.877 8.7 8.7 0 01.306 3.486z"/><path d="M802.801 1611.294a4.428 4.428 0 00.151.984c0 .151.076.3.076.454a3.98 3.98 0 002.044 3.256.074.074 0 00.076.076 10.413 10.413 0 004.164 6.208 7.972 7.972 0 00.833.53c.379.227.909.379 1.363.606h.076a5.672 5.672 0 001.211.379 4.317 4.317 0 00.984.076h.227a4 4 0 00.984-.076 3.349 3.349 0 001.136-.379h.076a8.206 8.206 0 001.439-.606 5.09 5.09 0 00.833-.53 10.142 10.142 0 002.8-2.877 13.48 13.48 0 00.908-1.817c.076-.227.152-.53.227-.757a3.519 3.519 0 01.227-.681 3.5 3.5 0 01.53-.53c.151-.076.227-.227.379-.3a3.85 3.85 0 001.211-2.65c0-.151.076-.3.076-.454.076-.3.076-.681.151-.984v-.833a2.2 2.2 0 00-1.438-2.271v-.454a3.254 3.254 0 01.151-.909 11.26 11.26 0 00.379-2.726 6.891 6.891 0 00-4.164-6.738c-.3-.151-.606-.227-.909-.379a14.44 14.44 0 00-5.148-.909h-1.136a10.5 10.5 0 00-3.786.757 1.655 1.655 0 00-.379.227 4.608 4.608 0 00-1.211 1.211c-.076.076-.151.151-.151.227a2.4 2.4 0 01-.379.454 5.089 5.089 0 01-.833.53 2.673 2.673 0 00-1.287 1.136 8.014 8.014 0 00-.681 2.8 18.471 18.471 0 00.076 2.953 7.552 7.552 0 00.151 1.211c.076.227.076.454.151.757h-.076a2.161 2.161 0 00-1.514 2.347v.681zm1.968-1.287h.757l.151-.076a1.208 1.208 0 00.606-1.06 6.453 6.453 0 00-.227-1.741 3.8 3.8 0 01-.151-.909c-.076-.757-.076-1.741-.076-2.726a4.054 4.054 0 01.379-1.817.756.756 0 01.379-.3 4.068 4.068 0 001.211-.757 2.5 2.5 0 00.757-.909l.151-.227a2.892 2.892 0 01.681-.681c.076-.076.151-.076.227-.151a9.038 9.038 0 013.1-.606h.984a12.333 12.333 0 014.467.833c.227.076.53.227.757.3a4.989 4.989 0 013.028 5 13.3 13.3 0 01-.3 2.347 6.626 6.626 0 00-.151 1.211l-.076.454a2.192 2.192 0 000 1.211 1.275 1.275 0 001.287.757.578.578 0 01.151.379v.831c0 .3-.076.53-.076.833 0 .151-.076.379-.076.53a1.964 1.964 0 01-.606 1.438c-.076.076-.227.151-.3.227-.227.227-.53.454-.833.757a2.952 2.952 0 00-.606 1.438c-.076.151-.076.3-.151.454a7.063 7.063 0 01-.757 1.514 9.3 9.3 0 01-2.2 2.347 3.068 3.068 0 01-.681.379 8.808 8.808 0 01-1.136.454.264.264 0 00-.151.076 2.884 2.884 0 01-.757.227 3.823 3.823 0 01-1.514 0c-.3-.076-.53-.151-.833-.227l-.151-.076a8.819 8.819 0 01-1.136-.454 3.067 3.067 0 00-.681-.379 8.089 8.089 0 01-3.331-5.073 1.883 1.883 0 00-.757-1.136l-.151-.076a2.464 2.464 0 01-1.136-1.893c0-.151-.076-.379-.076-.53a3.107 3.107 0 01-.076-.833v-.833a1.85 1.85 0 01.08-.528z"/></g></g></svg><svg viewBox="0 0 16.099 16" id="facebook" xmlns="http://www.w3.org/2000/svg"><defs><linearGradient id="aha" x1=".953" y1=".141" x2="-.308" y2="1.236" gradientUnits="objectBoundingBox"><stop offset="0" stop-color="#637f95"/><stop offset="1" stop-color="#243c7e"/></linearGradient></defs><path d="M16.1 8.05A8.05 8.05 0 106.792 16v-5.623H4.748V8.05h2.044V6.276a2.839 2.839 0 013.039-3.131 12.421 12.421 0 011.8.157v1.981h-1.014a1.163 1.163 0 00-1.31 1.257v1.51h2.233l-.359 2.327H9.307V16A8.052 8.052 0 0016.1 8.049z" fill="url(#aha)"/><path fill="none" d="M0 0h16v16H0z"/></svg><svg viewBox="0 0 24 24" id="instagram" xmlns="http://www.w3.org/2000/svg"><defs><linearGradient id="aia" x1=".953" y1=".141" x2="-.308" y2="1.236" gradientUnits="objectBoundingBox"><stop offset="0" stop-color="#637f95"/><stop offset="1" stop-color="#243c7e"/></linearGradient></defs><path fill="none" d="M0 0h24v24H0z"/><path d="M12 0C8.74 0 8.333.015 7.053.072A8.849 8.849 0 004.14.63a5.876 5.876 0 00-2.126 1.384A5.855 5.855 0 00.63 4.14a8.823 8.823 0 00-.558 2.913C.012 8.333 0 8.74 0 12s.015 3.667.072 4.947A8.854 8.854 0 00.63 19.86a5.885 5.885 0 001.384 2.126A5.868 5.868 0 004.14 23.37a8.86 8.86 0 002.913.558C8.333 23.988 8.74 24 12 24s3.667-.015 4.947-.072a8.88 8.88 0 002.913-.558 6.133 6.133 0 003.51-3.51 8.854 8.854 0 00.558-2.913c.06-1.28.072-1.687.072-4.947s-.015-3.667-.072-4.947a8.874 8.874 0 00-.558-2.913 5.89 5.89 0 00-1.384-2.126A5.847 5.847 0 0019.86.63a8.828 8.828 0 00-2.913-.558C15.667.012 15.26 0 12 0zm0 2.16c3.2 0 3.585.016 4.85.071a6.611 6.611 0 012.227.415 3.949 3.949 0 012.278 2.277 6.625 6.625 0 01.413 2.227c.057 1.266.07 1.646.07 4.85s-.015 3.585-.074 4.85a6.753 6.753 0 01-.421 2.227 3.81 3.81 0 01-.9 1.382 3.744 3.744 0 01-1.38.9 6.674 6.674 0 01-2.235.413c-1.274.057-1.649.07-4.859.07s-3.586-.015-4.859-.074a6.8 6.8 0 01-2.236-.421 3.716 3.716 0 01-1.379-.9 3.644 3.644 0 01-.9-1.38 6.81 6.81 0 01-.42-2.235c-.045-1.26-.061-1.649-.061-4.844s.016-3.586.061-4.861A6.8 6.8 0 012.6 4.89a3.557 3.557 0 01.9-1.381 3.549 3.549 0 011.379-.9A6.642 6.642 0 017.1 2.19c1.275-.045 1.65-.06 4.859-.06zm0 3.678A6.162 6.162 0 1018.162 12 6.162 6.162 0 0012 5.838zM12 16a4 4 0 114-4 4 4 0 01-4 4zm7.846-10.4a1.44 1.44 0 11-1.44-1.44 1.441 1.441 0 011.44 1.435z" fill="url(#aia)"/></svg><svg viewBox="0 0 188.855 192" id="journey-icon" xmlns="http://www.w3.org/2000/svg"><defs><filter id="aja" x="0" y="13.855" width="188.855" height="178.145" filterUnits="userSpaceOnUse"><feOffset dy="2"/><feGaussianBlur stdDeviation="28" result="c"/><feFlood flood-color="#2f3443" flood-opacity=".102"/><feComposite operator="in" in2="c"/><feComposite in="SourceGraphic"/></filter><filter id="ajc" x="4.897" y="0" width="179.099" height="181.931" filterUnits="userSpaceOnUse"><feOffset dy="2"/><feGaussianBlur stdDeviation="28" result="f"/><feFlood flood-color="#2f3443" flood-opacity=".102"/><feComposite operator="in" in2="f"/><feComposite in="SourceGraphic"/></filter><linearGradient id="ajb" x1=".953" y1=".141" x2="-.308" y2="1.236" gradientUnits="objectBoundingBox"><stop offset="0" stop-color="#637f95"/><stop offset="1" stop-color="#243c7e"/></linearGradient></defs><g transform="translate(-1121 -999)"><circle cx="26" cy="26" r="26" transform="translate(1189 1067)" fill="#243c7e" opacity=".1"/><g filter="url(#aja)" transform="translate(1121.003 999)"><path d="M127.885 325.26c-.227-.151-.454-.3-.719-.492l-.833-.492c-.227-.114-.454-.227-.719-.379l-.265-.151c-.227-.114-.492-.265-.757-.379a5.258 5.258 0 00-.984-.379l-.416-.114-.189.3c-.189.265-1.931 1.931-3.6 3.445-1.666-1.552-3.407-3.18-3.6-3.445l-.189-.3-.416.151a3.8 3.8 0 00-.946.379c-.265.114-.53.265-.795.379l-.53.265-.871.492a12.87 12.87 0 00-1.06.681 5.078 5.078 0 00-1.741 1.855 4.721 4.721 0 00-.265 2.158v2.309a1.478 1.478 0 001.476 1.476h17.868a1.478 1.478 0 001.476-1.476v-2.271a4.721 4.721 0 00-.265-2.158 4.924 4.924 0 00-1.66-1.854zm-2.574 2.574a.993.993 0 01.492.606.883.883 0 01-.076.757.993.993 0 01-.606.492.882.882 0 01-.757-.076.992.992 0 01-.492-.606.883.883 0 01.076-.757.993.993 0 01.606-.492.835.835 0 01.3-.038 1.007 1.007 0 01.456.114zm3.558 1.363v2.309a.518.518 0 01-.53.53h-17.868a.518.518 0 01-.53-.53v-2.347a3.654 3.654 0 01.189-1.7 4.22 4.22 0 011.4-1.438 10.248 10.248 0 01.946-.644l.454-.265a10.858 10.858 0 00.265 1.06 1.581 1.581 0 00-.568.416 2.248 2.248 0 00-.492.681 2.557 2.557 0 00-.189 1.59l.492 2.082 1.476-.341a.468.468 0 10-.227-.909l-.568.114-.265-1.174a1.36 1.36 0 01.114-.946 1.681 1.681 0 01.3-.416 1.515 1.515 0 01.681-.379 1.278 1.278 0 01.757.038 1.345 1.345 0 01.341.151c.038.038.076.038.114.076a1.422 1.422 0 01.53.8l.265 1.173-.568.114a.468.468 0 10.227.909l1.476-.341-.492-2.082a2.234 2.234 0 00-.833-1.325.792.792 0 00-.227-.151 1.979 1.979 0 00-.568-.265 6.419 6.419 0 00-.871-.038 6.692 6.692 0 01-.3-1.174c0-.038 0-.038-.038-.076l.076-.038c.227-.114.492-.265.757-.379a4.623 4.623 0 01.644-.265c.795.833 3.066 2.953 3.823 3.634l.3.3.3-.3c.757-.681 3.028-2.8 3.823-3.634.189.076.416.151.644.265s.492.227.719.341l.265.151c.189.114.379.189.568.3a5.96 5.96 0 01-.606 1.741 1.68 1.68 0 00-.871.076 1.827 1.827 0 00-1.136.984 1.993 1.993 0 00-.114 1.476 1.827 1.827 0 00.984 1.136 1.8 1.8 0 00.909.227 3.314 3.314 0 00.606-.076 1.827 1.827 0 001.136-.984 1.993 1.993 0 00.114-1.476 2.21 2.21 0 00-.681-.984 6.4 6.4 0 00.568-1.628l.076.038c.227.151.454.3.644.416a4.219 4.219 0 011.4 1.438 4.35 4.35 0 01.159 1.742z" transform="translate(-24.98 -227.02)" fill="url(#ajb)"/></g><g filter="url(#ajc)" transform="translate(1121.003 999)"><path d="M222.171 10.277a2.214 2.214 0 00.076.492c0 .076.038.151.038.227a1.99 1.99 0 001.022 1.628.037.037 0 00.038.038 5.207 5.207 0 002.082 3.1 3.988 3.988 0 00.416.265c.189.114.454.189.681.3h.038a2.836 2.836 0 00.606.189 2.158 2.158 0 00.492.038h.114a2 2 0 00.492-.038 1.674 1.674 0 00.568-.189h.038a4.1 4.1 0 00.719-.3 2.545 2.545 0 00.416-.265 5.071 5.071 0 001.4-1.438 6.738 6.738 0 00.454-.909c.038-.114.076-.265.114-.379a1.76 1.76 0 01.114-.341 1.749 1.749 0 01.265-.265c.076-.038.114-.114.189-.151a1.925 1.925 0 00.606-1.325c0-.076.038-.151.038-.227.038-.151.038-.341.076-.492v-.413a1.1 1.1 0 00-.719-1.136V8.46a1.627 1.627 0 01.076-.454 5.631 5.631 0 00.189-1.363 3.445 3.445 0 00-2.082-3.369c-.151-.076-.3-.114-.454-.189a7.22 7.22 0 00-2.573-.455h-.568a5.252 5.252 0 00-1.893.379.828.828 0 00-.189.114 2.3 2.3 0 00-.606.606c-.038.038-.076.076-.076.114a1.2 1.2 0 01-.189.227 2.546 2.546 0 01-.416.265 1.336 1.336 0 00-.644.568 4.007 4.007 0 00-.341 1.4 9.235 9.235 0 00.038 1.476 3.778 3.778 0 00.076.606c.038.114.038.227.076.379h-.038a1.081 1.081 0 00-.757 1.174v.341zm.984-.644h.379l.076-.038a.6.6 0 00.3-.53 3.227 3.227 0 00-.114-.871 1.9 1.9 0 01-.076-.454c-.038-.379-.038-.871-.038-1.363a2.027 2.027 0 01.189-.909.378.378 0 01.189-.151 2.034 2.034 0 00.606-.379 1.251 1.251 0 00.379-.454l.076-.114a1.446 1.446 0 01.341-.341c.038-.038.076-.038.114-.076a4.519 4.519 0 011.552-.3h.492a6.167 6.167 0 012.233.416c.114.038.265.114.379.151a2.5 2.5 0 011.514 2.5 6.651 6.651 0 01-.151 1.174 3.313 3.313 0 00-.076.606l-.038.227a1.1 1.1 0 000 .606.637.637 0 00.644.379.289.289 0 01.076.189v.416c0 .151-.038.265-.038.416 0 .076-.038.189-.038.265a.982.982 0 01-.3.719c-.038.038-.114.076-.151.114-.114.114-.265.227-.416.379a1.476 1.476 0 00-.3.719c-.038.076-.038.151-.076.227a3.531 3.531 0 01-.379.757 4.652 4.652 0 01-1.1 1.174 1.534 1.534 0 01-.341.189 4.4 4.4 0 01-.568.227.132.132 0 00-.076.038 1.442 1.442 0 01-.379.114 1.912 1.912 0 01-.757 0c-.151-.038-.265-.076-.416-.114l-.076-.038a4.41 4.41 0 01-.568-.227 1.534 1.534 0 00-.341-.189 4.044 4.044 0 01-1.666-2.536.942.942 0 00-.379-.568l-.076-.038a1.232 1.232 0 01-.568-.946c0-.076-.038-.189-.038-.265a1.554 1.554 0 01-.038-.416V9.9a.925.925 0 01.04-.267z" transform="translate(-133.27 79.37)" fill="url(#ajb)"/></g></g></svg><svg viewBox="0 0 24 24" id="lang" xmlns="http://www.w3.org/2000/svg"><defs><linearGradient id="aka" x1=".953" y1=".141" x2="-.308" y2="1.236" gradientUnits="objectBoundingBox"><stop offset="0" stop-color="#637f95"/><stop offset="1" stop-color="#243c7e"/></linearGradient></defs><path fill="none" d="M0 0h24v24H0z"/><path d="M14 2a12 12 0 1012 12A12 12 0 0014 2zm6 18.564a7.482 7.482 0 01-5.508-2.532A9.653 9.653 0 018 20.564a.9.9 0 110-1.8 8.25 8.25 0 008.052-7.524h-8.04a.907.907 0 01-.9-.9.9.9 0 01.9-.888H13.1V8.336a.9.9 0 111.8 0v1.116h2.028c.024 0 .048-.012.072-.012s.048.012.072.012h2.916a.9.9 0 010 1.8h-2.136a10.5 10.5 0 01-2.124 5.472A5.746 5.746 0 0020 18.776a.907.907 0 01.9.9.9.9 0 01-.9.888z" transform="translate(-2 -2)" fill="url(#aka)"/></svg><svg viewBox="0 0 17.75 20.5" id="location" xmlns="http://www.w3.org/2000/svg"><defs><linearGradient id="ala" x1=".953" y1=".141" x2="-.308" y2="1.236" gradientUnits="objectBoundingBox"><stop offset="0" stop-color="#637f95"/><stop offset="1" stop-color="#243c7e"/></linearGradient></defs><path d="M20.621 8.45A8.626 8.626 0 0012 1.75h-.01a8.624 8.624 0 00-8.62 6.69C2.2 13.6 5.36 17.97 8.22 20.72a5.422 5.422 0 007.55 0c2.86-2.75 6.02-7.11 4.85-12.27zM12 13.46a3.15 3.15 0 113.15-3.15A3.15 3.15 0 0112 13.46z" fill="url(#ala)" transform="translate(-3.121 -1.75)"/></svg><svg viewBox="0 0 17.75 20.5" id="location-white" xmlns="http://www.w3.org/2000/svg"><path d="M17.5 6.7A8.626 8.626 0 008.879 0h-.01a8.624 8.624 0 00-8.62 6.69c-1.17 5.16 1.99 9.53 4.85 12.28a5.422 5.422 0 007.55 0c2.86-2.75 6.02-7.11 4.85-12.27zm-8.621 5.01a3.15 3.15 0 113.15-3.15 3.15 3.15 0 01-3.15 3.15z" fill="#fff"/></svg><svg viewBox="0 0 24 24" id="mail" xmlns="http://www.w3.org/2000/svg"><defs><linearGradient id="ana" x1=".953" y1=".141" x2="-.308" y2="1.236" gradientUnits="objectBoundingBox"><stop offset="0" stop-color="#637f95"/><stop offset="1" stop-color="#243c7e"/></linearGradient></defs><path fill="none" d="M0 0h24v24H0z"/><g transform="translate(-1 -3)" fill="url(#ana)"><path d="M22.391 5H3.609A2.609 2.609 0 001 7.609V9.7a.522.522 0 00.272.458l11.478 6.257a.522.522 0 00.5 0l11.478-6.261A.522.522 0 0025 9.7V7.609A2.609 2.609 0 0022.391 5z"/><path d="M13.75 17.331a1.565 1.565 0 01-1.5 0l-11.24-6.13-.01.008v11.007a2.609 2.609 0 002.609 2.61h18.782A2.609 2.609 0 0025 22.216V11.209l-.012-.007z"/></g></svg><svg viewBox="0 0 19.368 16" id="mail-white" xmlns="http://www.w3.org/2000/svg"><defs><linearGradient id="aoa" x1=".953" y1=".141" x2="-.308" y2="1.236" gradientUnits="objectBoundingBox"><stop offset="0" stop-color="#fff"/><stop offset="1" stop-color="#fff"/></linearGradient></defs><g transform="translate(-1)" fill="url(#aoa)"><path d="M18.263 0H3.105A2.105 2.105 0 001 2.105v1.684a.421.421 0 00.219.37l9.263 5.053a.421.421 0 00.4 0l9.263-5.053a.421.421 0 00.219-.37V2.105A2.105 2.105 0 0018.263 0z"/><path d="M11.289 9.951a1.263 1.263 0 01-1.208 0L1.01 5.004 1 5.01v8.884a2.105 2.105 0 002.105 2.105h15.158a2.105 2.105 0 002.105-2.105V5.01l-.01-.006z"/></g></svg><svg viewBox="0 0 24 24" id="phone" xmlns="http://www.w3.org/2000/svg"><defs><linearGradient id="apa" x1=".953" y1=".141" x2="-.308" y2="1.236" gradientUnits="objectBoundingBox"><stop offset="0" stop-color="#637f95"/><stop offset="1" stop-color="#243c7e"/></linearGradient></defs><path fill="none" d="M0 0h24v24H0z"/><g transform="translate(-1 -1)" fill="url(#apa)"><path d="M24.2 12.2a.8.8 0 01-.8-.8 8.81 8.81 0 00-8.8-8.8.8.8 0 110-1.6A10.412 10.412 0 0125 11.4a.8.8 0 01-.8.8z"/><path d="M19.4 12.2a.8.8 0 01-.8-.8 4 4 0 00-4-4 .8.8 0 110-1.6 5.606 5.606 0 015.6 5.6.8.8 0 01-.8.8zM17.022 15.822l-1.956 2.446a20.64 20.64 0 01-7.334-7.334l2.446-1.956a1.662 1.662 0 00.48-1.971L8.429 1.988a1.661 1.661 0 00-1.937-.934l-4.24 1.1A1.67 1.67 0 001.016 4 24.652 24.652 0 0022 24.984a1.67 1.67 0 001.845-1.234l1.1-4.24a1.662 1.662 0 00-.934-1.935l-5.018-2.231a1.662 1.662 0 00-1.971.478z"/></g></svg><svg viewBox="0 0 16 16" id="phone-mail" xmlns="http://www.w3.org/2000/svg"><defs><linearGradient id="aqa" x1=".953" y1=".141" x2="-.308" y2="1.236" gradientUnits="objectBoundingBox"><stop offset="0" stop-color="#fff"/><stop offset="1" stop-color="#fff"/></linearGradient></defs><g transform="translate(-1)" fill="url(#aqa)"><path d="M16.466 7.467a.533.533 0 01-.533-.533 5.874 5.874 0 00-5.867-5.867.533.533 0 110-1.067 6.941 6.941 0 016.933 6.933.533.533 0 01-.533.534z"/><path d="M13.266 7.467a.533.533 0 01-.533-.533 2.67 2.67 0 00-2.667-2.667.533.533 0 110-1.067 3.738 3.738 0 013.733 3.733.533.533 0 01-.533.533zM11.682 9.881l-1.3 1.63a13.76 13.76 0 01-4.89-4.89l1.63-1.3A1.108 1.108 0 007.438 4L5.953.659A1.107 1.107 0 004.662.036L1.835.77A1.114 1.114 0 001.011 2 16.435 16.435 0 0015 15.989a1.114 1.114 0 001.23-.822l.734-2.827a1.108 1.108 0 00-.622-1.29L13 9.563a1.108 1.108 0 00-1.318.318z"/></g></svg><svg viewBox="0 0 16 16" id="phone-white" xmlns="http://www.w3.org/2000/svg"><defs><linearGradient id="ara" x1=".953" y1=".141" x2="-.308" y2="1.236" gradientUnits="objectBoundingBox"><stop offset="0" stop-color="#fff"/><stop offset="1" stop-color="#fff"/></linearGradient></defs><g transform="translate(-1)" fill="url(#ara)"><path d="M16.466 7.467a.533.533 0 01-.533-.533 5.874 5.874 0 00-5.867-5.867.533.533 0 110-1.067 6.941 6.941 0 016.933 6.933.533.533 0 01-.533.534z"/><path d="M13.266 7.467a.533.533 0 01-.533-.533 2.67 2.67 0 00-2.667-2.667.533.533 0 110-1.067 3.738 3.738 0 013.733 3.733.533.533 0 01-.533.533zM11.682 9.881l-1.3 1.63a13.76 13.76 0 01-4.89-4.89l1.63-1.3A1.108 1.108 0 007.438 4L5.953.659A1.107 1.107 0 004.662.036L1.835.77A1.114 1.114 0 001.011 2 16.435 16.435 0 0015 15.989a1.114 1.114 0 001.23-.822l.734-2.827a1.108 1.108 0 00-.622-1.29L13 9.563a1.108 1.108 0 00-1.318.318z"/></g></svg><svg viewBox="0 0 232 232" id="play" xmlns="http://www.w3.org/2000/svg"><defs><linearGradient id="asb" x1=".953" y1=".141" x2="-.308" y2="1.236" gradientUnits="objectBoundingBox"><stop offset="0" stop-color="#637f95"/><stop offset="1" stop-color="#243c7e"/></linearGradient><filter id="asa" x="0" y="0" width="232" height="232" filterUnits="userSpaceOnUse"><feOffset dy="2"/><feGaussianBlur stdDeviation="28" result="c"/><feFlood flood-color="#2f3443" flood-opacity=".102"/><feComposite operator="in" in2="c"/><feComposite in="SourceGraphic"/></filter></defs><g filter="url(#asa)"><circle cx="32" cy="32" r="32" transform="translate(84 82)" fill="url(#asb)"/></g><g fill="#fff"><path d="M114.044 120.537a3.271 3.271 0 01-1.648-.426c-.666-.381-1.783-1.381-1.783-3.743v-4.738c0-2.364 1.115-3.362 1.78-3.746s2.09-.854 4.145.328l4.1 2.369c2.049 1.179 2.355 2.647 2.355 3.417s-.306 2.238-2.356 3.418a.75.75 0 01-.748-1.3 2.663 2.663 0 001.6-2.118 2.663 2.663 0 00-1.6-2.118l-4.1-2.369a2.678 2.678 0 00-2.644-.329 2.669 2.669 0 00-1.032 2.448v4.736a2.663 2.663 0 001.034 2.444 2.673 2.673 0 002.642-.326.75.75 0 01.748 1.3 4.992 4.992 0 01-2.493.753z"/><path d="M116 130.75a16.75 16.75 0 01-13.4-26.799.75.75 0 011.2.9A15.25 15.25 0 10116 98.75a14.944 14.944 0 00-6.142 1.295.75.75 0 01-.612-1.369A16.435 16.435 0 01116 97.25a16.754 16.754 0 016.518 32.183A16.634 16.634 0 01116 130.75z"/></g></svg><svg viewBox="0 0 22 22" id="search" xmlns="http://www.w3.org/2000/svg"><g fill="#637f95"><path d="M10.5 21A10.5 10.5 0 1121 10.5 10.512 10.512 0 0110.5 21zm0-19a8.5 8.5 0 108.5 8.5A8.51 8.51 0 0010.5 2z"/><path d="M21 22a1 1 0 01-.707-.293l-2-2a1 1 0 011.414-1.414l2 2A1 1 0 0121 22z"/></g></svg><svg viewBox="0 0 96 96" id="services" xmlns="http://www.w3.org/2000/svg"><defs><linearGradient id="aua" x1=".953" y1=".141" x2="-.308" y2="1.236" gradientUnits="objectBoundingBox"><stop offset="0" stop-color="#637f95"/><stop offset="1" stop-color="#243c7e"/></linearGradient></defs><g transform="translate(-766 -1572)"><circle cx="48" cy="48" r="48" transform="translate(766 1572)" fill="url(#aua)"/><g fill="#fff"><path d="M801.33 1631.551a2.682 2.682 0 01-1.049-.216 2.646 2.646 0 01-1.667-2.488 3.182 3.182 0 00-3.182-3.176h-.367a5.077 5.077 0 01-5.065-5.065v-12.536a5.07 5.07 0 015.065-5.07h26.9a5.077 5.077 0 015.071 5.07v12.537a5.077 5.077 0 01-5.071 5.07h-12.627a2.448 2.448 0 00-1.749.723l-4.371 4.354a2.646 2.646 0 01-1.888.8zm-6.265-27.211a3.73 3.73 0 00-3.724 3.73v12.537a3.73 3.73 0 003.724 3.73h.368a4.522 4.522 0 014.522 4.517 1.358 1.358 0 002.331.961l4.359-4.359a3.778 3.778 0 012.692-1.125h12.629a3.735 3.735 0 003.73-3.73v-12.53a3.735 3.735 0 00-3.73-3.73zm16.022 17.076h-4.441a.67.67 0 01-.67-.67v-3.6h-3.6a.67.67 0 01-.67-.67v-4.453a.67.67 0 01.67-.67h3.6v-3.573a.67.67 0 01.67-.67h4.441a.67.67 0 01.682.67v3.6h3.6a.67.67 0 01.67.67v4.453a.67.67 0 01-.67.67h-3.6v3.6a.67.67 0 01-.682.647zm-3.779-1.339h3.112v-3.6a.665.665 0 01.67-.67h3.6v-3.112h-3.6a.665.665 0 01-.67-.67v-3.6h-3.1v3.6a.665.665 0 01-.67.67h-3.6v3.112h3.6a.665.665 0 01.67.67z"/><path d="M811.086 1621.416h-4.441a.67.67 0 01-.67-.67v-3.6h-3.6a.67.67 0 01-.67-.67v-4.449a.67.67 0 01.67-.67h3.6v-3.573a.67.67 0 01.67-.67h4.441a.67.67 0 01.682.67v3.6h3.6a.67.67 0 01.67.67v4.453a.67.67 0 01-.67.67h-3.6v3.6a.67.67 0 01-.682.647zm-3.782-1.34h3.11v-3.6a.665.665 0 01.67-.67h3.6v-3.109h-3.6a.665.665 0 01-.67-.67v-3.6h-3.1v3.6a.665.665 0 01-.67.67h-3.6v3.112h3.6a.665.665 0 01.67.67zM827.987 1637.047a2.406 2.406 0 01-1.7-.7l-3.812-3.812a2.1 2.1 0 00-1.475-.583h-11.068a4.522 4.522 0 01-4.517-4.517v-.461a.666.666 0 01.2-.472l1-1a3.777 3.777 0 012.722-1.172h12.629a3.735 3.735 0 003.73-3.73v-8.025a.665.665 0 01.67-.67h7.116a4.523 4.523 0 014.518 4.513v10.957a4.517 4.517 0 01-4.517 4.517h-.32a2.7 2.7 0 00-2.7 2.7 2.412 2.412 0 01-1.509 2.261 2.47 2.47 0 01-.968.192zm-21.214-9.849v.181a3.182 3.182 0 003.176 3.182h11.044a3.394 3.394 0 012.419 1l3.817 3.812a1.1 1.1 0 001.923-.781 4.039 4.039 0 014.039-4.033h.321a3.181 3.181 0 003.176-3.182v-10.959a3.176 3.176 0 00-3.176-3.176h-6.475v7.361a5.077 5.077 0 01-5.071 5.07h-12.629a2.448 2.448 0 00-1.749.723z"/><path d="M831.881 1629.856a.67.67 0 110-1.34c1.97 0 2.634-.664 2.634-2.634v-4.546a.67.67 0 111.34 0v4.546c.001 2.709-1.264 3.974-3.974 3.974zM793.222 1614.604a.67.67 0 01-.67-.67v-4.546c0-2.716 1.265-3.98 3.975-3.98a.67.67 0 010 1.341c-1.97 0-2.634.664-2.634 2.64v4.546a.677.677 0 01-.67.67z"/></g></g></svg><svg viewBox="0 0 24 24" id="snapchat" xmlns="http://www.w3.org/2000/svg"><defs><linearGradient id="ava" x1=".953" y1=".141" x2="-.308" y2="1.236" gradientUnits="objectBoundingBox"><stop offset="0" stop-color="#637f95"/><stop offset="1" stop-color="#243c7e"/></linearGradient></defs><path fill="none" d="M0 0h24v24H0z"/><path d="M11.4 0a6.117 6.117 0 00-5.017 2.366C5.271 3.8 4.64 6.7 4.536 9.133l-.127.019-.037.006c-.187.029-.41.063-.639.109a3.055 3.055 0 00-2.675 2.359 2.6 2.6 0 00.429 2.093 3.4 3.4 0 001.228.977q.234.116.474.218A13.008 13.008 0 011.478 18.1a3.014 3.014 0 00-.145 2.905c.342.777.988.742 2.066.792a12.937 12.937 0 011.89.222 5.174 5.174 0 011.05.371q.369.167.733.344c.2.1.408.2.649.309a8.5 8.5 0 003.564.957 8.5 8.5 0 003.563-.954c.242-.112.451-.213.649-.309l.044-.021c.233-.112.451-.217.689-.323a5.159 5.159 0 011.05-.37 12.942 12.942 0 011.889-.223c1.079-.05 1.916-.015 2.259-.792a3.014 3.014 0 00-.145-2.905 13.035 13.035 0 01-1.7-3.167c.156-.065.342-.143.528-.234a3.233 3.233 0 001.265-1 2.473 2.473 0 00.3-2.186 3.278 3.278 0 00-2.716-2.248 11.62 11.62 0 00-.617-.109h-.021l-.1-.016c-.112-2.278-.708-5.16-1.8-6.611A6.119 6.119 0 0011.4 0z" transform="translate(1)" fill="url(#ava)"/></svg><svg viewBox="0 0 16.712 16.004" id="stars" xmlns="http://www.w3.org/2000/svg"><g data-name="Group 16394"><path data-name="Path 34282" d="M7.455.564L5.418 4.701l-4.563.665a1 1 0 00-.553 1.706l3.3 3.218-.781 4.546a1 1 0 001.45 1.053l4.084-2.146 4.084 2.147a1 1 0 001.45-1.053l-.781-4.546 3.3-3.218a1 1 0 00-.553-1.707L11.29 4.7 9.255.564a1 1 0 00-1.8 0z" fill="#ebb73f"/></g></svg><svg viewBox="0 0 72 72" id="time" xmlns="http://www.w3.org/2000/svg"><defs><linearGradient id="axa" x1=".953" y1=".141" x2="-.308" y2="1.236" gradientUnits="objectBoundingBox"><stop offset="0" stop-color="#637f95"/><stop offset="1" stop-color="#243c7e"/></linearGradient></defs><g transform="translate(-1574 -799)"><circle cx="36" cy="36" r="36" transform="translate(1574 799)" fill="url(#axa)"/><g fill="#fff"><path d="M1610 855a20 20 0 10-20-20 20 20 0 0020 20z" opacity=".4"/><path d="M1617.42 842.862a1.34 1.34 0 01-.76-.22l-6.2-3.7a5.9 5.9 0 01-2.68-4.72v-8.2a1.5 1.5 0 013 0v8.2a2.956 2.956 0 001.22 2.14l6.2 3.7a1.5 1.5 0 01.52 2.06 1.54 1.54 0 01-1.3.74z"/></g></g></svg><svg viewBox="0 0 24 24" id="twitter" xmlns="http://www.w3.org/2000/svg"><defs><linearGradient id="aya" x1=".953" y1=".141" x2="-.308" y2="1.236" gradientUnits="objectBoundingBox"><stop offset="0" stop-color="#637f95"/><stop offset="1" stop-color="#243c7e"/></linearGradient></defs><path fill="none" d="M0 0h24v24H0z"/><path d="M23.952 5.318a10.019 10.019 0 01-2.824.774 4.952 4.952 0 002.164-2.723 10.262 10.262 0 01-3.129 1.184 4.919 4.919 0 00-8.513 3.358 5 5 0 00.129 1.121A13.925 13.925 0 011.64 3.908a4.843 4.843 0 00-.668 2.478 4.916 4.916 0 002.187 4.093 4.889 4.889 0 01-2.226-.614v.059a4.925 4.925 0 003.945 4.828 5.068 5.068 0 01-1.293.172 5.012 5.012 0 01-.918-.086 4.943 4.943 0 004.605 3.418 9.876 9.876 0 01-6.1 2.1A9.76 9.76 0 010 20.29a13.992 13.992 0 007.557 2.21 13.9 13.9 0 0014-13.988c0-.207 0-.418-.016-.629A9.849 9.849 0 0024 5.337z" transform="translate(.002 -.994)" fill="url(#aya)"/></svg><svg viewBox="0 0 24 24" id="whatsapp" xmlns="http://www.w3.org/2000/svg"><defs><linearGradient id="aza" x1=".953" y1=".141" x2="-.308" y2="1.236" gradientUnits="objectBoundingBox"><stop offset="0" stop-color="#637f95"/><stop offset="1" stop-color="#243c7e"/></linearGradient></defs><path fill="none" d="M0 0h24v24H0z"/><path d="M20.4 3.489A11.781 11.781 0 0011.991 0a11.9 11.9 0 00-10.31 17.836L0 24l6.306-1.653a11.9 11.9 0 005.685 1.448H12a11.889 11.889 0 008.4-20.306zm-8.41 18.292A9.859 9.859 0 016.957 20.4l-.36-.216-3.741.981 1-3.649-.234-.376a9.881 9.881 0 118.37 4.641zm5.422-7.4c-.3-.149-1.755-.867-2.029-.969s-.472-.148-.667.148-.769.969-.94 1.162-.348.222-.645.075a8.114 8.114 0 01-2.388-1.477 9.069 9.069 0 01-1.654-2.058c-.171-.3-.016-.456.132-.6.13-.132.3-.348.444-.519a1.9 1.9 0 00.3-.495.553.553 0 00-.023-.52c-.075-.148-.667-1.614-.918-2.2s-.484-.5-.667-.51-.37-.01-.57-.01a1.093 1.093 0 00-.793.37 3.33 3.33 0 00-1.041 2.471 5.757 5.757 0 001.215 3.073 13.212 13.212 0 005.074 4.488 16.531 16.531 0 001.693.627 4.082 4.082 0 001.869.12 3.078 3.078 0 002.007-1.414 2.488 2.488 0 00.171-1.414c-.073-.126-.273-.2-.57-.348z" fill="url(#aza)"/></svg><svg viewBox="0 0 24 24" id="youtube" xmlns="http://www.w3.org/2000/svg"><defs><linearGradient id="baa" x1=".953" y1=".141" x2="-.308" y2="1.236" gradientUnits="objectBoundingBox"><stop offset="0" stop-color="#637f95"/><stop offset="1" stop-color="#243c7e"/></linearGradient></defs><path fill="none" d="M0 0h24v24H0z"/><path d="M23.065 47.367c-.866-1.03-2.466-1.45-5.52-1.45H6.456c-3.125 0-4.751.447-5.614 1.544C0 48.53 0 50.1 0 52.285v4.155c0 4.223 1 6.368 6.456 6.368h11.088c2.649 0 4.117-.371 5.066-1.279.974-.929 1.39-2.455 1.39-5.089v-4.155c0-2.299-.065-3.885-.935-4.918zm-7.656 7.569l-5.035 2.632a.774.774 0 01-1.133-.686v-5.247a.774.774 0 011.131-.687l5.035 2.615a.774.774 0 010 1.373z" transform="translate(0 -41.917)" fill="url(#baa)"/></svg></svg>