<svg xmlns="http://www.w3.org/2000/svg" width="96" height="96"><g transform="translate(-766 -1572)"><circle cx="48" cy="48" r="48" transform="translate(766 1572)" fill="#d0d3da"/><path d="M830.814 1628.48c-.454-.3-.909-.606-1.438-.984l-1.666-.984q-.73-.357-1.438-.757l-.53-.3c-.454-.227-.984-.53-1.514-.757a10.528 10.528 0 00-1.969-.757l-.833-.227-.379.606c-.379.53-3.861 3.861-7.193 6.89-3.331-3.1-6.814-6.36-7.192-6.89l-.379-.606-.833.3a7.594 7.594 0 00-1.893.757c-.53.227-1.06.53-1.59.757l-1.06.53-1.741.984c-.757.454-1.514.909-2.12 1.363a10.155 10.155 0 00-3.483 3.71 9.443 9.443 0 00-.53 4.315v4.618a2.956 2.956 0 002.953 2.953h35.736a2.956 2.956 0 002.953-2.953v-4.543a9.442 9.442 0 00-.53-4.315 9.848 9.848 0 00-3.331-3.71zm-5.148 5.148a1.985 1.985 0 01.984 1.211 1.765 1.765 0 01-.151 1.514 1.986 1.986 0 01-1.211.984 1.764 1.764 0 01-1.514-.151 1.985 1.985 0 01-.984-1.211 1.765 1.765 0 01.151-1.514 1.985 1.985 0 011.211-.984 1.666 1.666 0 01.606-.076 2.015 2.015 0 01.907.227zm7.117 2.726v4.618a1.035 1.035 0 01-1.06 1.06h-35.736a1.035 1.035 0 01-1.06-1.06v-4.694a7.307 7.307 0 01.379-3.407 8.441 8.441 0 012.8-2.877 20.512 20.512 0 011.893-1.287l.909-.53a21.685 21.685 0 00.53 2.12 3.161 3.161 0 00-1.136.833 4.5 4.5 0 00-.984 1.363 5.113 5.113 0 00-.379 3.18l.983 4.162 2.953-.681a.936.936 0 00-.454-1.817l-1.136.227-.53-2.347a2.719 2.719 0 01.227-1.893 3.361 3.361 0 01.606-.833 3.027 3.027 0 011.363-.757 2.556 2.556 0 011.514.076 2.7 2.7 0 01.681.3c.076.076.151.076.227.151a2.843 2.843 0 011.06 1.59l.53 2.347-1.136.227a.936.936 0 00.454 1.817l2.953-.681-.984-4.164a4.468 4.468 0 00-1.666-2.65 1.585 1.585 0 00-.454-.3 3.955 3.955 0 00-1.136-.53 12.819 12.819 0 00-1.741-.076 13.383 13.383 0 01-.606-2.347c0-.076 0-.076-.076-.151l.151-.076c.454-.227.984-.53 1.514-.757a9.226 9.226 0 011.287-.53c1.59 1.666 6.133 5.905 7.647 7.268l.606.606.606-.606c1.514-1.363 6.057-5.6 7.647-7.268.379.151.833.3 1.287.53s.984.454 1.439.681l.53.3c.379.227.757.379 1.136.606a11.924 11.924 0 01-1.211 3.483 3.361 3.361 0 00-1.741.151 3.654 3.654 0 00-2.271 1.968 3.986 3.986 0 00-.227 2.953 3.654 3.654 0 001.968 2.271 3.6 3.6 0 001.817.454 6.619 6.619 0 001.211-.151 3.656 3.656 0 002.271-1.968 3.986 3.986 0 00.227-2.953 4.42 4.42 0 00-1.363-1.968 12.806 12.806 0 001.136-3.255l.151.076c.454.3.909.606 1.287.833a8.438 8.438 0 012.8 2.877 8.7 8.7 0 01.306 3.486z" fill="#385185"/><path d="M802.8 1611.294a4.425 4.425 0 00.151.984c0 .151.076.3.076.454a3.98 3.98 0 002.044 3.256.074.074 0 00.076.076 10.413 10.413 0 004.164 6.208 7.95 7.95 0 00.833.53c.379.227.909.379 1.363.606h.076a5.672 5.672 0 001.211.379 4.312 4.312 0 00.984.076h.227a4.009 4.009 0 00.984-.076 3.35 3.35 0 001.136-.379h.076a8.221 8.221 0 001.439-.606 5.092 5.092 0 00.833-.53 10.137 10.137 0 002.8-2.877 13.484 13.484 0 00.908-1.817c.076-.227.152-.53.227-.757a1.6 1.6 0 01.757-1.211c.151-.076.227-.227.379-.3a3.85 3.85 0 001.211-2.65c0-.151.076-.3.076-.454.076-.3.076-.681.151-.984v-.833a2.2 2.2 0 00-1.438-2.271v-.454a3.251 3.251 0 01.151-.909 11.259 11.259 0 00.379-2.726 6.891 6.891 0 00-4.164-6.738c-.3-.151-.606-.227-.909-.379a14.441 14.441 0 00-5.148-.909h-1.136a10.5 10.5 0 00-3.786.757 1.657 1.657 0 00-.379.227 4.61 4.61 0 00-1.211 1.211c-.076.076-.151.151-.151.227a2.4 2.4 0 01-.379.454 5.075 5.075 0 01-.833.53 2.672 2.672 0 00-1.287 1.136 8.015 8.015 0 00-.681 2.8 18.468 18.468 0 00.076 2.953 7.549 7.549 0 00.151 1.211c.076.227.076.454.151.757h-.076a2.161 2.161 0 00-1.514 2.347v.681zm1.968-1.287h.757l.151-.076a1.209 1.209 0 00.606-1.06 6.452 6.452 0 00-.227-1.741 3.8 3.8 0 01-.151-.909c-.076-.757-.076-1.741-.076-2.726a4.054 4.054 0 01.379-1.817.757.757 0 01.379-.3 4.065 4.065 0 001.211-.757 2.5 2.5 0 00.757-.909l.151-.227a2.9 2.9 0 01.681-.681c.076-.076.151-.076.227-.151a9.039 9.039 0 013.1-.606h.984a12.333 12.333 0 014.467.833c.227.076.53.227.757.3a4.989 4.989 0 013.028 5 13.308 13.308 0 01-.3 2.347 6.615 6.615 0 00-.151 1.211l-.076.454a2.191 2.191 0 000 1.211 1.275 1.275 0 001.287.757.577.577 0 01.151.379v.831c0 .3-.076.53-.076.833 0 .151-.076.379-.076.53a1.963 1.963 0 01-.606 1.438c-.076.076-.227.151-.3.227-.227.227-.53.454-.833.757a2.952 2.952 0 00-.606 1.438c-.076.151-.076.3-.151.454a7.061 7.061 0 01-.757 1.514 9.3 9.3 0 01-2.2 2.347 3.062 3.062 0 01-.681.379 8.839 8.839 0 01-1.136.454.264.264 0 00-.151.076 2.875 2.875 0 01-.757.227 3.819 3.819 0 01-1.514 0c-.3-.076-.53-.151-.833-.227l-.151-.076a8.8 8.8 0 01-1.136-.454 3.08 3.08 0 00-.681-.379 8.089 8.089 0 01-3.331-5.073 1.883 1.883 0 00-.757-1.136l-.151-.076a2.464 2.464 0 01-1.136-1.893c0-.151-.076-.379-.076-.53a3.108 3.108 0 01-.076-.833v-.833a1.85 1.85 0 01.08-.528z" fill="#385185"/></g></svg>