<svg xmlns="http://www.w3.org/2000/svg" width="107.011" height="20" viewBox="0 0 107.011 20">
  <g id="Group_1539" data-name="Group 1539" transform="translate(-866 -6621)">
    <rect id="Rectangle_189" data-name="Rectangle 189" width="107.011" height="20" rx="10" transform="translate(866 6621)" fill="#fff"/>
    <g id="Group_1538" data-name="Group 1538" transform="translate(874.005 6624.526)">
      <path id="Path_1" data-name="Path 1" d="M11.848.784c0-.226-.07-.309-.3-.306-.967.011-1.935.017-2.9,0-.307-.007-.36.106-.36.382Q8.3,3.621,8.29,6.386a2.385,2.385,0,0,1-1.9,2.349A2.358,2.358,0,0,1,3.655,7.156q-.032-.1-.06-.192H3.461A2.527,2.527,0,0,0,6.018,8.916,2.482,2.482,0,0,0,8.4,6.431c.025-1.788.01-3.576.014-5.364,0-.12.016-.245.027-.391a.526.526,0,0,1,.339.559c0,1.722.007,3.443,0,5.165a2.869,2.869,0,0,1-5.6.9q-.052-.165-.089-.334H2.959A3.024,3.024,0,0,0,6,9.412,2.969,2.969,0,0,0,8.884,6.5c.028-1.633.011-3.267.015-4.9,0-.124.012-.248.017-.373l.13-.035a1.44,1.44,0,0,1,.211.491c.015,1.62.032,3.244,0,4.866a3.355,3.355,0,0,1-6.66.42H2.473a.182.182,0,0,0,.008.043,3.474,3.474,0,0,0,6.9-.517c.033-1.467.012-2.935.017-4.4,0-.12.019-.24.031-.36l.145-.023a2.092,2.092,0,0,1,.18.574q.025,2.068,0,4.14a3.933,3.933,0,0,1-.145,1.043,3.84,3.84,0,0,1-7.415-.054q-.059-.218-.1-.44h-.12a3.462,3.462,0,0,0,.06.373,4.015,4.015,0,0,0,4.2,3.045A3.96,3.96,0,0,0,9.867,6.52c.021-1.3.009-2.6.012-3.906V2.261h.37v.376c0,1.214.017,2.428-.008,3.642a5.726,5.726,0,0,1-.194,1.4,4.32,4.32,0,0,1-8.228.173,8,8,0,0,1-.22-.883H1.466a4.464,4.464,0,0,0,8.891-.451c.027-1.39.015-2.781.013-4.171a.644.644,0,0,1,.368-.656V6.181a6.338,6.338,0,0,1-.035.859,4.829,4.829,0,0,1-9.475.554q-.067-.311-.12-.625H.987a6.594,6.594,0,0,0,.138.727A4.946,4.946,0,0,0,10.852,6.5c0-1.567.008-3.135,0-4.7a.586.586,0,0,1,.338-.6,2.208,2.208,0,0,1,.032.24c0,1.689.011,3.378,0,5.066a5.065,5.065,0,0,1-.136,1.114A5.314,5.314,0,0,1,.731,7.627Q.656,7.3.611,6.967H.494c.008.076.017.152.028.228a5.438,5.438,0,0,0,10.234,1.7,5.921,5.921,0,0,0,.6-2.782c-.014-1.611,0-3.223-.006-4.834a.609.609,0,0,1,.37-.617V1.05c0,1.744.006,3.488,0,5.231a7.247,7.247,0,0,1-.1,1.184A5.8,5.8,0,0,1,4.025,11.91a5.708,5.708,0,0,1-3.9-4.943H0a5.617,5.617,0,0,0,.088.606A5.93,5.93,0,0,0,11.825,6.68c.048-1.963.012-3.928.02-5.893" transform="translate(0 0)" fill="#104185"/>
      <path id="Path_2" data-name="Path 2" d="M10.178,9.645a1,1,0,0,0-1.031-1.1A1.088,1.088,0,0,0,8.03,9.594a1.076,1.076,0,0,0,1.1,1.106,1.007,1.007,0,0,0,1.052-1.054" transform="translate(-3.213 -3.227)" fill="#104185"/>
      <path id="Path_3" data-name="Path 3" d="M11.848.784c0-.226-.07-.309-.3-.306-.967.011-1.935.017-2.9,0-.307-.007-.36.106-.36.382Q8.3,3.621,8.29,6.386a2.385,2.385,0,0,1-1.9,2.349A2.358,2.358,0,0,1,3.655,7.156q-.032-.1-.06-.192H3.461A2.527,2.527,0,0,0,6.018,8.916,2.482,2.482,0,0,0,8.4,6.431c.025-1.788.01-3.576.014-5.364,0-.12.016-.245.027-.391a.526.526,0,0,1,.339.559c0,1.722.007,3.443,0,5.165a2.869,2.869,0,0,1-5.6.9q-.052-.165-.089-.334H2.959A3.024,3.024,0,0,0,6,9.412,2.969,2.969,0,0,0,8.884,6.5c.028-1.633.011-3.267.015-4.9,0-.124.012-.248.017-.373l.13-.035a1.44,1.44,0,0,1,.211.491c.015,1.62.032,3.244,0,4.866a3.355,3.355,0,0,1-6.66.42H2.473a.182.182,0,0,0,.008.043,3.474,3.474,0,0,0,6.9-.517c.033-1.467.012-2.935.017-4.4,0-.12.019-.24.031-.36l.145-.023a2.092,2.092,0,0,1,.18.574q.025,2.068,0,4.14a3.933,3.933,0,0,1-.145,1.043,3.84,3.84,0,0,1-7.415-.054q-.059-.218-.1-.44h-.12a3.462,3.462,0,0,0,.06.373,4.015,4.015,0,0,0,4.2,3.045A3.96,3.96,0,0,0,9.867,6.52c.021-1.3.009-2.6.012-3.906V2.261h.37v.376c0,1.214.017,2.428-.008,3.642a5.726,5.726,0,0,1-.194,1.4,4.32,4.32,0,0,1-8.228.173,8,8,0,0,1-.22-.883H1.466a4.464,4.464,0,0,0,8.891-.451c.027-1.39.015-2.781.013-4.171a.644.644,0,0,1,.368-.656V6.181a6.338,6.338,0,0,1-.035.859,4.829,4.829,0,0,1-9.475.554q-.067-.311-.12-.625H.987a6.594,6.594,0,0,0,.138.727A4.946,4.946,0,0,0,10.852,6.5c0-1.567.008-3.135,0-4.7a.586.586,0,0,1,.338-.6,2.208,2.208,0,0,1,.032.24c0,1.689.011,3.378,0,5.066a5.065,5.065,0,0,1-.136,1.114A5.314,5.314,0,0,1,.731,7.627Q.656,7.3.611,6.967H.494c.008.076.017.152.028.228a5.438,5.438,0,0,0,10.234,1.7,5.921,5.921,0,0,0,.6-2.782c-.014-1.611,0-3.223-.006-4.834a.609.609,0,0,1,.37-.617V1.05c0,1.744.006,3.488,0,5.231a7.247,7.247,0,0,1-.1,1.184A5.8,5.8,0,0,1,4.025,11.91a5.708,5.708,0,0,1-3.9-4.943H0a5.617,5.617,0,0,0,.088.606A5.93,5.93,0,0,0,11.825,6.68c.048-1.963.012-3.928.02-5.893" transform="translate(0 0)" fill="#104185"/>
      <path id="Path_4" data-name="Path 4" d="M10.178,9.645A1.007,1.007,0,0,1,9.127,10.7a1.076,1.076,0,0,1-1.1-1.106,1.088,1.088,0,0,1,1.118-1.05,1,1,0,0,1,1.031,1.1" transform="translate(-3.213 -3.227)" fill="#ff0006"/>
      <path id="Path_5" data-name="Path 5" d="M13.86.7,15.612,2.93,17.352.7" transform="translate(-5.545 -0.091)" fill="#104185"/>
      <path id="Path_6" data-name="Path 6" d="M86.493,7.495h0c-.519,0-1.036,0-1.544-.008l-.673,0a.4.4,0,0,1-.34-.24.372.372,0,0,1-.012-.091.221.221,0,0,1,.046-.14A.2.2,0,0,1,84,6.977h-.018l-.022-.07a.445.445,0,0,1-.008-.334.253.253,0,0,1,.02-.033A.236.236,0,0,1,84,6.516l.011-.017h-.016l-.023-.07a.471.471,0,0,1-.01-.364.231.231,0,0,1,.017-.028.266.266,0,0,1,.132-.093.936.936,0,0,1-.087-.086.818.818,0,0,0-.06-.066l-.1-.083h0l.1-.076h0a.626.626,0,0,0,.065-.06c.023-.024.04-.037.06-.055H84l-.024-.067a.586.586,0,0,1-.044-.293.23.23,0,0,1,.056-.12.24.24,0,0,1,.05-.044A.215.215,0,0,1,84,4.967a.3.3,0,0,1-.08-.227V4.731A.294.294,0,0,1,84,4.514L84.02,4.5l-.05-.013-.016-.056a.389.389,0,0,1,.022-.356.24.24,0,0,1,.064-.06A.251.251,0,0,1,84,3.979a.293.293,0,0,1-.08-.226.308.308,0,0,1,.068-.212l-.021-.067a.441.441,0,0,1,.013-.389l0-.007.006-.007h0L84,3.061h-.014l-.022-.079a.456.456,0,0,1,.016-.394.247.247,0,0,1,.035-.037h0a.281.281,0,0,1,.092-.054.356.356,0,0,1-.175-.192.253.253,0,0,1,.032-.224.211.211,0,0,1,.026-.028L83.976,2a.618.618,0,0,1-.051-.282.248.248,0,0,1,.042-.113.245.245,0,0,1,.065-.064A.214.214,0,0,1,84,1.518a.3.3,0,0,1-.08-.24.329.329,0,0,1,.06-.2l-.018-.071A.785.785,0,0,1,83.927.8a.3.3,0,0,1,.053-.18A.375.375,0,0,1,84.293.5h1.394c.807,0,1.641-.008,2.462.016a3.485,3.485,0,0,1,2.34,5.894,3.366,3.366,0,0,1-2.362,1.064c-.54.014-1.088.019-1.632.019Z" transform="translate(-33.543 -0.01)" fill="#104185" stroke="rgba(0,0,0,0)" stroke-width="1"/>
      <path id="Path_7" data-name="Path 7" d="M77.58.474h4.158V12.343H77.58Z" transform="translate(-31.031 0)" fill="#ff0006"/>
      <path id="Path_8" data-name="Path 8" d="M31.818.627,31.8,7.14a6.579,6.579,0,0,1-.364,2.315,4.892,4.892,0,0,1-1.045,1.7A4.224,4.224,0,0,1,28.782,12.2a6.78,6.78,0,0,1-4.2,0,4.221,4.221,0,0,1-1.608-1.049,4.868,4.868,0,0,1-1.045-1.7,6.676,6.676,0,0,1-.365-2.332V.642h2.787V7.053a3.283,3.283,0,0,0,.6,2.2,2.584,2.584,0,0,0,3.483-.017,3.282,3.282,0,0,0,.6-2.2V.627Zm12.066,0V12.286H41.149V9.455q0-2.074.05-3.1a9.615,9.615,0,0,0,.033-1.033h-.017l-.149.25c-.1.166-.215.35-.349.566s-.249.416-.365.6a2.392,2.392,0,0,0-.2.35l-1.36,2.332H37.35L35.991,7.09a2.436,2.436,0,0,0-.2-.35c-.116-.184-.232-.383-.365-.6s-.248-.4-.347-.566l-.15-.25h-.02a9.509,9.509,0,0,0,.034,1.016q.049,1.024.05,3.1v2.848H32.255V.627h2.62l2.173,3.531c.215.35.382.633.514.849s.232.383.3.516a2.575,2.575,0,0,0,.149.266l.05.067h.016l.05-.067a2.383,2.383,0,0,0,.15-.266c.067-.134.166-.3.3-.516s.3-.5.514-.849L41.266.627ZM48.9,6.008h-.016a1.944,1.944,0,0,0,1.277-.367,1.375,1.375,0,0,0,0-2.032,1.9,1.9,0,0,0-1.26-.366H47.308V6.008ZM48.933.627h-.017a6.274,6.274,0,0,1,1.925.266,4.064,4.064,0,0,1,1.44.8,3.464,3.464,0,0,1,.912,1.267,4.552,4.552,0,0,1,0,3.331,3.469,3.469,0,0,1-.912,1.266,4.051,4.051,0,0,1-1.44.8,6.139,6.139,0,0,1-1.908.266H47.292v3.664H44.5V.628ZM76.256,9.755V12.37h-8.54V.71h8.444V3.323H70.5v1.92h4.428V7.692H70.5V9.757ZM84.2,8.089,83.342,5.84q-.1-.25-.2-.55c-.065-.2-.115-.383-.166-.549s-.1-.317-.132-.433l-.05-.18h-.016l-.05.166c-.034.116-.083.266-.133.433s-.1.35-.166.55-.133.383-.2.549L81.4,8.091Zm.863,2.465h-4.6l-.664,1.815H76.823L81.451.728h2.64l4.645,11.641h-3Zm11.281,1.815-3.567-4.86L91.8,8.49v3.864H89.017V.7H91.8v4.4h.017l.082-.083.249-.25c.116-.116.266-.283.464-.48s.448-.451.746-.749L96.183.714H99.6L94.673,5.678l4.961,6.7Z" transform="translate(-8.627 -0.061)" fill="#104185"/>
    </g>
  </g>
</svg>
