<svg xmlns="http://www.w3.org/2000/svg" width="33.868" height="24"><path fill="none" d="M0 0h33.868v24H0z"/><path fill="#ff5f00" d="M13.425 5.711h7V18.29h-7z"/><path d="M13.87 12a7.986 7.986 0 013.056-6.29 8 8 0 100 12.579A7.986 7.986 0 0113.87 12z" fill="#eb001b"/><path d="M29.866 12a8 8 0 01-12.943 6.29 8 8 0 000-12.579A8 8 0 0129.866 12zm-.761 4.957v-.258h.1v-.052h-.264v.052h.1v.258zm.513 0v-.311h-.081l-.093.214-.093-.214h-.081v.311h.057v-.234l.087.2h.059l.087-.2v.235z" fill="#f79e1b"/></svg>