<svg xmlns="http://www.w3.org/2000/svg" width="58.868" height="24"><path fill="none" d="M0 0h58.868v24H0z"/><path d="M22.811 4.283l-6.486 15.475h-4.232L8.901 7.408a1.7 1.7 0 00-.952-1.36A16.765 16.765 0 004 4.732l.095-.45h6.812a1.865 1.865 0 011.846 1.578l1.687 8.96 4.166-10.533h4.206zm16.581 10.423c.017-4.084-5.648-4.309-5.609-6.134.012-.555.541-1.146 1.7-1.3a7.552 7.552 0 013.947.693l.7-3.282a10.757 10.757 0 00-3.745-.686c-3.957 0-6.742 2.1-6.765 5.115-.026 2.228 1.988 3.471 3.5 4.211 1.56.758 2.084 1.245 2.078 1.923-.011 1.038-1.245 1.5-2.4 1.514a8.386 8.386 0 01-4.11-.977l-.726 3.39a12.137 12.137 0 004.452.822c4.206 0 6.957-2.077 6.97-5.295m10.449 5.052h3.7L50.301 4.277h-3.417a1.821 1.821 0 00-1.7 1.135l-6.007 14.34h4.2l.834-2.311h5.136zm-4.467-5.483l2.107-5.81 1.213 5.81zM28.523 4.277l-3.31 15.475h-4l3.312-15.475z" fill="#fff"/></svg>