<svg xmlns="http://www.w3.org/2000/svg" width="59.539" height="56"><defs><style>.a{fill:#8cc63f}</style></defs><path class="a" d="M30.831.001a9.291 9.291 0 00-1.323 18.488v7.764a3.971 3.971 0 00-2.645 3.736v22.036a3.968 3.968 0 107.936 0V29.988a3.971 3.971 0 00-2.645-3.736v-7.764A9.29 9.29 0 0030.831.001zm1.322 29.987v19.1H29.51v-19.1a1.322 1.322 0 112.643 0zm-1.322 23.358a1.323 1.323 0 01-1.322-1.321v-.294h2.643v.294a1.323 1.323 0 01-1.321 1.321zm0-37.4a6.65 6.65 0 116.651-6.65 6.657 6.657 0 01-6.651 6.651z"/><path class="a" d="M30.877 3.461a1.323 1.323 0 10-.09 2.645 3.368 3.368 0 013.263 3.383 1.323 1.323 0 002.646 0 6.006 6.006 0 00-5.819-6.028zM9.657.007A9.3 9.3 0 000 9.298a1.323 1.323 0 002.646 0 6.651 6.651 0 016.911-6.645 6.754 6.754 0 016.385 6.385 6.654 6.654 0 01-4.731 6.631 4.638 4.638 0 00-3.237 4.448v6.138a3.971 3.971 0 00-2.645 3.736v22.034a3.968 3.968 0 107.935 0V29.989a3.97 3.97 0 00-2.644-3.736v-6.137a1.976 1.976 0 011.351-1.913A9.3 9.3 0 009.658.003zm.96 49.076H7.974V29.989a1.322 1.322 0 012.643 0zM9.3 53.345a1.323 1.323 0 01-1.326-1.32v-.3h2.643v.3a1.323 1.323 0 01-1.317 1.32zm49.45-46.23L46.401 1.67a1.323 1.323 0 10-1.068 2.421l10.471 4.617-4.743 4.243a4.681 4.681 0 00-1.559 3.486v9.807a3.972 3.972 0 00-2.646 3.738v22.047a3.97 3.97 0 007.939 0V29.982a3.972 3.972 0 00-2.646-3.738v-9.807a2.034 2.034 0 01.676-1.513l6.272-5.612a1.324 1.324 0 00-.347-2.2zm-7.923 21.543a1.324 1.324 0 011.323 1.323V49.09h-2.647V29.981a1.325 1.325 0 011.324-1.323zm0 24.7a1.324 1.324 0 01-1.324-1.329v-.294h2.646v.294a1.324 1.324 0 01-1.322 1.325z"/></svg>