<svg xmlns="http://www.w3.org/2000/svg" width="44.8" height="56"><defs><style>.a{fill:#8cc63f}</style></defs><g transform="translate(-14.009 -5.024)"><path class="a" d="M58.506 12.871a2.7 2.7 0 00-2.884-1.9c-.2-.008-.426-.017-.685-.039a31.416 31.416 0 01-8.486-1.717l-.108-.041a41.159 41.159 0 01-7.388-3.41 4.758 4.758 0 00-5.092 0 41.159 41.159 0 01-7.388 3.41l-.108.041a31.416 31.416 0 01-8.486 1.717c-.259.022-.485.031-.685.039a2.7 2.7 0 00-2.884 1.9 8.852 8.852 0 00-.212 3.759c.038.476.073.924.07 1.244l-.019 1.565c-.1 8.12-.213 16.518 4.031 24.154 4.08 7.342 10.869 12.732 16.974 17.037a2.174 2.174 0 002.5 0c6.1-4.3 12.893-9.694 16.973-17.036 4.243-7.637 4.135-16.033 4.031-24.154l-.019-1.565c0-.319.032-.768.07-1.244a8.85 8.85 0 00-.205-3.76zm-2.272 3.562c-.042.533-.082 1.036-.078 1.467l.019 1.57c.105 8.153.2 15.855-3.717 22.913-3.8 6.833-10.223 11.962-16.048 16.081-5.826-4.12-12.252-9.249-16.048-16.081-3.922-7.058-3.823-14.759-3.717-22.913l.019-1.57c0-.431-.035-.934-.078-1.467a8.385 8.385 0 01.031-2.618 2.128 2.128 0 01.157-.323c.116-.017.34-.027.526-.035.232-.01.494-.021.794-.047a33.755 33.755 0 009.163-1.872l.108-.041a43.058 43.058 0 007.85-3.645 2.226 2.226 0 012.388 0 43.058 43.058 0 007.85 3.645l.108.041a33.7 33.7 0 009.163 1.872c.3.026.563.037.794.047.186.007.41.017.526.035a2.064 2.064 0 01.157.323 8.422 8.422 0 01.032 2.618z"/><circle class="a" cx="1.245" cy="1.245" r="1.245" transform="translate(38.743 26.386)"/><circle class="a" cx="1.245" cy="1.245" r="1.245" transform="translate(31.587 26.386)"/><path class="a" d="M38.465 30.666a2.7 2.7 0 01-4.112 0 1.246 1.246 0 10-1.823 1.7 5.189 5.189 0 007.756 0 1.246 1.246 0 10-1.822-1.7z"/><path class="a" d="M38.774 16.959a9.57 9.57 0 00-2.364.676 9.527 9.527 0 00-2.362-.675 9.915 9.915 0 00-8.9 3.164c-3.548 4.289-1.46 10.871 2.714 14.326a.288.288 0 01.113.251c-.449 3.224-.713 7.994 2.188 12.124a5.993 5.993 0 001.229 1.255 2.059 2.059 0 001 .46 1.878 1.878 0 00.238.014 1.968 1.968 0 001.913-1.278 2.327 2.327 0 00.078-.81 1.226 1.226 0 00-.018-.349l-.077-.352c0-.021-.007-.043-.011-.063v-.006l-.062-.283a9.561 9.561 0 01-.334-3.646 4.355 4.355 0 011.74-3.077.882.882 0 011.1 0 4.352 4.352 0 011.741 3.076 9.565 9.565 0 01-.334 3.647l-.054.249c0 .013-.009.025-.011.038l-.011.064-.077.351a1.227 1.227 0 00-.018.346 2.276 2.276 0 00.074.8 1.983 1.983 0 003.144.831 6.033 6.033 0 001.243-1.267c2.9-4.131 2.635-8.9 2.184-12.124a.286.286 0 01.111-.251c4.176-3.456 6.264-10.039 2.716-14.327a9.913 9.913 0 00-8.893-3.164zm4.59 15.576a2.756 2.756 0 00-.988 2.511c.579 4.136.163 7.152-1.319 9.649a9.84 9.84 0 00.11-3.262 6.79 6.79 0 00-2.877-4.843 3.354 3.354 0 00-3.761 0 6.79 6.79 0 00-2.876 4.843 9.837 9.837 0 00.11 3.261c-1.483-2.5-1.9-5.514-1.319-9.65a2.757 2.757 0 00-.99-2.511c-2.822-2.335-5.221-7.4-2.386-10.823a7.459 7.459 0 016.61-2.285 7.18 7.18 0 012.172.7c.024.012.05.016.074.027s.047.035.074.049a7.8 7.8 0 012.373 1.942 1.245 1.245 0 001.929-1.575 10.156 10.156 0 00-1.116-1.146 7.453 7.453 0 016.567 2.293c2.835 3.423.436 8.483-2.387 10.82z"/></g></svg>