<svg xmlns="http://www.w3.org/2000/svg" width="62" height="62.001"><path d="M49.205 31.9A17.372 17.372 0 0057 17c0-9.374-6.729-17-15-17a14.149 14.149 0 00-11 5.456A14.149 14.149 0 0020 0C11.729 0 5 7.626 5 17a17.372 17.372 0 007.8 14.9l.37 2.72a65.218 65.218 0 009.13 25.522 3.779 3.779 0 002.776 1.84A3.566 3.566 0 0029 58.434V42.17A2.119 2.119 0 0130.891 40 2 2 0 0133 42v16.274A3.568 3.568 0 0036.574 62a3.55 3.55 0 003.032-1.7l.1-.156a65.244 65.244 0 009.134-25.526zm-1.917-.746l-.436 3.2A63.262 63.262 0 0138 59.1l-.1.157a1.535 1.535 0 01-.524.5l4.495-16.484A31.96 31.96 0 0043 34.849v-.262a31.99 31.99 0 00-.5-5.509l4.121-3.3a.991.991 0 00.355-.585l1-5-1.957-.393-.929 4.643-3.05 2.44a32.006 32.006 0 00-2.861-7.428l4.334-2.6a1 1 0 00.466-.661l1-5-1.961-.394-.913 4.566-3.905 2.349-1.339-2.231-1.715 1.029 1.582 2.637A29.945 29.945 0 0138.662 23h-3.129l-1.7-2.555-1.664 1.109 2 3A1 1 0 0035 25h4.416a29.981 29.981 0 011.484 7.2l-3.653.73L33.6 30.2l-1.2 1.6 4 3a.993.993 0 00.8.18l3.791-.758c0 .122.013.243.013.365v.262a29.94 29.94 0 01-1.058 7.894L35.4 59.415a1.857 1.857 0 01-.4-1.141V42a4 4 0 00-4.214-4A4.089 4.089 0 0027 42.17v16.264a1.567 1.567 0 01-.386 1.018l-4.557-16.71A29.968 29.968 0 0121 34.849v-.262c0-.122.011-.243.012-.365l3.791.758A1.02 1.02 0 0025 35a1 1 0 00.6-.2l4-3-1.2-1.6-3.643 2.731L21.1 32.2a29.971 29.971 0 011.483-7.2H27a1 1 0 00.832-.445l2-3-1.664-1.109L26.465 23h-3.129a30.14 30.14 0 011.939-3.849l1.582-2.637-1.715-1.029-1.342 2.231-3.91-2.346-.91-4.57-1.961.393 1 5a1 1 0 00.466.661l4.334 2.6a32.006 32.006 0 00-2.861 7.428l-3.05-2.44-.929-4.642-1.961.393 1 5a1 1 0 00.355.585l4.121 3.3A32.159 32.159 0 0019 34.587v.262a31.989 31.989 0 001.128 8.419l4.493 16.475A2.093 2.093 0 0124 59.1a63.234 63.234 0 01-8.854-24.747l-.436-3.2a1 1 0 00-.492-.732C9.767 27.857 7 22.716 7 17 7 8.729 12.832 2 20 2a12.391 12.391 0 0110.177 5.69 1.038 1.038 0 001.646 0A12.391 12.391 0 0142 2c7.168 0 13 6.729 13 15 0 5.716-2.767 10.857-7.22 13.419a1 1 0 00-.492.732z"/><path d="M53 17c0-7.168-4.935-13-11-13v2c4.963 0 9 4.935 9 11zm-5 37a4 4 0 104 4 4 4 0 00-4-4zm0 6a2 2 0 112-2 2 2 0 01-2 2zm7-20a7 7 0 107 7 7.009 7.009 0 00-7-7zm0 12a5 5 0 115-5 5.006 5.006 0 01-5 5zm-41 2a4 4 0 104 4 4 4 0 00-4-4zm0 6a2 2 0 112-2 2 2 0 01-2 2zm0-13a7 7 0 10-7 7 7.009 7.009 0 007-7zm-7 5a5 5 0 115-5 5.006 5.006 0 01-5 5z"/></svg>