<svg xmlns="http://www.w3.org/2000/svg" width="49.604" height="80"><path d="M49.445 28.351a10.758 10.758 0 00-3.753-6.81c-.242-.208-.482-.423-.737-.647a7.9 7.9 0 00.4-1.084 21.375 21.375 0 00.68-3.7 10.791 10.791 0 00-3.782-8.969 8.642 8.642 0 00-9.215-1.62c-.4.154-.62.052-.884-.385A10.718 10.718 0 0030.759 3.2C27.327-.326 23.567-.844 19.607 1.18a9.8 9.8 0 00-4.755 5.792c-.225.643-.448.8-.97.664a8.83 8.83 0 00-9.291 2.889A11.792 11.792 0 002.74 22.9c.2.474.44.92.7 1.451l-.612.667A11.778 11.778 0 00.781 36.933a9.6 9.6 0 005.2 5.74A3.247 3.247 0 018.255 45.1a2.154 2.154 0 00.285.555c2.26 3.815 5.29 5.195 8.766 5.122.107 0 .254-.2.335-.387a9.847 9.847 0 009.047 2.989 11.3 11.3 0 006.954-5.066 8.106 8.106 0 001.473-.256 9.827 9.827 0 006.673-6.442 1.352 1.352 0 01.9-.955 8.835 8.835 0 004.086-2.741 11.371 11.371 0 002.672-9.569" fill="#8cc63f"/><path d="M32.394 61.929a2.488 2.488 0 10-3.164 2.384v12.606a1.812 1.812 0 01-3.624 0l.053-34.068a7.062 7.062 0 006.445-7.014V25.473h-2.913a1.048 1.048 0 00-1.021-.867h-.74a1.059 1.059 0 00-1.06 1.059v.884a1.059 1.059 0 001.06 1.06h.737a1.047 1.047 0 001.021-.867h1.646v9.1a5.811 5.811 0 11-11.622 0v-9.1h1.774a1.046 1.046 0 001.021.867h.737a1.06 1.06 0 001.06-1.06v-.884a1.06 1.06 0 00-1.06-1.059h-.737a1.047 1.047 0 00-1.021.867h-3.041v10.369a7.063 7.063 0 006.444 7.014l-.053 34.065a3.08 3.08 0 106.16 0V64.342a2.486 2.486 0 001.895-2.409" fill="#3b2314"/></svg>