<svg xmlns="http://www.w3.org/2000/svg" width="2122.276" height="1910.499"><g opacity=".31" fill="none"><path d="M1060.979 1002.148a18.24 18.24 0 01-13.41-6.245 14 14 0 01-2.532.185 14.262 14.262 0 01-13.565-11.123 20.084 20.084 0 01-11.65-9.912c-4.135-8.117-2.094-17.851 4.363-24.346a18.927 18.927 0 01-3.247-10.658c0-10.223 7.974-18.511 17.809-18.511a17.187 17.187 0 015.124.778 16.169 16.169 0 0130.938-3.1 15.326 15.326 0 017.447-1.79c9.3.162 16.688 8.725 16.507 19.126a20.522 20.522 0 01-2.246 9.053 19.335 19.335 0 018.075 16.42c-.156 8.955-5.876 16.353-13.4 18.133a14.319 14.319 0 01-13.849 12.479 18.409 18.409 0 01-16.044 9.516z"/><path d="M1061.301 1001.15a17.16 17.16 0 008.879-2.478 17.777 17.777 0 006.293-6.526l.281-.503.576-.008a13.043 13.043 0 008.553-3.397 13.584 13.584 0 004.32-8.218l.093-.68.668-.158c3.445-.815 6.603-2.947 8.89-6.002a18.47 18.47 0 002.69-5.12 19.794 19.794 0 001.048-6.055c.055-3.19-.647-6.333-2.033-9.09-1.338-2.663-3.276-4.906-5.603-6.485l-.734-.498.406-.788c1.344-2.607 2.082-5.585 2.135-8.612.084-4.784-1.499-9.305-4.456-12.731-2.929-3.394-6.86-5.304-11.068-5.378a14.264 14.264 0 00-6.963 1.675l-1.004.529-.399-1.061c-1.04-2.767-2.91-5.138-5.406-6.858-2.556-1.76-5.574-2.691-8.726-2.691-3.65 0-7.168 1.276-9.907 3.594-2.707 2.289-4.473 5.432-4.973 8.85l-.17 1.157-1.117-.348a16.2 16.2 0 00-4.827-.732c-4.483 0-8.699 1.816-11.872 5.115-3.184 3.309-4.937 7.711-4.937 12.396 0 3.642 1.063 7.134 3.074 10.097l.463.682-.581.584a21.81 21.81 0 00-3.813 5.166 20.724 20.724 0 00-2.067 5.878c-.79 4.21-.203 8.409 1.7 12.143 2.26 4.438 6.195 7.783 11.076 9.418l.53.177.126.545a13.593 13.593 0 004.513 7.332 12.887 12.887 0 008.326 3.019c.71 0 1.425-.058 2.121-.174l.547-.09.367.416a17.413 17.413 0 005.621 4.253 17.014 17.014 0 007.36 1.655m0 1c-.107 0-.214 0-.322-.002-5.337-.094-10.105-2.49-13.41-6.245a13.986 13.986 0 01-2.532.185c-6.621-.116-12.103-4.838-13.565-11.123-4.941-1.655-9.178-5.06-11.65-9.912-4.135-8.117-2.094-17.851 4.363-24.346-2.046-3.013-3.247-6.69-3.247-10.658 0-10.224 7.973-18.511 17.81-18.511 1.78 0 3.5.271 5.123.777 1.101-7.517 7.787-13.298 15.87-13.298 6.929 0 12.83 4.249 15.068 10.197a15.335 15.335 0 017.447-1.79c9.298.162 16.689 8.725 16.507 19.125-.058 3.296-.869 6.382-2.246 9.053 4.942 3.353 8.196 9.477 8.075 16.42-.157 8.955-5.876 16.353-13.398 18.133-.956 7.001-6.8 12.37-13.849 12.48-3.186 5.693-9.194 9.515-16.044 9.515z" fill="#aed778"/><path d="M1060.681 1091.128a53.832 53.832 0 01-39.579-18.431 41.333 41.333 0 01-7.473.546c-19.543-.341-35.722-14.28-40.035-32.828a59.277 59.277 0 01-34.385-29.254c-12.206-23.956-6.186-52.687 12.875-71.855a55.86 55.86 0 01-9.583-31.458c0-30.173 23.533-54.634 52.563-54.634a50.726 50.726 0 0115.124 2.3c3.249-22.19 22.981-39.253 46.835-39.253 20.45 0 37.869 12.539 44.474 30.095a45.233 45.233 0 0121.979-5.283c27.447.478 49.256 25.751 48.72 56.448a60.57 60.57 0 01-6.629 26.719c14.586 9.9 24.189 27.971 23.831 48.462-.461 26.43-17.342 48.264-39.542 53.517-2.823 20.663-20.07 36.508-40.873 36.832a54.334 54.334 0 01-47.352 28.086q-.474 0-.95-.009z"/><path d="M1061.631 1091.137v-1a52.48 52.48 0 0014.333-1.988 52.69 52.69 0 0012.88-5.609c7.998-4.837 14.66-11.745 19.267-19.977l.281-.503.576-.009a39.952 39.952 0 0014.407-2.913 40.722 40.722 0 0012.116-7.617 41.697 41.697 0 008.831-11.345 42.015 42.015 0 004.544-14.092l.093-.68.667-.158c5.353-1.267 10.45-3.526 15.148-6.716 4.62-3.136 8.727-7.082 12.205-11.727 3.514-4.693 6.28-9.958 8.222-15.65 2.01-5.895 3.087-12.108 3.198-18.468a60.932 60.932 0 00-1.497-14.586 58.02 58.02 0 00-4.709-13.153c-4.099-8.158-10.042-15.032-17.187-19.879l-.734-.498.406-.788c2.02-3.92 3.6-8.11 4.694-12.454a61.03 61.03 0 001.824-13.824c.129-7.382-1.038-14.564-3.469-21.348-2.345-6.546-5.762-12.446-10.155-17.537-4.387-5.082-9.525-9.1-15.273-11.944-5.942-2.939-12.28-4.487-18.839-4.602a43.897 43.897 0 00-11.543 1.335 45.167 45.167 0 00-9.952 3.833l-1.003.529-.4-1.061a44.134 44.134 0 00-6.707-11.84 45.829 45.829 0 00-9.968-9.32c-7.871-5.421-17.16-8.287-26.862-8.287a47.59 47.59 0 00-16.578 2.95 46.486 46.486 0 00-13.922 8.118c-8.351 7.064-13.802 16.769-15.348 27.326l-.17 1.158-1.117-.349a49.763 49.763 0 00-14.826-2.25 49.535 49.535 0 00-20.057 4.21c-6.14 2.698-11.654 6.563-16.39 11.486a53.624 53.624 0 00-11.06 17.05c-2.691 6.614-4.056 13.642-4.056 20.888 0 11.143 3.254 21.827 9.41 30.897l.463.682-.581.584A66.319 66.319 0 00941.2 955.72c-3.013 5.686-5.13 11.71-6.294 17.904-1.178 6.267-1.354 12.58-.523 18.767a56.933 56.933 0 005.717 18.317 56.85 56.85 0 0014.21 17.853c5.726 4.8 12.32 8.47 19.6 10.907l.53.178.127.544a41.916 41.916 0 005.203 12.606 41.594 41.594 0 008.77 10.094 40.507 40.507 0 0011.55 6.755 40.057 40.057 0 0014.27 2.606 40.43 40.43 0 006.579-.539l.547-.09.366.416a54.242 54.242 0 007.938 7.38 53.25 53.25 0 009.281 5.646c6.794 3.23 14.07 4.934 21.627 5.066.311.005.625.008.933.008v1m0 0c-.316 0-.633-.003-.95-.009-15.753-.275-29.825-7.347-39.58-18.43a41.29 41.29 0 01-7.473.546c-19.542-.342-35.722-14.28-40.035-32.828-14.584-4.885-27.088-14.937-34.384-29.255-12.206-23.956-6.182-52.687 12.875-71.855-6.038-8.894-9.583-19.745-9.583-31.458 0-30.173 23.533-54.634 52.563-54.634 5.257 0 10.334.803 15.124 2.296 3.25-22.186 22.981-39.249 46.837-39.249 20.45 0 37.87 12.54 44.473 30.095 6.441-3.395 13.627-5.29 21.189-5.29.263 0 .526.002.79.006 27.443.48 49.255 25.752 48.719 56.449-.17 9.727-2.565 18.834-6.629 26.719 14.586 9.895 24.19 27.97 23.832 48.462-.462 26.43-17.343 48.264-39.542 53.517-2.823 20.663-20.07 36.508-40.873 36.832-9.405 16.806-27.136 28.086-47.353 28.086z" fill="#aed778"/><path d="M1060.377 1182.754a89.424 89.424 0 01-65.747-30.616 68.663 68.663 0 01-12.414.906c-32.463-.567-59.34-23.721-66.5-54.532-24.226-8.113-45-24.811-57.117-48.6-20.283-39.793-10.274-87.52 21.382-119.358a92.792 92.792 0 01-15.919-52.257c0-50.122 39.093-90.755 87.315-90.755a84.264 84.264 0 0125.123 3.812c5.4-36.854 38.176-65.2 77.8-65.2 33.97 0 62.907 20.83 73.877 49.992a75.139 75.139 0 0136.511-8.776c45.585.8 81.819 42.778 80.929 93.769a100.617 100.617 0 01-11.012 44.384c24.23 16.438 40.182 46.465 39.588 80.5-.766 43.9-28.808 80.175-65.685 88.9-4.689 34.324-33.339 60.646-67.9 61.184-15.622 27.917-45.076 46.654-78.66 46.655q-.78.004-1.571-.008z"/><path d="M1061.956 1182.766v-1c8.14 0 16.211-1.12 23.989-3.327a88.19 88.19 0 0021.559-9.388c13.383-8.094 24.53-19.654 32.24-33.428l.28-.503.576-.009a67.028 67.028 0 0024.17-4.887c7.459-3.015 14.297-7.314 20.323-12.776a69.924 69.924 0 0014.81-19.026 70.45 70.45 0 007.619-23.63l.093-.68.667-.158c8.97-2.122 17.51-5.908 25.382-11.252 7.735-5.251 14.61-11.856 20.432-19.632 5.879-7.85 10.506-16.659 13.754-26.18 3.363-9.856 5.162-20.246 5.348-30.88a101.884 101.884 0 00-2.503-24.388 97.048 97.048 0 00-7.876-21.998c-6.86-13.652-16.808-25.158-28.77-33.273l-.734-.498.406-.788a97.48 97.48 0 007.851-20.83 102.046 102.046 0 003.05-23.114 102.687 102.687 0 00-1.34-18.456 99.018 99.018 0 00-4.46-17.24 95.273 95.273 0 00-7.26-15.652 90.594 90.594 0 00-9.733-13.689 84.963 84.963 0 00-11.88-11.353 79.13 79.13 0 00-13.698-8.648 74.907 74.907 0 00-15.196-5.576 73.674 73.674 0 00-35.727.1 75.696 75.696 0 00-16.68 6.424l-1.003.528-.4-1.06a73.973 73.973 0 00-11.242-19.847 76.791 76.791 0 00-16.702-15.614 78.32 78.32 0 00-20.965-10.22 80.032 80.032 0 00-24.032-3.664c-9.57 0-18.913 1.663-27.768 4.942a77.878 77.878 0 00-23.324 13.6c-6.882 5.821-12.595 12.69-16.98 20.415-4.493 7.912-7.434 16.453-8.742 25.386l-.17 1.158-1.117-.348a83.323 83.323 0 00-24.826-3.767 83.81 83.81 0 00-17.389 1.821 83.483 83.483 0 00-16.195 5.226 85.335 85.335 0 00-14.66 8.27 87.776 87.776 0 00-12.776 10.957 89.747 89.747 0 00-10.544 13.284 90.944 90.944 0 00-7.963 15.248 91.919 91.919 0 00-5.033 16.852 93.902 93.902 0 00-1.755 18.097c0 9.423 1.397 18.705 4.153 27.587a90.796 90.796 0 0011.593 24.108l.463.682-.581.585c-7.763 7.808-14.282 16.64-19.374 26.25-5.035 9.503-8.575 19.572-10.52 29.928-1.97 10.48-2.264 21.039-.875 31.384a95.234 95.234 0 009.564 30.64 95.098 95.098 0 0023.77 29.863c4.77 4 9.986 7.58 15.5 10.642a103.125 103.125 0 0017.273 7.598l.53.177.127.544a70.287 70.287 0 008.725 21.14 69.756 69.756 0 0014.706 16.926 67.95 67.95 0 0019.375 11.332 67.203 67.203 0 0023.94 4.372c3.698 0 7.411-.304 11.036-.904l.547-.09.367.416a90.771 90.771 0 0013.282 12.35 89.12 89.12 0 0015.533 9.449 87.744 87.744 0 0017.378 6.118 88.329 88.329 0 0020.382 2.374v1m0 0a90.07 90.07 0 01-1.579-.014c-26.168-.457-49.543-12.205-65.747-30.616a68.588 68.588 0 01-12.414.906c-32.464-.566-59.34-23.72-66.505-54.532-24.227-8.113-44.998-24.811-57.117-48.597-20.276-39.794-10.27-87.521 21.387-119.361-10.03-14.776-15.919-32.8-15.919-52.257 0-50.123 39.093-90.755 87.315-90.755a84.264 84.264 0 0125.123 3.812c5.398-36.854 38.176-65.198 77.804-65.198 33.97 0 62.907 20.83 73.878 49.992 10.699-5.638 22.636-8.788 35.197-8.788.438 0 .875.004 1.314.012 45.585.796 81.819 42.777 80.929 93.769-.282 16.16-4.26 31.286-11.012 44.384 24.23 16.438 40.182 46.465 39.588 80.504-.767 43.905-28.808 80.175-65.686 88.9-4.689 34.324-33.338 60.646-67.896 61.184-15.622 27.917-45.076 46.654-78.66 46.655z" fill="#aed778"/><path d="M1060.075 1274.375a125.016 125.016 0 01-91.915-42.8 95.988 95.988 0 01-17.355 1.267c-45.384-.792-82.958-33.162-92.975-76.237-33.869-11.342-62.908-34.686-79.85-67.939-28.346-55.632-14.356-122.355 29.9-166.868a129.725 129.725 0 01-22.254-73.056c0-70.071 54.652-126.876 122.068-126.876a117.8 117.8 0 0135.122 5.33c7.545-51.523 53.368-91.149 108.769-91.149 47.491 0 87.944 29.12 103.281 69.89a105.045 105.045 0 0151.044-12.27c63.729 1.113 114.383 59.8 113.139 131.09a140.663 140.663 0 01-15.394 62.05c33.874 22.981 56.174 64.958 55.344 112.545-1.072 61.379-40.274 112.085-91.829 124.283-6.556 47.986-46.608 84.784-94.92 85.535-21.84 39.028-63.017 65.223-109.967 65.224q-1.103.001-2.208-.019z"/><path d="M1062.282 1274.395v-1c11.417 0 22.736-1.57 33.645-4.666a123.684 123.684 0 0030.237-13.167c18.768-11.352 34.402-27.563 45.212-46.88l.282-.502.575-.01a94.097 94.097 0 0033.932-6.86c10.472-4.233 20.071-10.267 28.531-17.935a98.155 98.155 0 0020.787-26.706 98.888 98.888 0 0010.695-33.169l.093-.68.668-.158c12.588-2.978 24.571-8.29 35.616-15.788 10.85-7.366 20.493-16.63 28.66-27.537 8.242-11.008 14.731-23.36 19.286-36.71 4.714-13.818 7.237-28.384 7.497-43.292.202-11.581-.978-23.084-3.509-34.19-2.453-10.765-6.168-21.143-11.043-30.844-9.62-19.146-23.574-35.283-40.353-46.667l-.734-.497.406-.788c4.738-9.193 8.442-19.02 11.008-29.206 2.645-10.501 4.083-21.403 4.275-32.403a143.95 143.95 0 00-1.877-25.874 138.824 138.824 0 00-6.255-24.172 133.587 133.587 0 00-10.18-21.946 127.043 127.043 0 00-13.65-19.198c-5.077-5.883-10.683-11.241-16.662-15.925-6.033-4.728-12.5-8.81-19.22-12.134a105.122 105.122 0 00-21.325-7.825 103.398 103.398 0 00-50.14.141c-8.05 2.039-15.926 5.072-23.407 9.014l-1.003.529-.399-1.061c-3.76-9.995-9.068-19.366-15.778-27.852a107.75 107.75 0 00-23.436-21.91 109.895 109.895 0 00-29.415-14.339c-10.851-3.411-22.195-5.141-33.716-5.141-13.427 0-26.535 2.333-38.96 6.934a110.36 110.36 0 00-17.308 8.184 109.42 109.42 0 00-15.417 10.899 107.79 107.79 0 00-13.193 13.29 105.452 105.452 0 00-10.635 15.357c-6.305 11.104-10.432 23.091-12.269 35.629l-.17 1.158-1.117-.348a116.885 116.885 0 00-34.824-5.285c-8.212 0-16.42.86-24.393 2.555a117.101 117.101 0 00-22.719 7.33 119.696 119.696 0 00-20.563 11.602 123.108 123.108 0 00-17.92 15.367 125.867 125.867 0 00-14.787 18.63 127.533 127.533 0 00-11.167 21.383 128.9 128.9 0 00-7.058 23.632 131.673 131.673 0 00-2.461 25.377c0 13.215 1.96 26.23 5.825 38.686a127.328 127.328 0 0016.257 33.808l.463.682-.582.585c-10.88 10.944-20.016 23.323-27.153 36.792-7.058 13.32-12.02 27.436-14.748 41.952-2.76 14.693-3.173 29.497-1.226 44.003a133.536 133.536 0 0013.41 42.962 134.237 134.237 0 0014.752 22.878 134.49 134.49 0 0018.578 18.996 138.71 138.71 0 0021.733 14.92 144.577 144.577 0 0024.214 10.65l.53.178.127.545a98.662 98.662 0 0012.247 29.673 97.918 97.918 0 0020.643 23.76c8.189 6.812 17.34 12.164 27.2 15.906 10.2 3.872 20.942 5.932 31.928 6.124a95.21 95.21 0 0017.175-1.254l.547-.09.366.416a127.305 127.305 0 0018.627 17.32c6.8 5.154 14.13 9.612 21.786 13.251a123.069 123.069 0 0024.373 8.58 123.891 123.891 0 0028.586 3.33v1m0 0c-.735 0-1.47-.006-2.207-.019-36.583-.638-69.263-17.062-91.915-42.801a95.877 95.877 0 01-17.356 1.267c-45.384-.792-82.958-33.161-92.974-76.237-33.869-11.342-62.908-34.686-79.85-67.939-28.347-55.632-14.357-122.355 29.898-166.868-14.02-20.656-22.254-45.855-22.254-73.056 0-70.072 54.652-126.876 122.068-126.876 12.208 0 24 1.863 35.122 5.33 7.547-51.522 53.37-91.148 108.77-91.148 47.492 0 87.945 29.12 103.282 69.89 14.957-7.883 31.645-12.286 49.206-12.286.612 0 1.223.005 1.837.016 63.729 1.112 114.383 59.804 113.14 131.09-.395 22.59-5.957 43.739-15.395 62.05 33.874 22.98 56.174 64.958 55.344 112.545-1.072 61.38-40.274 112.085-91.829 124.283-6.556 47.986-46.608 84.784-94.92 85.536-21.84 39.027-63.017 65.223-109.967 65.224z" fill="#aed778"/><path d="M1059.772 1366c-47-.82-88.981-21.92-118.083-54.987a123.316 123.316 0 01-22.3 1.628c-58.3-1.018-106.576-42.6-119.444-97.941-43.511-14.572-80.817-44.561-102.584-87.281-36.412-71.47-18.439-157.19 38.415-214.378a166.657 166.657 0 01-28.59-93.855c0-90.021 70.211-163 156.82-163a151.341 151.341 0 0145.121 6.848c9.696-66.186 68.565-117.093 139.738-117.093 61.012 0 112.981 37.41 132.685 89.787a134.951 134.951 0 0165.575-15.763c81.872 1.429 146.948 76.83 145.349 168.411a180.711 180.711 0 01-19.777 79.715c43.517 29.523 72.167 83.451 71.1 144.586-1.377 78.854-51.74 144-117.972 159.666-8.421 61.648-59.876 108.923-121.943 109.889-28.058 50.138-80.958 83.792-141.278 83.793q-1.412 0-2.832-.025z"/><path d="M1062.608 1366.025v-1a158.56 158.56 0 0043.302-6.005 159.185 159.185 0 0038.915-16.946c24.153-14.609 44.273-35.471 58.185-60.33l.28-.503.577-.01c15.069-.234 29.77-3.206 43.694-8.835a123.171 123.171 0 0019.427-9.95 125.237 125.237 0 0017.311-13.143 126.769 126.769 0 0026.765-34.387c7.086-13.318 11.72-27.687 13.771-42.707l.093-.68.668-.158c16.206-3.834 31.632-10.672 45.85-20.324a151.02 151.02 0 0019.757-16.038 159.984 159.984 0 0017.13-19.403c10.607-14.167 18.958-30.06 24.818-47.24 6.067-17.781 9.312-36.523 9.647-55.705.26-14.901-1.259-29.702-4.515-43.992-3.156-13.853-7.937-27.206-14.21-39.69-12.38-24.64-30.34-45.408-51.937-60.06l-.733-.498.406-.788c6.097-11.829 10.863-24.473 14.165-37.581 3.403-13.512 5.254-27.54 5.5-41.693a185.226 185.226 0 00-2.414-33.291 178.644 178.644 0 00-8.05-31.103 171.917 171.917 0 00-13.1-28.242c-5.119-8.82-11.028-17.132-17.565-24.706-6.536-7.572-13.751-14.468-21.446-20.498-7.767-6.085-16.091-11.34-24.741-15.619a135.34 135.34 0 00-27.455-10.074 133.113 133.113 0 00-64.554.182c-10.364 2.625-20.502 6.53-30.132 11.605l-1.003.528-.4-1.061c-4.84-12.868-11.675-24.932-20.313-35.857-8.552-10.817-18.703-20.307-30.17-28.206a141.464 141.464 0 00-37.865-18.458c-13.969-4.392-28.57-6.618-43.4-6.618-17.285 0-34.157 3.003-50.15 8.926a142.066 142.066 0 00-22.281 10.535 140.847 140.847 0 00-19.847 14.03 138.766 138.766 0 00-16.984 17.108 135.752 135.752 0 00-13.692 19.772 132.679 132.679 0 00-9.971 22.018 131.106 131.106 0 00-5.824 23.853l-.17 1.158-1.117-.348a150.45 150.45 0 00-44.824-6.802c-10.57 0-21.133 1.106-31.396 3.29a150.725 150.725 0 00-29.243 9.434 154.062 154.062 0 00-26.466 14.932 158.444 158.444 0 00-23.063 19.778 161.982 161.982 0 00-19.031 23.975 164.142 164.142 0 00-14.37 27.52 165.884 165.884 0 00-9.084 30.412 169.443 169.443 0 00-3.167 32.656c0 17.006 2.522 33.756 7.496 49.785a163.866 163.866 0 0020.921 43.509l.463.682-.58.584c-13.999 14.08-25.752 30.005-34.934 47.334-9.082 17.139-15.466 35.3-18.975 53.977-3.552 18.905-4.083 37.955-1.577 56.62a171.836 171.836 0 0017.256 55.285 172.735 172.735 0 0018.982 29.44 173.062 173.062 0 0023.907 24.444 178.481 178.481 0 0027.965 19.2 186.024 186.024 0 0031.156 13.703l.53.178.126.544a127.032 127.032 0 0015.77 38.206 126.077 126.077 0 0026.58 30.593c10.544 8.772 22.329 15.664 35.025 20.483 13.134 4.986 26.967 7.64 41.113 7.886a122.626 122.626 0 0022.116-1.615l.547-.09.367.416a163.827 163.827 0 0023.972 22.29 160.855 160.855 0 0028.037 17.053 158.389 158.389 0 0031.369 11.044 159.448 159.448 0 0036.79 4.286v1m0 0c-.944 0-1.888-.009-2.836-.025-46.998-.82-88.981-21.92-118.083-54.987a123.188 123.188 0 01-22.296 1.628c-58.305-1.018-106.576-42.603-119.445-97.942-43.51-14.571-80.817-44.56-102.583-87.28-36.416-71.47-18.443-157.19 38.411-214.376-18.012-26.536-28.59-58.91-28.59-93.855 0-90.02 70.211-162.997 156.82-162.997 15.685 0 30.832 2.393 45.121 6.847 9.696-66.19 68.565-117.097 139.738-117.097 61.012 0 112.982 37.41 132.686 89.787 19.215-10.127 40.654-15.784 63.215-15.784.786 0 1.57.007 2.36.021 81.872 1.43 146.947 76.83 145.349 168.412-.507 29.022-7.652 56.19-19.777 79.715 43.517 29.523 72.167 83.451 71.1 144.586-1.377 78.854-51.74 143.996-117.972 159.667-8.422 61.646-59.877 108.92-121.944 109.887-28.058 50.138-80.958 83.792-141.274 83.793z" fill="#aed778"/><path d="M1059.469 1454.973c-57.413-1-108.7-26.778-144.251-67.172a150.66 150.66 0 01-27.238 1.989c-71.225-1.243-130.194-52.044-145.914-119.646-53.153-17.8-98.727-54.436-125.317-106.623-44.486-87.308-22.53-192.024 46.924-261.882a203.589 203.589 0 01-34.926-114.655c0-109.97 85.77-199.119 191.573-199.119a184.879 184.879 0 0155.12 8.365c11.844-80.858 83.757-143.046 170.705-143.046 74.532 0 138.018 45.7 162.089 109.684a164.857 164.857 0 0180.107-19.256c100.016 1.746 179.512 93.856 177.56 205.733a220.758 220.758 0 01-24.159 97.38c53.161 36.066 88.16 101.945 86.856 176.628-1.682 96.328-63.205 175.906-144.115 195.05-10.286 75.308-73.148 133.059-148.968 134.238-34.276 61.25-98.9 102.361-172.581 102.362q-1.73 0-3.465-.03z"/><path d="M1062.933 1455.003v-1c17.97 0 35.787-2.47 52.958-7.343a194.679 194.679 0 0047.593-20.725c29.539-17.866 54.145-43.38 71.158-73.782l.281-.503.576-.009c18.436-.286 36.422-3.923 53.457-10.81a150.68 150.68 0 0023.767-12.172 153.204 153.204 0 0021.178-16.08 155.08 155.08 0 0032.744-42.066 156.11 156.11 0 0010.64-25.078 157.221 157.221 0 006.206-27.168l.093-.68.667-.157a165.901 165.901 0 0029.178-9.867c9.285-4.133 18.338-9.177 26.906-14.994 8.489-5.763 16.619-12.362 24.165-19.616 7.529-7.236 14.577-15.22 20.95-23.73a205.405 205.405 0 0017.258-27.337c5.108-9.7 9.513-19.94 13.093-30.433 7.418-21.743 11.387-44.661 11.796-68.117.318-18.221-1.54-36.32-5.52-53.794-3.86-16.94-9.706-33.27-17.377-48.535-7.544-15.013-16.807-28.914-27.534-41.316-10.723-12.4-22.831-23.213-35.987-32.138l-.733-.498.406-.788c7.456-14.465 13.284-29.928 17.322-45.957 4.161-16.523 6.424-33.676 6.726-50.983.24-13.684-.755-27.38-2.953-40.709a218.44 218.44 0 00-9.843-38.034c-4.31-12.025-9.699-23.645-16.02-34.536-6.26-10.786-13.488-20.952-21.483-30.215-7.992-9.26-16.817-17.696-26.23-25.07-9.499-7.443-19.68-13.87-30.261-19.105-10.775-5.33-22.074-9.475-33.585-12.322a162.824 162.824 0 00-39.068-4.749 162.635 162.635 0 00-39.898 4.971c-12.678 3.21-25.079 7.987-36.859 14.195l-1.003.528-.4-1.06c-5.92-15.741-14.281-30.499-24.848-43.864-10.461-13.231-22.877-24.839-36.904-34.501a173.033 173.033 0 00-46.315-22.577c-17.086-5.372-34.946-8.095-53.085-8.095a178.85 178.85 0 00-31.635 2.814 175.297 175.297 0 00-29.706 8.104 173.77 173.77 0 00-27.253 12.886 172.304 172.304 0 00-24.276 17.16 169.758 169.758 0 00-20.775 20.928 166.07 166.07 0 00-16.748 24.185 162.305 162.305 0 00-12.198 26.935 160.37 160.37 0 00-7.125 29.18l-.17 1.158-1.117-.348c-17.71-5.521-36.155-8.32-54.822-8.32a184.937 184.937 0 00-38.4 4.023 184.361 184.361 0 00-35.766 11.54 188.418 188.418 0 00-32.37 18.262 193.776 193.776 0 00-28.206 24.189 198.091 198.091 0 00-23.275 29.32 200.732 200.732 0 00-17.575 33.656 202.87 202.87 0 00-11.108 37.193 207.213 207.213 0 00-3.873 39.936c0 20.796 3.084 41.28 9.167 60.882a200.398 200.398 0 0025.586 53.21l.463.682-.581.584c-17.115 17.216-31.486 36.688-42.714 57.877-11.104 20.956-18.91 43.162-23.201 66-4.344 23.119-4.993 46.414-1.929 69.24 3.167 23.595 10.267 46.341 21.102 67.607a211.233 211.233 0 0023.214 36.002 211.628 211.628 0 0029.235 29.892c10.526 8.824 22.032 16.723 34.197 23.478 12.04 6.685 24.858 12.322 38.098 16.756l.53.178.126.544a155.408 155.408 0 0019.291 46.74c8.8 14.204 19.74 26.796 32.517 37.426 12.9 10.732 27.318 19.163 42.85 25.06 16.07 6.099 32.993 9.345 50.3 9.647a150.007 150.007 0 0027.057-1.976l.547-.09.366.416a200.35 200.35 0 0029.317 27.26 196.723 196.723 0 0034.29 20.856 193.707 193.707 0 0038.364 13.506 194.993 194.993 0 0044.994 5.241v1m0 0c-1.153 0-2.307-.01-3.464-.03-57.413-1.002-108.7-26.778-144.251-67.172a150.486 150.486 0 01-27.238 1.989c-71.225-1.244-130.194-52.044-145.914-119.646-53.153-17.8-98.727-54.437-125.317-106.623-44.485-87.308-22.53-192.024 46.924-261.883-22.004-32.417-34.926-71.964-34.926-114.653 0-109.97 85.77-199.12 191.573-199.12 19.16 0 37.664 2.925 55.12 8.366 11.844-80.859 83.758-143.047 170.705-143.047 74.532 0 138.018 45.7 162.089 109.684 23.474-12.37 49.663-19.28 77.223-19.28.961 0 1.92.007 2.883.024 100.016 1.746 179.513 93.856 177.56 205.733-.618 35.453-9.347 68.643-24.16 97.38 53.162 36.066 88.16 101.945 86.857 176.628-1.682 96.329-63.205 175.906-144.116 195.05-10.288 75.308-73.146 133.059-148.966 134.238-34.276 61.25-98.899 102.362-172.582 102.362z" fill="#aed778"/><path d="M1059.166 1546.597c-67.828-1.184-128.419-31.636-170.419-79.358a177.971 177.971 0 01-32.179 2.35c-84.146-1.469-153.812-61.485-172.384-141.35-62.8-21.03-116.636-64.312-148.05-125.965-52.555-103.147-26.616-226.859 55.437-309.39a240.521 240.521 0 01-41.261-135.452c0-129.919 101.329-235.241 226.325-235.241a218.416 218.416 0 0165.118 9.886c13.993-95.53 98.953-169 201.672-169 88.052 0 163.056 53.991 191.493 129.582a194.763 194.763 0 0194.638-22.749c118.159 2.063 212.077 110.882 209.77 243.054a260.8 260.8 0 01-28.542 115.046c62.8 42.608 104.153 120.438 102.612 208.669-1.987 113.8-74.671 207.816-170.259 230.433-12.155 88.97-86.415 157.2-175.99 158.59-40.494 72.361-116.839 120.93-203.889 120.931q-2.042-.001-4.092-.036z"/><path d="M1063.26 1546.632v-1c21.245 0 42.312-2.92 62.613-8.682 19.698-5.59 38.63-13.833 56.271-24.504 34.924-21.124 64.016-51.289 84.131-87.233l.281-.503.576-.009a176.862 176.862 0 0032.597-3.545 175.994 175.994 0 0030.623-9.238 178.2 178.2 0 0028.107-14.396 181.184 181.184 0 0025.045-19.016 183.39 183.39 0 0021.438-23.1 184.326 184.326 0 0017.284-26.647 184.629 184.629 0 0012.583-29.656 185.934 185.934 0 007.339-32.128l.092-.68.668-.157a196.182 196.182 0 0034.502-11.668c10.98-4.886 21.685-10.851 31.816-17.73 10.037-6.813 19.65-14.616 28.573-23.193 8.901-8.556 17.234-17.995 24.768-28.057a242.863 242.863 0 0020.405-32.32 252.279 252.279 0 0015.48-35.98c8.769-25.705 13.461-52.799 13.945-80.53.376-21.54-1.82-42.937-6.527-63.595-4.562-20.027-11.474-39.333-20.543-57.38-8.919-17.75-19.871-34.185-32.553-48.85-12.68-14.66-26.996-27.445-42.55-37.998l-.734-.498.406-.788c8.815-17.102 15.705-35.382 20.478-54.333 4.92-19.534 7.596-39.812 7.953-60.272.282-16.178-.893-32.37-3.492-48.127-2.533-15.355-6.448-30.484-11.637-44.965-5.094-14.218-11.466-27.955-18.94-40.832-7.401-12.752-15.946-24.771-25.399-35.723-9.45-10.95-19.884-20.923-31.013-29.642-11.233-8.801-23.272-16.401-35.783-22.59-12.74-6.303-26.102-11.205-39.714-14.572a192.55 192.55 0 00-46.198-5.615c-15.907 0-31.78 1.978-47.181 5.878-14.992 3.797-29.656 9.444-43.585 16.785l-1.003.529-.4-1.061c-7.002-18.614-16.888-36.065-29.384-51.869-12.37-15.646-27.052-29.372-43.638-40.797a204.608 204.608 0 00-54.766-26.697c-20.202-6.35-41.321-9.571-62.77-9.571a211.43 211.43 0 00-37.405 3.328 207.264 207.264 0 00-35.125 9.582 205.473 205.473 0 00-32.225 15.237 203.725 203.725 0 00-28.706 20.292 200.709 200.709 0 00-24.566 24.746 196.352 196.352 0 00-19.804 28.6 191.911 191.911 0 00-14.425 31.85 189.645 189.645 0 00-8.425 34.506l-.17 1.159-1.117-.349c-20.94-6.527-42.75-9.837-64.822-9.837-15.286 0-30.562 1.6-45.404 4.757a217.983 217.983 0 00-42.29 13.645 222.787 222.787 0 00-38.271 21.592 229.101 229.101 0 00-33.35 28.6A234.214 234.214 0 00589.8 626.45a237.323 237.323 0 00-20.779 39.791 239.859 239.859 0 00-13.133 43.973c-3.038 15.435-4.579 31.32-4.579 47.216 0 24.587 3.647 48.805 10.838 71.98 6.957 22.421 17.135 43.587 30.251 62.91l.463.683-.581.585c-20.233 20.35-37.222 43.37-50.494 68.418-13.127 24.774-22.356 51.026-27.428 78.026-5.136 27.33-5.903 54.87-2.28 81.856 3.744 27.896 12.138 54.788 24.948 79.93a249.735 249.735 0 0027.444 42.564 250.21 250.21 0 0034.564 35.34c12.445 10.432 26.047 19.771 40.43 27.757 14.233 7.903 29.386 14.568 45.038 19.81l.53.177.127.545a183.777 183.777 0 0022.813 55.272 184.029 184.029 0 0017.485 23.732 182.555 182.555 0 0020.969 20.527c15.256 12.692 32.306 22.663 50.675 29.636 19.004 7.214 39.017 11.052 59.485 11.41a177.381 177.381 0 0031.998-2.336l.547-.091.367.416a236.884 236.884 0 0034.662 32.23 232.58 232.58 0 0040.54 24.658 229.033 229.033 0 0045.36 15.97 230.588 230.588 0 0053.199 6.196v1m0 0c-1.362 0-2.725-.011-4.093-.035-67.828-1.184-128.419-31.636-170.419-79.358a177.755 177.755 0 01-32.179 2.35c-84.146-1.47-153.811-61.485-172.383-141.351-62.796-21.03-116.636-64.312-148.05-125.965-52.556-103.146-26.617-226.858 55.436-309.39-25.996-38.297-41.262-85.019-41.262-135.452 0-129.919 101.33-235.24 226.325-235.24 22.636 0 44.497 3.454 65.12 9.883 13.992-95.527 98.952-168.997 201.67-168.997 88.054 0 163.057 53.991 191.494 129.582 27.732-14.616 58.674-22.78 91.233-22.78 1.135 0 2.267.01 3.406.03 118.159 2.063 212.077 110.882 209.77 243.054-.731 41.885-11.043 81.096-28.542 115.046 62.804 42.608 104.152 120.438 102.612 208.67-1.987 113.802-74.671 207.816-170.259 230.432-12.155 88.97-86.415 157.196-175.99 158.59-40.494 72.361-116.84 120.93-203.889 120.931z" fill="#aed778"/><path d="M1058.864 1638.22c-78.243-1.365-148.138-36.493-196.587-91.543a205.305 205.305 0 01-37.12 2.71c-97.067-1.694-177.43-70.926-198.853-163.055-72.438-24.259-134.546-74.187-170.783-145.307-60.625-118.985-30.7-261.692 63.948-356.9a277.454 277.454 0 01-47.6-156.251c0-149.868 116.889-271.362 261.078-271.362a251.954 251.954 0 0175.118 11.4c16.143-110.191 114.149-194.942 232.64-194.942 101.573 0 188.094 62.282 220.9 149.479a224.669 224.669 0 01109.17-26.242c136.3 2.38 244.642 127.908 241.981 280.375a300.848 300.848 0 01-32.925 132.711c72.449 49.151 120.146 138.931 118.369 240.71-2.292 131.278-86.137 239.727-196.4 265.816-14.021 102.631-99.684 181.334-203.014 182.942-46.712 83.472-134.78 139.5-235.2 139.5q-2.358.001-4.722-.041z"/><path d="M1063.585 1638.262v-1c24.522 0 48.838-3.372 72.27-10.022 22.736-6.45 44.588-15.967 64.95-28.283 20.053-12.129 38.531-26.892 54.921-43.879a275.843 275.843 0 0042.182-56.805l.282-.503.575-.009a204.183 204.183 0 0037.63-4.092 203.194 203.194 0 0035.353-10.665 205.699 205.699 0 0032.446-16.619 209.15 209.15 0 0028.913-21.952 211.697 211.697 0 0024.748-26.667 212.77 212.77 0 0019.952-30.76 213.12 213.12 0 0014.526-34.234 214.627 214.627 0 008.471-37.088l.093-.68.668-.158c13.55-3.206 26.949-7.737 39.827-13.468 12.674-5.64 25.03-12.526 36.725-20.465 11.585-7.865 22.681-16.872 32.98-26.771 10.274-9.876 19.893-20.771 28.589-32.384 8.737-11.669 16.66-24.22 23.55-37.303a291.165 291.165 0 0017.866-41.527c10.122-29.668 15.537-60.938 16.096-92.942.434-24.861-2.1-49.556-7.533-73.398-5.267-23.114-13.244-45.396-23.711-66.227-10.294-20.486-22.935-39.455-37.572-56.38-14.636-16.923-31.16-31.68-49.115-43.86l-.734-.498.407-.788c10.174-19.738 18.126-40.837 23.635-62.71 5.678-22.543 8.766-45.947 9.179-69.56.326-18.671-1.03-37.36-4.03-55.545-2.924-17.722-7.442-35.183-13.431-51.897-5.88-16.41-13.234-32.265-21.86-47.126-8.543-14.72-18.406-28.592-29.316-41.232-10.907-12.639-22.951-24.15-35.797-34.214-12.965-10.159-26.862-18.932-41.304-26.076-14.707-7.275-30.13-12.934-45.843-16.82a222.276 222.276 0 00-53.33-6.482 222.012 222.012 0 00-54.463 6.785c-17.305 4.383-34.232 10.902-50.311 19.376l-1.003.528-.4-1.06c-8.083-21.488-19.495-41.632-33.918-59.875-14.28-18.06-31.227-33.905-50.373-47.093-19.39-13.357-40.66-23.725-63.216-30.816-23.32-7.33-47.696-11.048-72.454-11.048a244.06 244.06 0 00-43.176 3.841 239.273 239.273 0 00-40.545 11.06 237.19 237.19 0 00-37.198 17.59 235.17 235.17 0 00-33.135 23.422 231.699 231.699 0 00-28.357 28.565 226.674 226.674 0 00-22.86 33.013 221.559 221.559 0 00-16.652 36.768 218.903 218.903 0 00-9.726 39.832l-.17 1.158-1.117-.348c-24.17-7.535-49.344-11.355-74.82-11.355a252.386 252.386 0 00-52.408 5.491 251.603 251.603 0 00-48.813 15.75c-15.41 6.774-30.272 15.159-44.175 24.922-13.772 9.67-26.723 20.777-38.493 33.01a270.315 270.315 0 00-31.762 40.013 273.925 273.925 0 00-23.984 45.927 276.85 276.85 0 00-15.157 50.753c-3.508 17.814-5.286 36.149-5.286 54.496 0 28.378 4.209 56.33 12.509 83.078 8.03 25.878 19.777 50.308 34.916 72.611l.463.682-.581.585c-23.35 23.487-42.957 50.053-58.275 78.96a323.769 323.769 0 00-19.305 44.056 313.93 313.93 0 00-12.35 45.994c-5.927 31.544-6.812 63.33-2.631 94.475 4.321 32.196 14.01 63.235 28.794 92.252a288.234 288.234 0 0031.676 49.126 288.79 288.79 0 0039.892 40.789c14.363 12.04 30.062 22.819 46.661 32.035 16.428 9.121 33.917 16.814 51.981 22.863l.53.178.127.544a212.153 212.153 0 0026.335 63.806 212.437 212.437 0 0020.185 27.396 210.725 210.725 0 0024.206 23.696 207.82 207.82 0 0027.733 19.476 204.661 204.661 0 0030.767 14.736c21.938 8.327 45.042 12.759 68.67 13.171a204.795 204.795 0 0036.939-2.697l.548-.09.366.416a273.408 273.408 0 0040.007 37.2 268.476 268.476 0 0046.793 28.461 264.357 264.357 0 0052.355 18.432c18.478 4.385 37.555 6.777 56.7 7.111 1.555.028 3.137.042 4.703.042v1m0 0c-1.572 0-3.143-.014-4.721-.042-78.243-1.365-148.138-36.493-196.587-91.543a205.063 205.063 0 01-37.12 2.71c-97.067-1.694-177.43-70.925-198.853-163.055-72.438-24.258-134.546-74.186-170.784-145.307-60.625-118.984-30.703-261.692 63.948-356.896-29.987-44.178-47.597-98.074-47.597-156.251 0-149.868 116.889-271.362 261.078-271.362 26.111 0 51.33 3.985 75.118 11.4 16.141-110.195 114.147-194.946 232.638-194.946 101.573 0 188.094 62.282 220.898 149.479 31.99-16.86 67.681-26.276 105.24-26.276 1.31 0 2.616.011 3.93.034 136.302 2.38 244.642 127.908 241.98 280.375-.843 48.316-12.737 93.548-32.924 132.71 72.448 49.152 120.145 138.932 118.368 240.711-2.291 131.278-86.137 239.727-196.402 265.816-14.021 102.631-99.684 181.334-203.014 182.942-46.712 83.472-134.78 139.5-235.196 139.5z" fill="#aed778"/><path d="M1058.561 1727.194c-88.658-1.547-167.857-41.351-222.755-103.729a232.637 232.637 0 01-42.061 3.071c-109.988-1.92-201.048-80.367-225.323-184.759-82.08-27.488-152.456-84.062-193.517-164.649-68.7-134.823-34.791-296.526 72.46-404.4a314.387 314.387 0 01-53.933-177.05c0-169.817 132.448-307.483 295.83-307.483a285.493 285.493 0 0185.117 12.919c18.291-124.868 129.343-220.9 263.607-220.9 115.094 0 213.131 70.572 250.3 169.376a254.575 254.575 0 01123.7-29.735c154.446 2.7 277.206 144.934 274.191 317.7-.956 54.748-14.434 106-37.308 150.377 82.093 55.693 136.138 157.425 134.125 272.752-2.6 148.752-97.6 271.637-222.546 301.2-15.888 116.293-112.953 205.472-230.037 207.294-52.93 94.583-152.721 158.068-266.5 158.069q-2.671-.006-5.35-.053z"/><path d="M1063.91 1727.241v-1c27.8 0 55.364-3.822 81.928-11.36 25.773-7.313 50.544-18.1 73.627-32.062 22.732-13.75 43.68-30.485 62.26-49.741a312.702 312.702 0 0047.817-64.395l.28-.502.577-.009a231.512 231.512 0 0042.664-4.64 230.367 230.367 0 0040.08-12.092 233.232 233.232 0 0036.787-18.84 237.148 237.148 0 0032.78-24.89 240.026 240.026 0 0028.057-30.233 241.25 241.25 0 0022.62-34.874 241.623 241.623 0 0016.47-38.812 243.328 243.328 0 009.604-42.048l.093-.68.667-.158c15.362-3.635 30.553-8.772 45.152-15.269 14.369-6.395 28.377-14.2 41.634-23.2 13.134-8.916 25.713-19.127 37.388-30.35 11.647-11.194 22.55-23.546 32.408-36.71 9.905-13.228 18.887-27.455 26.697-42.287 7.901-15.005 14.715-30.843 20.252-47.073 11.473-33.63 17.612-69.076 18.245-105.354.492-28.181-2.38-56.173-8.538-83.2-5.97-26.201-15.013-51.46-26.878-75.072-11.67-23.223-26-44.726-42.592-63.913-16.591-19.184-35.324-35.913-55.678-49.722l-.734-.498.406-.788c11.533-22.374 20.547-46.29 26.793-71.085 6.436-25.554 9.937-52.083 10.404-78.85.37-21.164-1.168-42.348-4.568-62.962-3.314-20.09-8.436-39.882-15.225-58.829-6.665-18.6-15.002-36.574-24.78-53.421-9.684-16.685-20.864-32.41-33.232-46.74-12.365-14.328-26.019-27.377-40.58-38.786-14.7-11.517-30.454-21.463-46.826-29.562-16.673-8.247-34.159-14.663-51.972-19.069a251.997 251.997 0 00-60.46-7.349 251.7 251.7 0 00-61.746 7.693c-19.619 4.969-38.809 12.359-57.038 21.966l-1.003.528-.4-1.06c-9.163-24.36-22.101-47.198-38.453-67.88-16.188-20.475-35.402-38.438-57.107-53.389-21.982-15.142-46.095-26.896-71.667-34.935-26.436-8.311-54.071-12.525-82.137-12.525-16.449 0-32.917 1.465-48.948 4.354a271.238 271.238 0 00-45.964 12.54 268.896 268.896 0 00-42.17 19.94 266.598 266.598 0 00-37.565 26.554 262.648 262.648 0 00-32.148 32.383 256.979 256.979 0 00-25.918 37.427 251.18 251.18 0 00-18.877 41.684 248.2 248.2 0 00-11.026 45.159l-.17 1.158-1.117-.349c-27.401-8.541-55.939-12.872-84.82-12.872-20.001 0-39.99 2.094-59.412 6.225a285.224 285.224 0 00-55.335 17.854c-17.47 7.68-34.318 17.185-50.08 28.253-15.611 10.963-30.293 23.553-43.635 37.421a306.435 306.435 0 00-36.006 45.359 310.51 310.51 0 00-27.188 52.062 313.821 313.821 0 00-17.182 57.534c-3.976 20.193-5.992 40.978-5.992 61.775 0 32.169 4.771 63.855 14.18 94.177 9.102 29.335 22.42 57.029 39.58 82.312l.464.682-.582.584c-26.468 26.623-48.691 56.736-66.054 89.503a366.976 366.976 0 00-21.883 49.937c-5.99 17.04-10.7 34.582-13.999 52.137-6.718 35.756-7.722 71.787-2.983 107.092 4.899 36.498 15.88 71.682 32.64 104.576a328.945 328.945 0 0016.687 28.996 325.83 325.83 0 0019.22 26.691c13.428 16.783 28.642 32.339 45.221 46.237 16.282 13.649 34.078 25.867 52.893 36.314 18.622 10.34 38.446 19.059 58.923 25.916l.53.178.126.544a241.973 241.973 0 0012.09 37.676 241.498 241.498 0 0017.767 34.663 240.874 240.874 0 0022.885 31.06 238.929 238.929 0 0027.443 26.866 235.606 235.606 0 0031.443 22.081 232.01 232.01 0 0034.882 16.707c24.873 9.441 51.068 14.466 77.857 14.933a232.212 232.212 0 0041.88-3.058l.547-.09.367.416a309.944 309.944 0 0045.351 42.17c16.557 12.547 34.404 23.402 53.045 32.263a299.692 299.692 0 0059.35 20.895c20.948 4.97 42.573 7.683 64.276 8.061 1.758.031 3.552.047 5.332.047v1m0 0c-1.78 0-3.562-.015-5.35-.047-88.658-1.547-167.857-41.35-222.755-103.728a232.38 232.38 0 01-42.06 3.071c-109.988-1.92-201.049-80.367-225.324-184.76-82.08-27.487-152.455-84.061-193.516-164.648-68.695-134.823-34.791-296.527 72.46-404.404-33.978-50.059-53.933-111.129-53.933-177.05 0-169.817 132.448-307.483 295.83-307.483 29.587 0 58.162 4.515 85.117 12.918 18.29-124.864 129.342-220.896 263.606-220.896 115.093 0 213.13 70.572 250.3 169.376 36.25-19.103 76.693-29.774 119.251-29.774 1.484 0 2.963.013 4.452.039 154.446 2.696 277.206 144.934 274.19 317.696-.955 54.748-14.433 106-37.307 150.377 82.093 55.693 136.138 157.424 134.125 272.751-2.597 148.752-97.603 271.637-222.545 301.2-15.888 116.292-112.954 205.471-230.038 207.293-52.93 94.583-152.721 158.068-266.503 158.07z" fill="#aed778"/><path d="M1058.258 1818.818c-99.073-1.729-187.576-46.209-248.923-115.914a259.971 259.971 0 01-47 3.432c-122.908-2.146-224.666-89.808-251.792-206.464-91.723-30.717-170.365-93.937-216.25-183.991-76.765-150.661-38.878-331.36 80.973-451.91-37.97-55.94-60.269-124.184-60.269-197.849 0-189.767 148.007-343.6 330.583-343.6a319.03 319.03 0 0195.116 14.435c20.435-139.536 144.533-246.85 294.569-246.85 128.614 0 238.169 78.862 279.707 189.274a284.482 284.482 0 01138.234-33.228c172.589 3.013 309.771 161.96 306.4 355.017-1.068 61.18-16.129 118.453-41.69 168.042 91.736 62.236 152.131 175.918 149.881 304.793-2.9 166.227-109.069 303.548-248.689 336.582-17.754 129.954-126.223 229.61-257.061 231.646-59.147 105.694-170.662 176.637-297.811 176.639q-2.985-.002-5.978-.054z"/><path d="M1064.236 1818.87v-1c31.076 0 61.888-4.272 91.583-12.699 28.81-8.175 56.502-20.234 82.305-35.84 25.412-15.371 48.828-34.079 69.597-55.604a349.559 349.559 0 0053.453-71.983l.281-.503.576-.009a258.82 258.82 0 0047.697-5.188 257.559 257.559 0 0044.81-13.518 260.764 260.764 0 0041.127-21.064 265.128 265.128 0 0036.647-27.824 268.353 268.353 0 0031.367-33.8 269.697 269.697 0 0025.29-38.989 270.115 270.115 0 0018.41-43.39 272.04 272.04 0 0010.738-47.008l.093-.68.667-.158c17.173-4.063 34.156-9.806 50.477-17.07 16.063-7.148 31.723-15.874 46.544-25.936 14.681-9.967 28.743-21.381 41.795-33.926 13.02-12.515 25.209-26.322 36.228-41.038 11.072-14.786 21.112-30.69 29.843-47.27 8.832-16.773 16.449-34.477 22.638-52.619 12.825-37.592 19.687-77.215 20.395-117.767.55-31.5-2.662-62.791-9.545-93.002-6.673-29.288-16.782-57.522-30.045-83.918-13.044-25.96-29.063-49.997-47.612-71.445-18.546-21.445-39.487-40.146-62.241-55.583l-.734-.498.407-.788c12.892-25.01 22.968-51.745 29.948-79.46 7.195-28.566 11.108-58.22 11.63-88.141.414-23.657-1.304-47.336-5.106-70.38-3.704-22.456-9.43-44.58-17.018-65.76-7.45-20.792-16.77-40.883-27.7-59.715-10.825-18.652-23.324-36.231-37.149-52.25-13.823-16.016-29.085-30.603-45.364-43.358-16.432-12.874-34.044-23.993-52.347-33.046-18.639-9.22-38.187-16.393-58.101-21.318a281.537 281.537 0 00-30.826-5.818 283.193 283.193 0 00-36.765-2.398c-11.702 0-23.499.736-35.065 2.189a281.915 281.915 0 00-33.963 6.41c-21.932 5.555-43.386 13.817-63.764 24.557l-1.003.529-.4-1.061c-10.244-27.233-24.708-52.765-42.989-75.886-18.097-22.89-39.576-42.97-63.84-59.684-24.575-16.928-51.53-30.068-80.118-39.055-29.553-9.29-60.447-14.001-91.822-14.001-18.388 0-36.798 1.638-54.718 4.868a303.237 303.237 0 00-51.384 14.018 300.577 300.577 0 00-47.143 22.29 298.036 298.036 0 00-41.994 29.686 293.64 293.64 0 00-35.939 36.202 287.267 287.267 0 00-28.974 41.84 280.795 280.795 0 00-21.103 46.601 277.479 277.479 0 00-12.328 50.485l-.17 1.158-1.117-.348c-30.63-9.549-62.532-14.39-94.818-14.39a322.27 322.27 0 00-33.695 1.768 318.798 318.798 0 00-32.72 5.19 318.865 318.865 0 00-61.86 19.96c-19.528 8.585-38.363 19.21-55.982 31.583-17.453 12.255-33.864 26.33-48.78 41.832a342.575 342.575 0 00-40.249 50.705 347.136 347.136 0 00-30.392 58.198 350.826 350.826 0 00-19.207 64.314c-4.444 22.573-6.698 45.806-6.698 69.055 0 35.96 5.333 71.379 15.851 105.275 10.175 32.791 25.062 63.75 44.245 92.012l.463.682-.58.585a428.044 428.044 0 00-40.943 47.737 420.228 420.228 0 00-32.892 52.307c-9.537 17.999-17.767 36.78-24.461 55.82-6.697 19.048-11.961 38.656-15.648 58.279-3.71 19.748-5.882 39.827-6.455 59.68-.579 20.094.47 40.291 3.12 60.03 5.476 40.798 17.753 80.128 36.488 116.898a367.652 367.652 0 0018.652 32.413 364.222 364.222 0 0021.485 29.837 364.866 364.866 0 0024.088 27.196 368.528 368.528 0 0026.461 24.489c18.2 15.256 38.093 28.914 59.126 40.592 20.815 11.558 42.974 21.304 65.864 28.97l.53.177.126.544a270.532 270.532 0 0013.516 42.12 269.976 269.976 0 0019.863 38.753 269.277 269.277 0 0025.584 34.724 267.11 267.11 0 0030.681 30.035 263.404 263.404 0 0035.152 24.686 259.395 259.395 0 0038.998 18.678c27.808 10.555 57.093 16.173 87.042 16.695a259.6 259.6 0 0046.821-3.419l.548-.09.366.416a346.468 346.468 0 0050.697 47.14c18.508 14.026 38.458 26.16 59.296 36.066a334.997 334.997 0 0066.347 23.358 335.882 335.882 0 0035.333 6.4 339.98 339.98 0 0042.478 2.663v1m0 0c-1.99 0-3.98-.017-5.978-.052-99.073-1.729-187.576-46.209-248.923-115.914a259.667 259.667 0 01-47.002 3.432c-122.908-2.146-224.666-89.808-251.793-206.464-91.722-30.717-170.365-93.937-216.25-183.991-76.765-150.661-38.877-331.36 80.973-451.91-37.97-55.94-60.269-124.184-60.269-197.85 0-189.766 148.008-343.604 330.583-343.604 33.063 0 64.995 5.046 95.116 14.435C761.132 197.421 885.23 90.107 1035.265 90.107c128.614 0 238.169 78.862 279.705 189.274 40.507-21.348 85.7-33.272 133.259-33.272 1.658 0 3.311.014 4.975.043 172.59 3.013 309.771 161.96 306.401 355.017-1.067 61.18-16.129 118.453-41.69 168.043 91.737 62.235 152.131 175.917 149.882 304.792-2.902 166.227-109.07 303.548-248.69 336.582-17.754 129.954-126.222 229.61-257.06 231.646-59.148 105.694-170.662 176.637-297.811 176.638z" fill="#aed778"/><path d="M1057.955 1910.441c-109.488-1.91-207.295-51.066-275.091-128.1a287.316 287.316 0 01-51.943 3.793c-135.829-2.371-248.284-99.249-278.262-228.168-101.365-33.946-188.275-103.812-238.983-203.333-84.835-166.5-42.965-366.195 89.485-499.417-41.962-61.82-66.6-137.239-66.6-218.648 0-209.716 163.566-379.726 365.335-379.726a352.568 352.568 0 01105.115 15.953C729.594 118.595 866.737 0 1032.546 0c142.135 0 263.206 87.153 309.109 209.171a314.387 314.387 0 01152.766-36.721c190.733 3.33 342.336 178.986 338.611 392.338-1.18 67.611-17.825 130.9-46.073 185.707 101.38 68.778 168.124 194.411 165.638 336.834-3.207 183.7-120.535 335.458-274.833 371.965-19.62 143.615-139.491 253.747-284.084 256-65.366 116.806-188.603 195.206-329.114 195.206q-3.3 0-6.611-.059z"/><path d="M1064.562 1910.5v-1c34.352 0 68.414-4.724 101.24-14.038 31.848-9.038 62.46-22.368 90.982-39.62 28.091-16.991 53.976-37.671 76.935-61.466a386.406 386.406 0 0059.088-79.572l.281-.503.576-.009a286.105 286.105 0 0052.731-5.735 284.722 284.722 0 0049.54-14.945 288.273 288.273 0 0045.466-23.287 293.082 293.082 0 0040.514-30.76 296.668 296.668 0 0034.677-37.367 298.161 298.161 0 0027.957-43.102 298.614 298.614 0 0020.354-47.969 300.743 300.743 0 0011.87-51.968l.093-.68.668-.157c18.984-4.492 37.759-10.841 55.802-18.87 17.757-7.904 35.068-17.55 51.452-28.673 16.23-11.018 31.775-23.636 46.203-37.504 14.393-13.834 27.867-29.097 40.048-45.365 12.24-16.344 23.338-33.925 32.989-52.252 9.763-18.542 18.183-38.112 25.025-58.167 6.965-20.415 12.401-41.647 16.157-63.106 3.845-21.96 5.993-44.527 6.387-67.073.608-34.82-2.942-69.409-10.55-102.804-7.377-32.375-18.551-63.586-33.213-92.763-14.42-28.697-32.127-55.268-52.631-78.978-20.502-23.707-43.652-44.38-68.805-61.444l-.734-.498.406-.788c14.251-27.648 25.39-57.2 33.106-87.837 7.954-31.576 12.28-64.356 12.856-97.43a437.628 437.628 0 00-1.091-39.438 429.186 429.186 0 00-4.553-38.359c-4.095-24.823-10.424-49.28-18.812-72.69-8.236-22.985-18.538-45.195-30.62-66.012-11.967-20.618-25.783-40.05-41.065-57.757-15.281-17.706-32.153-33.832-50.148-47.93-18.166-14.233-37.635-26.524-57.869-36.533-20.605-10.193-42.215-18.122-64.23-23.567a311.27 311.27 0 00-34.078-6.432 313.087 313.087 0 00-40.645-2.65c-12.935 0-25.977.814-38.763 2.42a311.66 311.66 0 00-37.546 7.087c-24.246 6.14-47.962 15.274-70.49 27.147l-1.004.528-.399-1.06c-11.326-30.107-27.315-58.332-47.525-83.892a323.458 323.458 0 00-32.721-35.535 328.213 328.213 0 00-37.853-30.445c-27.167-18.713-56.966-33.239-88.568-43.174C1101.382 6.208 1067.23 1 1032.546 1c-20.328 0-40.68 1.81-60.49 5.381a335.189 335.189 0 00-56.803 15.497 332.304 332.304 0 00-52.115 24.641 329.493 329.493 0 00-46.424 32.817 324.614 324.614 0 00-39.73 40.021c-12.037 14.46-22.814 30.022-32.03 46.254a310.427 310.427 0 00-23.33 51.517 306.734 306.734 0 00-13.628 55.812l-.17 1.158-1.117-.348c-33.862-10.556-69.127-15.908-104.817-15.908a356.27 356.27 0 00-37.249 1.955 352.3 352.3 0 00-36.171 5.738 352.476 352.476 0 00-68.383 22.063c-21.587 9.49-42.408 21.237-61.885 34.914-19.293 13.547-37.435 29.106-53.923 46.243-16.488 17.138-31.458 35.996-44.493 56.05a383.708 383.708 0 00-33.596 64.334 387.77 387.77 0 00-21.232 71.095 393.698 393.698 0 00-5.522 37.607 399.913 399.913 0 00-1.882 38.727c0 39.75 5.896 78.904 17.522 116.373 11.248 36.25 27.704 70.47 48.91 101.713l.463.682-.581.585a473.139 473.139 0 00-45.256 52.768 464.447 464.447 0 00-36.359 57.818c-10.542 19.895-19.639 40.655-27.038 61.703-7.403 21.055-13.222 42.73-17.298 64.42-4.101 21.83-6.502 44.026-7.134 65.972-.64 22.211.52 44.537 3.448 66.357 6.054 45.098 19.624 88.574 40.334 129.22a406.428 406.428 0 0020.62 35.83 402.71 402.71 0 0023.75 32.982 403.327 403.327 0 0026.626 30.063 407.356 407.356 0 0029.25 27.07c20.119 16.865 42.108 31.962 65.358 44.872 23.009 12.775 47.504 23.549 72.806 32.022l.53.178.126.544a299.048 299.048 0 0014.943 46.565 298.426 298.426 0 0021.958 42.84 297.697 297.697 0 0028.283 38.388 295.304 295.304 0 0033.919 33.205 291.193 291.193 0 0038.861 27.29 286.78 286.78 0 0043.114 20.65c30.742 11.67 63.118 17.879 96.228 18.457a287.012 287.012 0 0051.762-3.78l.547-.09.367.416a383.012 383.012 0 0056.04 52.11c20.46 15.505 42.514 28.919 65.55 39.869a370.338 370.338 0 0073.342 25.82 371.272 371.272 0 0039.059 7.076 375.873 375.873 0 0046.956 2.943v1m0 0a375.6 375.6 0 01-6.607-.058c-109.488-1.91-207.295-51.066-275.09-128.099a287.028 287.028 0 01-51.944 3.793c-135.829-2.371-248.284-99.249-278.262-228.168-101.365-33.947-188.275-103.812-238.983-203.334-84.835-166.5-42.965-366.195 89.485-499.417-41.962-61.82-66.605-137.239-66.605-218.648 0-209.716 163.567-379.726 365.336-379.726 36.538 0 71.826 5.576 105.115 15.953C729.594 118.595 866.737 0 1032.546 0c142.134 0 263.206 87.153 309.109 209.171 44.765-23.592 94.71-36.77 147.267-36.77 1.832 0 3.66.017 5.499.049 190.732 3.33 342.335 178.985 338.611 392.338-1.18 67.61-17.825 130.905-46.073 185.707 101.38 68.778 168.124 194.412 165.638 336.834-3.207 183.702-120.535 335.458-274.833 371.966-19.62 143.615-139.492 253.747-284.084 255.997-65.366 116.806-188.603 195.206-329.118 195.207z" fill="#aed778"/><path d="M1057.653 1910.441c-119.9-1.91-227.014-51.066-301.259-128.1a344 344 0 01-56.884 3.793c-148.75-2.371-271.9-99.249-304.732-228.168-111.007-33.946-206.185-103.811-261.718-203.333-92.905-166.5-47.052-366.195 98-499.417-45.954-61.82-72.94-137.239-72.94-218.648 0-209.716 179.126-379.726 400.088-379.726a420.06 420.06 0 01115.112 15.953C698.06 118.595 848.244 0 1029.826 0c155.655 0 288.244 87.153 338.513 209.171a370.989 370.989 0 01167.3-36.721c208.876 3.33 374.9 178.986 370.822 392.338a392.066 392.066 0 01-50.458 185.712c111.024 68.778 184.116 194.411 181.394 336.834-3.512 183.7-132 335.458-300.976 371.965-21.487 143.615-152.761 253.747-311.108 256-71.583 116.801-206.544 195.201-360.425 195.201q-3.613 0-7.235-.059z"/><path d="M1064.888 1910.5v-1c37.636 0 74.954-4.726 110.918-14.045 34.89-9.04 68.426-22.375 99.673-39.633 30.77-16.995 59.123-37.68 84.27-61.478 25.189-23.837 46.96-50.61 64.712-79.575l.287-.47.55-.007c19.424-.276 38.864-2.207 57.781-5.738a334.453 334.453 0 0054.28-14.953 328.056 328.056 0 0049.813-23.296c15.663-9.009 30.595-19.36 44.38-30.77 13.758-11.387 26.537-23.96 37.98-37.371 11.513-13.491 21.814-27.993 30.617-43.102 8.922-15.313 16.42-31.45 22.287-47.961a278.715 278.715 0 0012.996-51.954l.102-.684.676-.146a370.882 370.882 0 0061.137-18.879 375.899 375.899 0 0056.367-28.681 382.36 382.36 0 0050.609-37.512 387.256 387.256 0 0043.861-45.37 389.523 389.523 0 0036.127-52.25 389.986 389.986 0 0027.402-58.16 391.309 391.309 0 0017.692-63.096c4.208-21.955 6.561-44.517 6.992-67.059.666-34.813-3.221-69.394-11.552-102.782a386.605 386.605 0 00-36.366-92.75 384.424 384.424 0 00-57.638-78.977c-22.456-23.71-47.812-44.387-75.365-61.456l-.816-.505.472-.836a389.536 389.536 0 0036.251-87.825 393.237 393.237 0 0010.007-47.702 399.033 399.033 0 002.83-89.68 393.485 393.485 0 00-5.132-38.86 388.404 388.404 0 00-21.173-73.563 386.49 386.49 0 00-34.424-66.657 384.518 384.518 0 00-46.124-58.113c-16.687-17.282-35.058-33.015-54.604-46.76-19.738-13.88-40.86-25.864-62.776-35.618a368.565 368.565 0 00-69.522-22.967 370.354 370.354 0 00-36.845-6.269 375.244 375.244 0 00-44.005-2.588 374.26 374.26 0 00-42.473 2.42 370.768 370.768 0 00-41.14 7.092c-26.564 6.143-52.548 15.28-77.23 27.158l-.954.46-.403-.98c-12.402-30.102-29.912-58.326-52.043-83.886-10.885-12.572-22.943-24.529-35.84-35.539-12.905-11.018-26.855-21.264-41.462-30.452-29.762-18.72-62.407-33.25-97.03-43.19C1105.247 6.21 1067.828 1 1029.827 1c-22.272 0-44.57 1.811-66.276 5.384-21.187 3.487-42.126 8.703-62.234 15.503-19.747 6.678-38.956 14.972-57.094 24.651-17.94 9.573-35.05 20.617-50.855 32.826-15.755 12.17-30.395 25.637-43.515 40.027-13.184 14.46-24.986 30.023-35.078 46.255-10.22 16.437-18.815 33.767-25.546 51.51-6.863 18.091-11.883 36.864-14.92 55.797l-.179 1.112-1.083-.308c-37.099-10.56-75.737-15.915-114.84-15.915-13.615 0-27.346.658-40.81 1.956a420.09 420.09 0 00-39.63 5.74c-25.627 4.977-50.833 12.404-74.92 22.073-23.648 9.493-46.457 21.244-67.793 34.924-21.132 13.55-41.004 29.112-59.063 46.252-18.058 17.14-34.453 35.998-48.728 56.053-14.412 20.246-26.79 41.89-36.79 64.33-10.184 22.853-18.006 46.768-23.248 71.081a361.673 361.673 0 00-6.046 37.599 365.324 365.324 0 00-2.06 38.718c0 39.741 6.455 78.887 19.185 116.348 12.316 36.245 30.336 70.463 53.558 101.703l.538.724-.664.61c-17.908 16.447-34.584 34.202-49.564 52.77-14.81 18.357-28.207 37.81-39.817 57.818-11.544 19.894-21.505 40.651-29.608 61.697-8.105 21.052-14.477 42.722-18.94 64.41-4.49 21.824-7.118 44.015-7.81 65.956-.702 22.207.568 44.528 3.775 66.342 6.628 45.09 21.487 88.56 44.164 129.2a399.034 399.034 0 0022.58 35.828 405.835 405.835 0 0026.009 32.983 417.664 417.664 0 0029.162 30.065 433.393 433.393 0 0032.038 27.074 451.833 451.833 0 0034.636 24.01 471.693 471.693 0 0036.955 20.872c25.205 12.779 52.038 23.556 79.755 32.032l.538.165.139.545a280.731 280.731 0 0016.36 46.554c6.716 14.806 14.806 29.218 24.045 42.837 9.16 13.503 19.582 26.419 30.975 38.389 11.373 11.95 23.873 23.123 37.152 33.21a320.936 320.936 0 0042.571 27.3 328.159 328.159 0 0047.236 20.658c33.685 11.675 69.16 17.889 105.44 18.467a343.77 343.77 0 0056.719-3.782l.51-.077.359.372c18.51 19.206 39.162 36.74 61.381 52.117 22.412 15.51 46.57 28.927 71.805 39.88 25.702 11.157 52.735 19.847 80.35 25.83a441.902 441.902 0 0042.792 7.08 450.432 450.432 0 0051.446 2.944v1m0 0c-2.409 0-4.818-.019-7.235-.058-119.904-1.91-227.014-51.066-301.26-128.1a343.522 343.522 0 01-51.322 3.838c-1.85 0-3.704-.015-5.561-.044-148.75-2.371-271.902-99.249-304.732-228.169-111.007-33.946-206.185-103.811-261.717-203.333-92.905-166.5-47.051-366.194 97.998-499.417-45.954-61.82-72.94-137.239-72.94-218.648 0-209.716 179.125-379.726 400.087-379.726 40.014 0 78.66 5.576 115.114 15.953C698.056 118.595 848.244 0 1029.826 0c155.655 0 288.243 87.153 338.513 209.171 49.024-23.592 103.72-36.77 161.276-36.77 2.007 0 4.008.017 6.022.049 208.876 3.33 374.9 178.985 370.822 392.338-1.293 67.61-19.52 130.904-50.456 185.707 111.024 68.778 184.116 194.411 181.394 336.834-3.512 183.702-132 335.458-300.976 371.966-21.487 143.615-152.76 253.747-311.108 255.997-71.583 116.805-206.544 195.206-360.425 195.207z" fill="#aed778"/><path d="M1057.353 1910.441c-130.318-1.91-246.732-51.066-327.427-128.1a405.836 405.836 0 01-61.825 3.793c-161.67-2.371-295.52-99.249-331.2-228.168-120.65-33.946-224.094-103.812-284.45-203.333-100.98-166.499-51.144-366.194 106.502-499.417-49.945-61.82-79.276-137.239-79.276-218.648 0-209.716 194.685-379.726 434.84-379.726a493.68 493.68 0 01125.116 15.953C666.517 118.595 829.753 0 1027.105 0c169.176 0 313.281 87.153 367.917 209.171a432.727 432.727 0 01181.831-36.721c227.02 3.33 407.465 178.986 403.032 392.338a368.41 368.41 0 01-54.839 185.712c120.668 68.778 200.109 194.411 197.15 336.834-3.817 183.7-143.466 335.458-327.119 371.965-23.353 143.615-166.03 253.747-338.131 256-77.8 116.806-224.484 195.206-391.732 195.207q-3.928-.006-7.861-.065z"/><path d="M1065.213 1910.5v-1c40.92 0 81.493-4.727 120.593-14.05 37.934-9.043 74.392-22.381 108.363-39.644 33.45-16.999 64.272-37.687 91.608-61.49 27.379-23.839 51.043-50.613 70.336-79.578l.292-.439.527-.007c21.119-.276 42.257-2.208 62.827-5.741 20.101-3.453 39.958-8.486 59.019-14.959 18.74-6.364 36.962-14.205 54.16-23.305 17.028-9.01 33.261-19.365 48.248-30.777 14.955-11.389 28.846-23.964 41.286-37.377 12.513-13.492 23.709-27.993 33.276-43.103 9.696-15.311 17.845-31.446 24.22-47.955 6.505-16.843 11.256-34.318 14.121-51.94l.112-.686.68-.135a429.436 429.436 0 0066.473-18.886 423.256 423.256 0 0061.281-28.69c19.327-11.023 37.837-23.647 55.016-37.52 17.135-13.837 33.176-29.103 47.677-45.374 14.568-16.345 27.778-33.925 39.264-52.251 11.62-18.539 21.639-38.105 29.78-58.155a367.24 367.24 0 0019.225-63.085 365.99 365.99 0 005.32-33.088 368.917 368.917 0 002.279-33.956c.723-34.806-3.5-69.38-12.553-102.761-8.777-32.366-22.074-63.568-39.52-92.74-17.163-28.694-38.24-55.267-62.647-78.978-24.41-23.714-51.974-44.394-81.925-61.466l-.898-.511.54-.88c16.96-27.642 30.214-57.188 39.396-87.815a365.936 365.936 0 0010.874-47.693 367.802 367.802 0 004.421-49.698 367.893 367.893 0 00-1.164-37.84 363.831 363.831 0 00-4.962-36.856 363.636 363.636 0 00-8.584-35.696 366.546 366.546 0 00-12.026-34.365c-9.036-22.209-20.363-43.756-33.666-64.044-13.17-20.08-28.41-39.136-45.3-56.636-18.307-18.967-38.705-36.273-60.628-51.437-22.117-15.298-45.942-28.524-70.814-39.31-25.334-10.985-51.973-19.533-79.18-25.406a434.146 434.146 0 00-42.157-6.934 442.619 442.619 0 00-50.096-2.842c-15.411 0-30.95.815-46.182 2.423a435.173 435.173 0 00-44.73 7.094c-28.882 6.145-57.133 15.286-83.968 27.167l-.91.404-.407-.91c-13.478-30.1-32.508-58.322-56.562-83.882-11.833-12.573-24.94-24.532-38.958-35.544-14.03-11.02-29.195-21.269-45.075-30.459-32.356-18.725-67.848-33.26-105.49-43.203-38.919-10.279-79.602-15.49-120.92-15.49-24.215 0-48.459 1.811-72.058 5.385-23.037 3.488-45.803 8.706-67.665 15.509-21.47 6.68-42.354 14.976-62.074 24.659-19.503 9.575-38.104 20.622-55.286 32.834-17.126 12.171-33.041 25.64-47.303 40.033-14.329 14.462-27.157 30.024-38.126 46.257-11.108 16.435-20.448 33.764-27.762 51.504-7.458 18.088-12.913 36.857-16.213 55.785l-.187 1.07-1.052-.275c-40.335-10.564-82.344-15.92-124.86-15.92-14.803 0-29.732.658-44.371 1.957a494.1 494.1 0 00-43.088 5.742c-27.861 4.979-55.266 12.408-81.453 22.08-25.71 9.496-50.508 21.25-73.703 34.934-22.972 13.553-44.574 29.117-64.205 46.26-19.629 17.14-37.448 36-52.965 56.057-15.662 20.246-29.115 41.888-39.983 64.326a347.933 347.933 0 00-14.58 34.787 339.269 339.269 0 00-10.683 36.284 334.978 334.978 0 00-6.57 37.59 336.38 336.38 0 00-2.239 38.71c0 39.731 7.014 78.868 20.847 116.322 13.385 36.241 32.968 70.457 58.207 101.697l.615.76-.747.632c-19.465 16.449-37.591 34.205-53.874 52.775-16.097 18.357-30.657 37.81-43.275 57.818-12.546 19.892-23.372 40.648-32.178 61.692-8.807 21.048-15.732 42.715-20.581 64.4-4.88 21.82-7.736 44.006-8.489 65.942a348.342 348.342 0 00.447 33.188c.68 11.06 1.91 22.209 3.656 33.14 7.203 45.082 23.35 88.544 47.994 129.18a395.91 395.91 0 0024.54 35.827 413.064 413.064 0 0028.27 32.985 436.181 436.181 0 0031.7 30.068 463.783 463.783 0 0034.826 27.078 494.391 494.391 0 0037.65 24.014 526.595 526.595 0 0040.175 20.877c27.4 12.782 56.572 23.562 86.705 32.04l.542.152.15.544c4.39 15.86 10.372 31.52 17.779 46.545 7.298 14.804 16.09 29.216 26.131 42.834 9.957 13.503 21.285 26.42 33.669 38.391 12.363 11.952 25.95 23.127 40.386 33.217 14.51 10.142 30.082 19.33 46.283 27.307 16.392 8.073 33.671 15.026 51.357 20.666 36.626 11.68 75.2 17.897 114.648 18.475 2 .03 4.03.044 6.032.044 18.645 0 37.365-1.288 55.64-3.828l.48-.066.349.334c20.121 19.208 42.57 36.746 66.724 52.125 24.364 15.513 50.627 28.934 78.06 39.89 27.944 11.16 57.335 19.853 87.357 25.838a518.978 518.978 0 0046.525 7.082 531.477 531.477 0 0055.934 2.945v1m0 0c-2.618 0-5.236-.019-7.864-.058-130.318-1.91-246.732-51.066-327.427-128.099a405.203 405.203 0 01-55.777 3.837c-2.013 0-4.028-.014-6.048-.044-161.67-2.371-295.52-99.249-331.201-228.169-120.65-33.946-224.094-103.811-284.45-203.333-100.975-166.5-51.139-366.194 106.51-499.417-49.946-61.82-79.277-137.239-79.277-218.648 0-209.716 194.685-379.726 434.84-379.726 43.49 0 85.493 5.576 125.114 15.953C666.517 118.595 829.75 0 1027.105 0c169.176 0 313.281 87.153 367.918 209.17 53.281-23.59 112.727-36.768 175.284-36.768 2.18 0 4.356.016 6.545.048 227.02 3.33 407.465 178.985 403.032 392.338-1.405 67.61-21.216 130.905-54.838 185.707 120.667 68.778 200.109 194.411 197.15 336.834-3.817 183.702-143.466 335.458-327.12 371.966-23.353 143.615-166.03 253.747-338.131 255.997-77.8 116.806-224.484 195.206-391.732 195.207z" fill="#aed778"/></g></svg>