<svg xmlns="http://www.w3.org/2000/svg" xmlns:xlink="http://www.w3.org/1999/xlink" width="1920" height="299" viewBox="0 0 1920 299"><defs><clipPath id="a"><rect width="1920" height="299" transform="translate(-3693 781)" fill="none"/></clipPath><filter id="b" x="-109.5" y="3.5" width="2139" height="1037" filterUnits="userSpaceOnUse"><feOffset input="SourceAlpha"/><feGaussianBlur stdDeviation="12.5" result="c"/><feFlood flood-opacity="0.161"/><feComposite operator="in" in2="c"/><feComposite in="SourceGraphic"/></filter></defs><g transform="translate(3693 -781)" clip-path="url(#a)"><g transform="matrix(1, 0, 0, 1, -3693, 781)" filter="url(#b)"><path d="M93,962V369.208C36.865,337.171,0,283.19,0,222,0,123.693,95.14,44,212.5,44c99.5,0,183.019,57.271,206.142,134.61C448.649,168.725,484.277,163,522.5,163c53.075,0,101.159,11.043,136.118,28.926,17.852-32.355,54.481-54.878,97.138-55.623a119.26,119.26,0,0,1,53.3,11.349C850.435,60.941,948.327,0,1062.5,0c96.352,0,181.106,43.4,230.087,109.063,32.439,3.746,60.893,17.148,80.5,36.381C1409.56,120.774,1455.971,106,1506.5,106a245.437,245.437,0,0,1,96.779,19.489C1647.7,69.271,1725.481,32,1814,32c138.071,0,250,90.662,250,202.5,0,46.076-19,88.562-51,122.59V962Z" transform="translate(-72 41)" fill="#f5f5f5"/></g></g></svg>