<svg xmlns="http://www.w3.org/2000/svg" xmlns:xlink="http://www.w3.org/1999/xlink" width="1920" height="264" viewBox="0 0 1920 264">
  <defs>
    <clipPath id="clip-path">
      <rect id="Rectangle_65" data-name="Rectangle 65" width="1920" height="264" transform="translate(-2140 3669)" fill="none"/>
    </clipPath>
  </defs>
  <g id="Mask_Group_1" data-name="Mask Group 1" transform="translate(2140 -3669)" clip-path="url(#clip-path)">
    <path id="Union_10" data-name="Union 10" d="M93,1173V580.634C37.421,548.529,1,494.83,1,434c0-98.306,95.14-178,212.5-178,85,0,158.351,41.807,192.333,102.215C438.27,345.525,478.681,338,522.5,338q8.062,0,15.953.335C588.567,280.417,668.032,243,757.5,243c73.331,0,139.947,25.142,189.185,66.1a119.5,119.5,0,0,1,50.072-11.8c41.1-.718,77.313,18.968,96.871,48.766C1124.08,325.456,1163.69,313,1207,313c49.75,0,94.628,16.443,126.34,42.8,38.526-45.273,101.729-74.8,173.16-74.8a245.438,245.438,0,0,1,96.779,19.489C1647.7,244.271,1725.481,207,1814,207c138.071,0,250,90.662,250,202.5,0,46.076-19,88.562-51,122.59V1173Z" transform="translate(-2233 3542)" fill="#f5f5f5"/>
  </g>
</svg>
