<svg xmlns="http://www.w3.org/2000/svg" width="136.359" height="94.104" viewBox="0 0 136.359 94.104"><g transform="translate(0.003 0)"><g transform="translate(-0.003 0)"><path d="M212.712,285.56c-1.374,0-2.442-1.033-2.442-2.818a2.547,2.547,0,0,1,2.477-2.843,2.967,2.967,0,0,1,1.766.55l-.126.755a2.5,2.5,0,0,0-1.674-.641c-1.03,0-1.681.834-1.681,2.167s.663,2.164,1.763,2.164a2.375,2.375,0,0,0,1.652-.632l.1.689a2.843,2.843,0,0,1-1.845.632" transform="translate(-143.845 -191.479)" fill="#94c023"/><path d="M250.25,279.632v-8.093L251,271.4v8.232Z" transform="translate(-171.195 -185.665)" fill="#94c023"/><path d="M280.5,273.8a.553.553,0,1,1,.54-.55.546.546,0,0,1-.54.55m-.376,1.3h.746v5.424h-.746Z" transform="translate(-191.499 -186.547)" fill="#94c023"/><path d="M314.022,285.468v-3.74c0-.7-.316-1.121-1.011-1.121a2.672,2.672,0,0,0-1.753.948v3.92H310.5v-5.43h.584l.13.8a2.971,2.971,0,0,1,1.946-.916,1.475,1.475,0,0,1,1.617,1.662v3.876Z" transform="translate(-212.412 -191.5)" fill="#94c023"/><path d="M351.485,273.8a.553.553,0,1,1,.54-.55.546.546,0,0,1-.54.55m-.379,1.3h.749v5.424h-.749Z" transform="translate(-240.063 -186.547)" fill="#94c023"/><path d="M382.955,285.56c-1.377,0-2.445-1.033-2.445-2.818a2.549,2.549,0,0,1,2.477-2.843,2.954,2.954,0,0,1,1.766.55l-.126.755a2.489,2.489,0,0,0-1.662-.651c-1.03,0-1.684.834-1.684,2.167s.663,2.164,1.766,2.164a2.372,2.372,0,0,0,1.649-.632l.1.689a2.843,2.843,0,0,1-1.842.632" transform="translate(-260.306 -191.479)" fill="#94c023"/><path d="M421.039,285.592a4.261,4.261,0,0,1-1.949-.5l.126-.733a3.576,3.576,0,0,0,1.9.584c.755,0,1.226-.316,1.226-.872s-.316-.78-1.4-1.068c-1.2-.316-1.718-.7-1.718-1.579s.723-1.469,1.848-1.469a4.052,4.052,0,0,1,1.683.366l-.126.724a3.384,3.384,0,0,0-1.58-.426c-.745,0-1.1.316-1.1.771s.3.676,1.216.916c1.283.344,1.9.755,1.9,1.719s-.768,1.579-2.019,1.579" transform="translate(-286.698 -191.521)" fill="#94c023"/><path d="M219.787,126.912a2.6,2.6,0,0,1-2.619,2.843,2.56,2.56,0,0,1-2.641-2.843,2.922,2.922,0,0,1,.742-2.066h-1.725c-1.147,0-1.813,1.058-1.813,2.77v4.217h-.881v-4.258c0-2.341.894-3.475,2.695-3.475h3.636a2.553,2.553,0,0,1,2.606,2.843m-1.055-.076c0-1.21-.543-1.949-1.513-1.949-1.03,0-1.608.79-1.608,2.088,0,1.185.578,1.965,1.557,1.965,1.046,0,1.58-.708,1.58-2.1" transform="translate(-144.241 -84.897)" fill="#422a1a"/><rect width="0.881" height="8.147" transform="translate(77.235 36.761)" fill="#422a1a"/><path d="M253.354,124.06v4.647c0,2.053-.793,3.036-2.644,3.134v-.85c1.172,0,1.763-.632,1.763-2.129v-4.8Z" transform="translate(-171.51 -84.869)" fill="#422a1a"/><path d="M278.5,121.748v3.5q0,2.213-1.842,2.211h-3.863q-3.623,0-3.623-3.664v-2.066h.894v2.066c0,1.873.891,2.78,2.666,2.78h3.652c.894,0,1.245-.338,1.245-1.722v-3.112Zm-5,0h-.907V120.68h.894Zm1.652,0h-.894V120.68h.894Z" transform="translate(-184.138 -82.557)" fill="#422a1a"/><rect width="0.881" height="8.147" transform="translate(96.047 36.761)" fill="#422a1a"/><path d="M316.648,129.737H311.06v-.885h4.656a5.141,5.141,0,0,0-.616-2.7,2.755,2.755,0,0,0-2.331-1.311h-.338V124a3.629,3.629,0,0,1,3.636,2.117,8.812,8.812,0,0,1,.581,3.614" transform="translate(-212.795 -84.828)" fill="#422a1a"/><path d="M337.041,124.517h-.992a1.551,1.551,0,0,1-1.147-.48,2.009,2.009,0,0,1-.543-1.523V116.37h.91v5.614a2.369,2.369,0,0,0,.25,1.264.97.97,0,0,0,.72.392h.8Z" transform="translate(-228.73 -79.609)" fill="#422a1a"/><rect width="2.657" height="0.881" transform="translate(108.137 44.024)" fill="#422a1a"/><rect width="2.657" height="0.881" transform="translate(110.626 44.024)" fill="#422a1a"/><rect width="2.657" height="0.881" transform="translate(113.122 44.024)" fill="#422a1a"/><rect width="2.657" height="0.881" transform="translate(115.614 44.024)" fill="#422a1a"/><path d="M378.094,129.778H373.75v-.869h.806a1.084,1.084,0,0,0,1.071-.518,2.792,2.792,0,0,0,.19-1.219V124.06h.881v3.5a3.159,3.159,0,0,1-.237,1.333h1.633Zm-3.033,1.924h-.9v-1.068h.9Zm1.649,0h-.894v-1.068h.894Z" transform="translate(-255.681 -84.869)" fill="#422a1a"/><rect width="2.657" height="0.881" transform="translate(122.239 44.024)" fill="#422a1a"/><rect width="2.657" height="0.881" transform="translate(124.731 44.024)" fill="#422a1a"/><rect width="2.657" height="0.881" transform="translate(127.224 44.024)" fill="#422a1a"/><path d="M416.515,129.729H409.59v-.885h1.927a3.7,3.7,0,0,1,.24-3.936,2.489,2.489,0,0,1,2.069-.916,2.966,2.966,0,0,1,1.687.477,2.107,2.107,0,0,1,.97,1.45l-1.071.114a1.442,1.442,0,0,0-1.579-1.336,1.472,1.472,0,0,0-1.371.768,3.38,3.38,0,0,0-.341,1.627,2.429,2.429,0,0,0,.581,1.76h3.791Z" transform="translate(-280.199 -84.82)" fill="#422a1a"/><path d="M58.076,33.3a12.636,12.636,0,0,0-4.423-8c-.284-.246-.565-.5-.866-.761a9.221,9.221,0,0,0,.464-1.264,25.19,25.19,0,0,0,.8-4.35A12.666,12.666,0,0,0,49.623,8.387,10.127,10.127,0,0,0,38.8,6.492c-.477.18-.73.063-1.039-.452a12.655,12.655,0,0,0-1.633-2.268C32.1-.382,27.68-.992,23.027,1.387a11.507,11.507,0,0,0-5.585,6.8c-.262.755-.524.948-1.137.78C12.318,7.935,8.619,8.845,5.39,12.364A13.835,13.835,0,0,0,3.217,26.9c.234.556.515,1.077.815,1.7l-.717.78a13.853,13.853,0,0,0-2.4,14A11.286,11.286,0,0,0,7.02,50.124a3.817,3.817,0,0,1,2.673,2.843,2.59,2.59,0,0,0,.335.651c2.657,4.483,6.214,6.1,10.3,6.018.123,0,.3-.234.392-.455a11.566,11.566,0,0,0,10.627,3.51,13.345,13.345,0,0,0,8.169-5.948,9.476,9.476,0,0,0,1.728-.316,11.539,11.539,0,0,0,7.837-7.566,1.618,1.618,0,0,1,1.058-1.121,10.387,10.387,0,0,0,4.8-3.2,13.364,13.364,0,0,0,3.14-11.24" transform="translate(0.003 0)" fill="#94c023"/><path d="M83.707,135.331a2.922,2.922,0,1,0-3.715,2.8v14.806a2.129,2.129,0,0,1-4.258,0l.063-40.015a8.3,8.3,0,0,0,7.582-8.239V92.507H79.945a1.232,1.232,0,0,0-1.2-1.017h-.869a1.245,1.245,0,0,0-1.245,1.245v1.036a1.264,1.264,0,0,0,1.245,1.264h.869a1.232,1.232,0,0,0,1.2-1.02h1.933V104.7a6.826,6.826,0,1,1-13.652,0l0-10.7h2.085a1.226,1.226,0,0,0,1.2,1.02h.866a1.245,1.245,0,0,0,1.245-1.264v-1.02a1.241,1.241,0,0,0-1.245-1.245H71.51a1.226,1.226,0,0,0-1.2,1.017H66.74v12.178a8.3,8.3,0,0,0,7.582,8.239l-.076,40.012a3.617,3.617,0,1,0,7.234,0V138.158a2.916,2.916,0,0,0,2.211-2.827" transform="translate(-45.656 -62.588)" fill="#422a1a"/><path d="M226.879,192.526a5.735,5.735,0,0,1-.878-.142c-.332-.111-.37-.073-.515-.436-.111-.25-3.121-7.326-3.525-8.191s-.948-.9-8.814-.613c-.442,0-.515.218-.515.948,0,1.333.073,7.4.107,7.759.038.43,0,.468-.363.54a5.012,5.012,0,0,1-.809.07,3.748,3.748,0,0,1-.736-.07c-.366-.073-.4-.111-.366-.651.035-.363.366-8.529.366-11.4s-.221-11.581-.221-11.941c0-.543,0-.632.37-.654.477-.035,1.76-.073,3.522-.107,1.264-.035,3.75-.073,4.483-.073,5.032,0,8.482,2.565,8.482,7.724,0,4.4-1.76,5.882-3.522,7-.294.18-.316.468-.148.866.37.758,3.2,7.18,3.857,8.662.256.578.256.578.035.685a1.769,1.769,0,0,1-.809.035m-10.024-23.377c-3.6,0-4.078.145-4.078.433-.038,1.084-.073,5.124-.111,7.18-.035,1.046-.142,4.186-.142,4.622,0,.142,4.4.142,7.086.142,3.968,0,5.986-1.8,5.986-5.411,0-4.944-1.946-6.966-8.741-6.966" transform="translate(-143.97 -114.628)" fill="#422a1a"/><path d="M297.9,191.711a4.739,4.739,0,0,1-1.617,0c-.439-.107-.477-.145-.733-.8-.294-.793-2.35-6.135-2.527-6.242s-3.232-.107-6.135-.107a39.168,39.168,0,0,0-6.391.215c-.183.18-1.946,5.449-2.091,5.885-.256.866-.294.973-.632,1.046a3.605,3.605,0,0,1-.878.069,3.36,3.36,0,0,1-.85-.069c-.474-.107-.256-.316.038-1.046.992-2.42,3.453-9.095,4.445-11.587,1.1-2.777,4.628-11.259,4.811-11.837.221-.72.259-.686.632-.648a6.042,6.042,0,0,0,.881.038c.294,0,.733.035.916.035s.183-.073.4.54c1.507,3.9,3.857,9.2,4.593,10.974.588,1.441,5.178,12.636,5.37,13.059.145.316.186.4-.221.471M289.9,176.627c-1.9-4.836-2.789-6.568-3.266-7.613-.439,1.153-2.865,7.108-3.453,8.529-.515,1.229-1.763,4.691-2.019,5.307.477.107,3.968.145,5.544.145,1.434,0,5.143-.073,5.655-.183-.107-.505-1.835-4.615-2.461-6.17" transform="translate(-188.649 -113.956)" fill="#422a1a"/><path d="M379.747,192.346a3.491,3.491,0,0,1-.771.069,2.976,2.976,0,0,1-.695-.069c-.37-.073-.4-.107-.37-.54.038-.363.316-18.638.316-19.055,0-.54-.316-.54-.588.035-1.943,4.369-6.094,13.821-8.555,19.668-.073.18-.632.218-.809.18-.366-.038-.771-.107-.847-.287-2.935-6.931-6.277-14.531-8.482-18.982-.256-.505-.442-.505-.442-.035,0,3.159.111,18.114.111,18.477,0,.433,0,.468-.366.54a2.527,2.527,0,0,1-.7.069,3.537,3.537,0,0,1-.771-.069c-.366-.073-.4-.073-.366-.509s.366-8.659.366-11.546-.316-11.654-.366-12c-.038-.54-.038-.686.332-.648a5.49,5.49,0,0,0,.79.022,1.794,1.794,0,0,0,.66-.111c.294-.107.259-.076.632.648,4.006,8.191,8.043,17.539,8.558,18.837.553,1.409.881,2.211,1.106,2.211a7.627,7.627,0,0,0,.948-1.949c.847-1.9,7.127-16.13,8.375-19.052.183-.433.294-.651.48-.613a2.774,2.774,0,0,0,.695.073,3.515,3.515,0,0,0,.771-.073c.37-.073.37.107.37.648,0,.363-.221,9.13-.221,12s.183,11.057.221,11.4c.035.543,0,.578-.37.651" transform="translate(-243.811 -114.59)" fill="#422a1a"/></g></g></svg>