<svg xmlns="http://www.w3.org/2000/svg" xmlns:xlink="http://www.w3.org/1999/xlink" width="600" height="461.5" viewBox="0 0 600 461.5"><defs><filter id="a" x="0" y="0" width="600" height="455" filterUnits="userSpaceOnUse"><feOffset dy="-16" input="SourceAlpha"/><feGaussianBlur stdDeviation="10" result="b"/><feFlood flood-opacity="0.161"/><feComposite operator="in" in2="b"/><feComposite in="SourceGraphic"/></filter></defs><g transform="translate(1351 -1408)"><rect width="600" height="451" transform="translate(-1351 1416)" fill="none"/><g transform="translate(4 9)"><g transform="matrix(1, 0, 0, 1, -1355, 1399)" filter="url(#a)"><path d="M0,294.934c0-47.7,36.334-87.6,84.965-97.635q-.749-8.226-.755-16.652C84.21,80.879,164.8,0,264.21,0A179.282,179.282,0,0,1,399,60.922a119.554,119.554,0,1,1,3.162,235.769,179.751,179.751,0,0,1-201.918,52.865C180.8,376.916,147.174,395,108.948,395,48.777,395,0,350.2,0,294.934Z" transform="translate(30 46)" fill="#422a1a"/></g><path d="M-6,297.186c0-49.513,36.726-90.605,84.9-98.459a194.886,194.886,0,0,1-1.3-22.538C77.6,76.674,152.813-4,245.6-4c52.225,0,98.885,25.561,129.7,65.652a104.907,104.907,0,0,1,24.2-2.815C461.075,58.838,511,112.227,511,178.088s-49.925,119.25-111.509,119.25A104.865,104.865,0,0,1,372.8,293.9c-30.807,38.26-76.37,62.478-127.2,62.478a157.59,157.59,0,0,1-60.311-11.96A101.935,101.935,0,0,1,95.684,397C39.525,397-6,352.312-6,297.186Z" transform="translate(-1304 1461)" fill="none" stroke="#f5f5f5" stroke-width="5"/></g></g></svg>