<svg xmlns="http://www.w3.org/2000/svg" width="2122.276" height="1910.499"><g fill="none"><path d="M1060.98 908.349a18.24 18.24 0 00-13.41 6.245 14 14 0 00-2.532-.185 14.262 14.262 0 00-13.565 11.125 20.084 20.084 0 00-11.65 9.915c-4.135 8.114-2.094 17.849 4.363 24.343a18.927 18.927 0 00-3.247 10.657c0 10.223 7.974 18.511 17.809 18.511a17.187 17.187 0 005.124-.778 16.169 16.169 0 0030.938 3.1 15.326 15.326 0 007.447 1.79c9.3-.162 16.688-8.725 16.507-19.126a20.522 20.522 0 00-2.246-9.053 19.335 19.335 0 008.075-16.42c-.156-8.955-5.876-16.353-13.4-18.133a14.319 14.319 0 00-13.847-12.475 18.409 18.409 0 00-16.044-9.516z"/><path d="M1061.302 909.349c-.1 0-.202 0-.304.003a17.02 17.02 0 00-7.056 1.652 17.413 17.413 0 00-5.621 4.253l-.367.417-.547-.091a13.034 13.034 0 00-2.351-.172 12.887 12.887 0 00-8.096 3.017 13.593 13.593 0 00-4.513 7.333l-.126.544-.53.178c-4.881 1.634-8.815 4.979-11.077 9.417-1.902 3.734-2.49 7.933-1.699 12.143a20.724 20.724 0 002.067 5.879 21.81 21.81 0 003.813 5.165l.58.585-.462.682c-2.011 2.963-3.074 6.454-3.074 10.097 0 4.684 1.753 9.087 4.937 12.396 3.173 3.298 7.39 5.115 11.872 5.115a16.2 16.2 0 004.827-.733l1.117-.348.17 1.158c.5 3.418 2.266 6.56 4.973 8.85 2.74 2.317 6.258 3.593 9.907 3.593 3.152 0 6.17-.93 8.726-2.69 2.496-1.72 4.365-4.092 5.406-6.858l.4-1.062 1.002.529a14.264 14.264 0 006.964 1.675c4.208-.074 8.14-1.983 11.068-5.377 2.957-3.426 4.54-7.948 4.456-12.732-.053-3.026-.791-6.004-2.135-8.612l-.406-.788.734-.497c2.327-1.58 4.265-3.822 5.603-6.486 1.386-2.756 2.088-5.9 2.033-9.09a19.794 19.794 0 00-1.048-6.055 18.47 18.47 0 00-2.69-5.12c-2.287-3.055-5.445-5.186-8.89-6.001l-.668-.158-.093-.68a13.584 13.584 0 00-4.32-8.219 13.043 13.043 0 00-8.553-3.396l-.576-.01-.281-.502a17.777 17.777 0 00-6.293-6.526 17.155 17.155 0 00-8.879-2.478m0-1c6.85 0 12.858 3.822 16.044 9.516 7.049.11 12.892 5.478 13.849 12.48 7.522 1.78 13.241 9.177 13.398 18.132.12 6.943-3.133 13.067-8.075 16.42 1.377 2.672 2.188 5.757 2.246 9.053.182 10.4-7.209 18.963-16.507 19.126l-.268.002c-2.562 0-4.997-.642-7.179-1.792-2.237 5.948-8.14 10.196-15.068 10.196-8.083 0-14.769-5.78-15.87-13.298a17.186 17.186 0 01-5.124.778c-9.836 0-17.81-8.288-17.81-18.511 0-3.969 1.202-7.645 3.248-10.659-6.457-6.494-8.498-16.229-4.363-24.346 2.472-4.851 6.709-8.257 11.65-9.912 1.462-6.284 6.944-11.007 13.565-11.122a13.986 13.986 0 012.532.185c3.305-3.756 8.073-6.152 13.41-6.245l.322-.003z" fill="#cee7ad"/></g><g fill="none"><path d="M1060.681 819.371a53.832 53.832 0 00-39.579 18.431 41.333 41.333 0 00-7.473-.546c-19.543.341-35.722 14.28-40.035 32.828a59.277 59.277 0 00-34.385 29.255c-12.206 23.955-6.186 52.687 12.875 71.854a55.86 55.86 0 00-9.583 31.458c0 30.173 23.533 54.634 52.563 54.634a50.726 50.726 0 0015.124-2.3c3.25 22.186 22.981 39.249 46.837 39.249 20.45 0 37.869-12.539 44.474-30.095a45.233 45.233 0 0021.979 5.283c27.442-.479 49.254-25.752 48.718-56.448a60.57 60.57 0 00-6.629-26.719c14.586-9.9 24.189-27.971 23.831-48.462-.461-26.43-17.342-48.26-39.541-53.512-2.823-20.663-20.07-36.508-40.873-36.832a54.334 54.334 0 00-47.353-28.086q-.474 0-.95.008z"/><path d="M1061.631 819.363v1c-.308 0-.622.003-.933.008-7.557.132-14.833 1.836-21.627 5.066a53.25 53.25 0 00-9.281 5.645 54.242 54.242 0 00-7.938 7.38l-.366.417-.547-.09a40.428 40.428 0 00-7.293-.533 40.057 40.057 0 00-13.556 2.6 40.507 40.507 0 00-11.55 6.755 41.595 41.595 0 00-8.77 10.093 41.916 41.916 0 00-5.203 12.607l-.126.544-.53.177c-7.28 2.439-13.875 6.108-19.6 10.908a56.851 56.851 0 00-14.211 17.853 56.933 56.933 0 00-5.717 18.317c-.83 6.186-.655 12.5.523 18.767 1.164 6.194 3.281 12.218 6.294 17.903a66.319 66.319 0 0011.593 15.708l.581.585-.463.682c-6.156 9.07-9.41 19.753-9.41 30.897 0 7.245 1.365 14.273 4.057 20.888a53.624 53.624 0 0011.059 17.05c4.736 4.923 10.25 8.787 16.39 11.486a49.535 49.535 0 0020.057 4.21 49.79 49.79 0 0014.826-2.25l1.117-.35.17 1.159c1.546 10.557 6.997 20.261 15.348 27.325a46.485 46.485 0 0013.922 8.118 47.574 47.574 0 0016.578 2.95c9.702 0 18.99-2.865 26.862-8.287a45.83 45.83 0 009.968-9.319 44.134 44.134 0 006.708-11.84l.399-1.061 1.003.528a45.167 45.167 0 009.953 3.833 43.897 43.897 0 0011.542 1.335c6.56-.114 12.897-1.662 18.84-4.602 5.747-2.843 10.885-6.861 15.272-11.944 4.393-5.09 7.81-10.99 10.155-17.537 2.431-6.783 3.598-13.965 3.47-21.347a61.031 61.031 0 00-1.825-13.824 58.283 58.283 0 00-4.694-12.455l-.406-.788.734-.497c7.145-4.848 13.088-11.722 17.187-19.88a58.02 58.02 0 004.709-13.152 60.932 60.932 0 001.497-14.586c-.111-6.36-1.187-12.574-3.198-18.468-1.942-5.692-4.708-10.958-8.222-15.65-3.478-4.646-7.585-8.591-12.205-11.728-4.698-3.19-9.795-5.449-15.148-6.715l-.667-.158-.093-.68a42.015 42.015 0 00-4.544-14.092 41.698 41.698 0 00-8.83-11.346 40.723 40.723 0 00-12.117-7.616 39.952 39.952 0 00-14.407-2.913l-.576-.01-.281-.502c-4.607-8.232-11.27-15.14-19.266-19.978a52.69 52.69 0 00-12.881-5.609 52.494 52.494 0 00-14.333-1.987v-1m0 0c20.217 0 37.948 11.28 47.353 28.086 20.803.323 38.05 16.169 40.873 36.832 22.2 5.252 39.08 27.086 39.542 53.517.357 20.491-9.246 38.567-23.832 48.462 4.064 7.885 6.46 16.991 6.629 26.72.536 30.695-21.276 55.968-48.718 56.447-.265.005-.528.007-.791.007-7.562 0-14.748-1.896-21.189-5.29-6.604 17.555-24.023 30.095-44.473 30.095-23.856 0-43.588-17.063-46.837-39.249a50.725 50.725 0 01-15.124 2.295c-29.03 0-52.563-24.46-52.563-54.633 0-11.713 3.545-22.564 9.583-31.459-19.057-19.167-25.08-47.899-12.875-71.854 7.296-14.319 19.8-24.37 34.384-29.255 4.313-18.548 20.493-32.487 40.035-32.828a41.287 41.287 0 017.473.546c9.755-11.083 23.827-18.156 39.58-18.43.317-.006.634-.009.95-.009z" fill="#cee7ad"/></g><g fill="none"><path d="M1060.378 727.748a89.424 89.424 0 00-65.747 30.616 68.663 68.663 0 00-12.414-.906c-32.463.567-59.34 23.721-66.5 54.532-24.226 8.113-45 24.811-57.117 48.6-20.283 39.79-10.274 87.518 21.382 119.358a92.792 92.792 0 00-15.919 52.257c0 50.122 39.093 90.755 87.315 90.755a84.265 84.265 0 0025.123-3.813c5.4 36.854 38.176 65.2 77.8 65.2 33.97 0 62.907-20.83 73.877-49.992a75.139 75.139 0 0036.511 8.776c45.585-.8 81.819-42.778 80.929-93.769a100.617 100.617 0 00-11.012-44.384c24.23-16.438 40.182-46.465 39.588-80.5-.766-43.9-28.808-80.175-65.685-88.9-4.689-34.324-33.339-60.646-67.9-61.184-15.615-27.922-45.068-46.66-78.652-46.66q-.788 0-1.579.014z"/><path d="M1061.957 727.734v1a88.335 88.335 0 00-20.382 2.374 87.743 87.743 0 00-17.378 6.118 89.119 89.119 0 00-15.533 9.448 90.774 90.774 0 00-13.282 12.35l-.367.417-.547-.09a67.82 67.82 0 00-12.234-.894 67.203 67.203 0 00-22.742 4.362 67.95 67.95 0 00-19.375 11.331 69.756 69.756 0 00-14.706 16.927 70.288 70.288 0 00-8.725 21.14l-.127.544-.53.177a103.126 103.126 0 00-17.273 7.597 98.931 98.931 0 00-15.5 10.642 95.098 95.098 0 00-23.77 29.864 95.236 95.236 0 00-9.564 30.64c-1.389 10.345-1.094 20.904.875 31.384 1.945 10.356 5.485 20.425 10.52 29.928 5.092 9.61 11.61 18.442 19.374 26.25l.58.585-.462.682a90.794 90.794 0 00-11.593 24.107c-2.756 8.882-4.153 18.164-4.153 27.588 0 6.093.59 12.182 1.755 18.097a91.922 91.922 0 005.033 16.852 90.946 90.946 0 007.963 15.248 89.746 89.746 0 0010.544 13.283 87.776 87.776 0 0012.776 10.957 85.334 85.334 0 0014.66 8.27 83.481 83.481 0 0016.195 5.226 83.744 83.744 0 0017.39 1.822 83.323 83.323 0 0024.825-3.767l1.117-.349.17 1.158c1.308 8.934 4.25 17.475 8.741 25.387 4.386 7.725 10.1 14.593 16.98 20.414a77.879 77.879 0 0023.325 13.6c8.855 3.28 18.198 4.943 27.768 4.943a80.033 80.033 0 0024.032-3.665 78.322 78.322 0 0020.965-10.22 76.788 76.788 0 0016.702-15.614 73.972 73.972 0 0011.243-19.846l.4-1.06 1.002.528a75.695 75.695 0 0016.68 6.424 73.583 73.583 0 0019.348 2.237 73.674 73.674 0 0016.379-2.137 74.91 74.91 0 0015.196-5.576 79.242 79.242 0 0013.699-8.648 84.968 84.968 0 0011.879-11.354 90.589 90.589 0 009.732-13.689 95.267 95.267 0 007.26-15.651 99.017 99.017 0 004.462-17.24 102.692 102.692 0 001.339-18.457 102.052 102.052 0 00-3.05-23.113 97.478 97.478 0 00-7.85-20.83l-.407-.788.734-.498c11.962-8.116 21.91-19.621 28.77-33.273a97.04 97.04 0 007.876-21.998 101.884 101.884 0 002.503-24.388c-.186-10.634-1.985-21.024-5.348-30.88-3.248-9.522-7.875-18.33-13.754-26.18-5.822-7.776-12.697-14.381-20.432-19.633-7.871-5.343-16.411-9.129-25.382-11.251l-.668-.158-.092-.68a70.451 70.451 0 00-7.62-23.63 69.924 69.924 0 00-14.809-19.026c-6.026-5.463-12.864-9.761-20.323-12.776a67.026 67.026 0 00-24.17-4.887l-.576-.01-.28-.502c-7.71-13.775-18.857-25.334-32.24-33.429a88.191 88.191 0 00-21.56-9.388 87.864 87.864 0 00-23.988-3.326v-1m0 0c33.584 0 63.038 18.738 78.66 46.655 34.558.538 63.207 26.86 67.896 61.183 36.878 8.726 64.92 44.996 65.686 88.9.594 34.04-15.358 64.066-39.588 80.504 6.751 13.098 10.73 28.226 11.012 44.385.89 50.991-35.344 92.973-80.929 93.769-.44.008-.876.011-1.314.011-12.561 0-24.498-3.15-35.197-8.788-10.971 29.163-39.907 49.993-73.878 49.993-39.628 0-72.405-28.345-77.804-65.199a84.264 84.264 0 01-25.123 3.813c-48.223 0-87.315-40.633-87.315-90.755 0-19.457 5.89-37.482 15.919-52.257-31.656-31.84-41.663-79.568-21.387-119.361 12.119-23.786 32.89-40.484 57.117-48.597 7.165-30.812 34.041-53.966 66.505-54.533a68.58 68.58 0 0112.414.907c16.204-18.411 39.58-30.16 65.747-30.616.528-.01 1.054-.014 1.58-.014z" fill="#cee7ad"/></g><g fill="none"><path d="M1060.075 636.124a125.016 125.016 0 00-91.915 42.8 95.988 95.988 0 00-17.355-1.267c-45.384.792-82.958 33.162-92.975 76.237-33.869 11.342-62.908 34.686-79.85 67.939-28.346 55.632-14.356 122.355 29.9 166.868a129.725 129.725 0 00-22.254 73.056c0 70.071 54.652 126.876 122.068 126.876a117.8 117.8 0 0035.116-5.328c7.547 51.522 53.37 91.148 108.771 91.148 47.491 0 87.944-29.12 103.281-69.89a105.044 105.044 0 0051.043 12.27c63.729-1.113 114.383-59.8 113.139-131.09a140.664 140.664 0 00-15.394-62.05c33.874-22.981 56.174-64.958 55.344-112.545-1.072-61.379-40.274-112.085-91.829-124.283-6.556-47.986-46.608-84.784-94.92-85.535-21.835-39.025-63.013-65.225-109.963-65.225q-1.102 0-2.207.019z"/><path d="M1062.282 636.105v1a123.891 123.891 0 00-28.586 3.33 123.069 123.069 0 00-24.373 8.58 124.997 124.997 0 00-21.786 13.251 127.305 127.305 0 00-18.627 17.32l-.366.417-.548-.09a95.21 95.21 0 00-17.174-1.255c-10.986.192-21.728 2.252-31.928 6.124-9.86 3.743-19.011 9.095-27.2 15.907a97.918 97.918 0 00-20.643 23.76 98.663 98.663 0 00-12.247 29.673l-.127.544-.53.178a144.579 144.579 0 00-24.214 10.65 138.71 138.71 0 00-21.733 14.92 134.495 134.495 0 00-18.578 18.996 134.237 134.237 0 00-14.752 22.878 133.538 133.538 0 00-13.41 42.963c-1.947 14.505-1.534 29.31 1.226 44.002 2.728 14.517 7.69 28.632 14.748 41.953 7.137 13.469 16.273 25.848 27.153 36.792l.582.584-.463.682a127.328 127.328 0 00-16.257 33.809c-3.865 12.455-5.825 25.471-5.825 38.686 0 8.543.828 17.081 2.461 25.376a128.898 128.898 0 007.058 23.633 127.527 127.527 0 0011.167 21.383 125.865 125.865 0 0014.788 18.63 123.11 123.11 0 0017.92 15.367 119.707 119.707 0 0020.562 11.601 117.104 117.104 0 0022.719 7.33 117.478 117.478 0 0024.393 2.556 116.88 116.88 0 0034.824-5.285l1.118-.348.17 1.158c1.836 12.538 5.963 24.525 12.268 35.629a105.441 105.441 0 0010.635 15.357 107.79 107.79 0 0013.193 13.29 109.425 109.425 0 0015.417 10.898 110.356 110.356 0 0017.309 8.184c12.424 4.602 25.532 6.935 38.959 6.935 11.52 0 22.865-1.73 33.716-5.141a109.894 109.894 0 0029.415-14.34 107.748 107.748 0 0023.436-21.91c6.71-8.486 12.018-17.856 15.778-27.851l.4-1.061 1.002.528c7.481 3.943 15.356 6.976 23.406 9.015a103.266 103.266 0 0027.154 3.14 103.4 103.4 0 0022.987-3 105.121 105.121 0 0021.325-7.824c6.72-3.324 13.186-7.407 19.22-12.134 5.979-4.684 11.585-10.042 16.662-15.926a127.044 127.044 0 0013.65-19.197 133.597 133.597 0 0010.18-21.947 138.834 138.834 0 006.255-24.171 143.95 143.95 0 001.877-25.874c-.192-11-1.63-21.902-4.275-32.403-2.566-10.187-6.27-20.014-11.008-29.206l-.406-.788.734-.498c16.779-11.383 30.733-27.52 40.353-46.666 4.875-9.702 8.59-20.079 11.043-30.844 2.53-11.106 3.711-22.61 3.509-34.19-.26-14.908-2.783-29.474-7.497-43.293-4.555-13.35-11.044-25.701-19.287-36.71-8.166-10.906-17.808-20.17-28.66-27.537-11.044-7.497-23.027-12.81-35.615-15.788l-.668-.158-.093-.68a98.886 98.886 0 00-10.695-33.168 98.155 98.155 0 00-20.787-26.706c-8.46-7.668-18.06-13.702-28.53-17.935a94.097 94.097 0 00-33.933-6.861l-.575-.01-.282-.502c-10.81-19.317-26.444-35.528-45.212-46.88a123.684 123.684 0 00-30.237-13.167 123.233 123.233 0 00-33.645-4.665v-1m0 0c46.95 0 88.127 26.196 109.967 65.224 48.312.752 88.364 37.55 94.92 85.535 51.555 12.198 90.757 62.904 91.829 124.284.83 47.587-21.47 89.564-55.344 112.545 9.438 18.31 15 39.459 15.394 62.05 1.244 71.286-49.41 129.977-113.139 131.09-.614.01-1.225.016-1.837.016-17.56 0-34.249-4.403-49.206-12.286-15.337 40.77-55.79 69.89-103.281 69.89-55.401 0-101.224-39.626-108.771-91.148a117.802 117.802 0 01-35.122 5.33c-67.416 0-122.068-56.805-122.068-126.876 0-27.201 8.234-52.4 22.254-73.056-44.255-44.513-58.245-111.237-29.899-166.869 16.943-33.252 45.982-56.596 79.85-67.939 10.017-43.075 47.591-75.444 92.975-76.236a95.87 95.87 0 0117.355 1.267c22.653-25.739 55.333-42.163 91.916-42.802.737-.013 1.472-.02 2.207-.02z" fill="#cee7ad"/></g><g fill="none"><path d="M1059.772 544.501c-47 .82-88.981 21.92-118.083 54.987a123.316 123.316 0 00-22.3-1.628c-58.3 1.018-106.576 42.6-119.444 97.941-43.511 14.572-80.817 44.561-102.584 87.281-36.412 71.47-18.439 157.194 38.415 214.375a166.657 166.657 0 00-28.59 93.855c0 90.021 70.211 163 156.82 163a151.341 151.341 0 0045.121-6.848c9.7 66.19 68.564 117.1 139.738 117.1 61.012 0 112.981-37.41 132.685-89.787a134.95 134.95 0 0065.575 15.763c81.872-1.429 146.948-76.83 145.349-168.411a180.711 180.711 0 00-19.777-79.715c43.517-29.523 72.167-83.451 71.1-144.586-1.377-78.854-51.74-144-117.972-159.666-8.421-61.653-59.876-108.927-121.943-109.893-28.058-50.139-80.958-83.793-141.278-83.793q-1.412 0-2.832.025z"/><path d="M1062.608 544.476v1a159.447 159.447 0 00-36.79 4.286 158.393 158.393 0 00-31.369 11.043 160.866 160.866 0 00-28.037 17.053 163.832 163.832 0 00-23.972 22.29l-.367.417-.547-.09a122.611 122.611 0 00-22.116-1.615c-14.146.247-27.979 2.9-41.113 7.885-12.697 4.82-24.48 11.711-35.026 20.484a126.077 126.077 0 00-26.58 30.592 127.032 127.032 0 00-15.769 38.207l-.126.544-.53.177a186.03 186.03 0 00-31.156 13.704 178.483 178.483 0 00-27.965 19.2 173.07 173.07 0 00-23.907 24.443 172.743 172.743 0 00-18.982 29.44A171.836 171.836 0 00681 838.821c-2.506 18.665-1.975 37.715 1.577 56.62 3.51 18.678 9.893 36.839 18.975 53.977 9.182 17.33 20.935 33.255 34.933 47.334l.582.585-.464.682a163.866 163.866 0 00-20.921 43.509c-4.974 16.029-7.496 32.779-7.496 49.784 0 10.995 1.066 21.982 3.167 32.657a165.882 165.882 0 009.083 30.412 164.141 164.141 0 0014.371 27.52 161.978 161.978 0 0019.031 23.974 158.442 158.442 0 0023.063 19.779 154.057 154.057 0 0026.466 14.931 150.721 150.721 0 0029.243 9.435 151.2 151.2 0 0031.397 3.29 150.45 150.45 0 0044.823-6.803l1.117-.348.17 1.158a131.11 131.11 0 005.824 23.853 132.68 132.68 0 009.971 22.019 135.757 135.757 0 0013.692 19.771 138.773 138.773 0 0016.984 17.109 140.847 140.847 0 0019.847 14.03 142.06 142.06 0 0022.28 10.534c15.994 5.923 32.866 8.926 50.15 8.926 14.83 0 29.432-2.226 43.4-6.617a141.464 141.464 0 0037.866-18.458c11.467-7.9 21.618-17.39 30.17-28.206 8.638-10.926 15.473-22.99 20.314-35.857l.399-1.062 1.003.529c9.63 5.075 19.768 8.98 30.132 11.604a132.955 132.955 0 0034.959 4.044 133.115 133.115 0 0029.595-3.862 135.334 135.334 0 0027.454-10.074c8.65-4.279 16.975-9.534 24.741-15.619 7.696-6.03 14.911-12.926 21.446-20.498 6.537-7.574 12.447-15.886 17.566-24.706a171.905 171.905 0 0013.1-28.241 178.649 178.649 0 008.05-31.103c1.797-10.9 2.61-22.1 2.415-33.292-.247-14.153-2.098-28.18-5.501-41.692-3.302-13.109-8.068-25.753-14.165-37.582l-.406-.788.733-.498c21.597-14.651 39.556-35.42 51.938-60.06 6.272-12.483 11.053-25.837 14.21-39.69 3.255-14.29 4.774-29.09 4.514-43.991-.335-19.182-3.58-37.924-9.647-55.705-5.86-17.18-14.21-33.073-24.819-47.24a159.997 159.997 0 00-17.129-19.403 151.02 151.02 0 00-19.757-16.038c-14.218-9.652-29.644-16.49-45.85-20.325l-.668-.158-.093-.68c-2.052-15.02-6.685-29.388-13.77-42.707a126.768 126.768 0 00-26.765-34.386 125.229 125.229 0 00-17.312-13.144 123.165 123.165 0 00-19.427-9.95c-13.924-5.628-28.625-8.6-43.694-8.835l-.576-.01-.281-.502c-13.912-24.86-34.032-45.721-58.185-60.33a159.187 159.187 0 00-38.915-16.947 158.603 158.603 0 00-43.302-6.004v-1m0 0c60.316 0 113.216 33.654 141.274 83.793 62.067.966 113.522 48.24 121.944 109.887 66.232 15.67 116.595 80.813 117.972 159.666 1.067 61.136-27.583 115.064-71.1 144.587 12.125 23.524 19.27 50.693 19.777 79.715 1.598 91.582-63.478 166.982-145.35 168.411-.789.014-1.573.021-2.36.021-22.56 0-43.999-5.657-63.214-15.783-19.704 52.376-71.674 89.786-132.686 89.786-71.173 0-130.042-50.906-139.738-117.097-14.289 4.454-29.436 6.848-45.12 6.848-86.61 0-156.82-72.977-156.82-162.998 0-34.945 10.577-67.318 28.59-93.855-56.855-57.186-74.828-142.905-38.412-214.375 21.766-42.72 59.072-72.71 102.583-87.28 12.869-55.34 61.14-96.925 119.445-97.942a123.179 123.179 0 0122.297 1.628c29.1-33.067 71.084-54.167 118.082-54.987.948-.017 1.892-.025 2.836-.025z" fill="#cee7ad"/></g><g fill="none"><path d="M1059.47 455.526c-57.413 1-108.7 26.778-144.251 67.172a150.66 150.66 0 00-27.238-1.989c-71.225 1.243-130.194 52.044-145.914 119.646-53.153 17.8-98.727 54.436-125.317 106.623-44.485 87.308-22.53 192.024 46.924 261.882a203.589 203.589 0 00-34.926 114.655c0 109.97 85.77 199.119 191.573 199.119a184.878 184.878 0 0055.12-8.365c11.844 80.859 83.758 143.047 170.7 143.047 74.532 0 138.019-45.7 162.089-109.684a164.857 164.857 0 0080.107 19.256c100.016-1.746 179.512-93.856 177.56-205.733a220.758 220.758 0 00-24.159-97.38c53.16-36.067 88.16-101.946 86.86-176.629-1.682-96.328-63.205-175.906-144.115-195.05-10.285-75.308-73.147-133.058-148.968-134.238-34.275-61.25-98.898-102.362-172.581-102.362q-1.73 0-3.464.03z"/><path d="M1062.934 455.496v1a194.993 194.993 0 00-44.995 5.241 193.709 193.709 0 00-38.364 13.506 196.723 196.723 0 00-34.289 20.856 200.357 200.357 0 00-29.317 27.26l-.366.417-.548-.09A150.004 150.004 0 00888 521.71c-17.307.302-34.23 3.548-50.3 9.647-15.532 5.896-29.95 14.328-42.85 25.06-12.777 10.63-23.717 23.221-32.517 37.426a155.407 155.407 0 00-19.291 46.74l-.127.543-.53.178c-13.24 4.434-26.057 10.072-38.097 16.757-12.165 6.754-23.67 14.654-34.197 23.478a211.63 211.63 0 00-29.235 29.892 211.238 211.238 0 00-23.214 36.002c-10.835 21.265-17.935 44.012-21.102 67.607-3.064 22.825-2.415 46.12 1.929 69.239 4.29 22.839 12.097 45.045 23.201 66 11.227 21.19 25.599 40.662 42.714 57.877l.581.584-.463.683a200.399 200.399 0 00-25.586 53.21c-6.083 19.601-9.167 40.085-9.167 60.882 0 13.445 1.303 26.881 3.873 39.936a202.869 202.869 0 0011.108 37.193 200.727 200.727 0 0017.575 33.655 198.092 198.092 0 0023.275 29.32 193.774 193.774 0 0028.206 24.19 188.42 188.42 0 0032.37 18.261 184.362 184.362 0 0035.765 11.54 184.938 184.938 0 0038.4 4.024c18.668 0 37.113-2.8 54.823-8.32l1.117-.349.17 1.158a160.375 160.375 0 007.125 29.18 162.303 162.303 0 0012.198 26.935 166.05 166.05 0 0016.748 24.185 169.735 169.735 0 0020.775 20.927 172.304 172.304 0 0024.276 17.161 173.769 173.769 0 0027.253 12.886 175.298 175.298 0 0029.706 8.104 178.82 178.82 0 0031.635 2.814c18.138 0 35.999-2.723 53.084-8.094a173.033 173.033 0 0046.316-22.578c14.027-9.662 26.443-21.27 36.904-34.5 10.567-13.366 18.927-28.123 24.849-43.864l.399-1.061 1.003.529c11.78 6.208 24.181 10.984 36.859 14.194a162.634 162.634 0 0042.764 4.946 162.823 162.823 0 0036.202-4.723c11.511-2.847 22.81-6.993 33.584-12.323 10.581-5.234 20.763-11.662 30.263-19.105 9.412-7.374 18.236-15.809 26.23-25.07 7.994-9.263 15.221-19.428 21.481-30.214 6.322-10.891 11.712-22.511 16.02-34.537a218.44 218.44 0 009.844-38.034c2.198-13.329 3.192-27.025 2.953-40.71-.302-17.306-2.565-34.459-6.727-50.981-4.037-16.03-9.865-31.493-17.321-45.958l-.406-.788.733-.498c13.156-8.925 25.263-19.737 35.987-32.137 10.726-12.403 19.99-26.304 27.534-41.316 7.67-15.266 13.517-31.596 17.376-48.536 3.982-17.474 5.84-35.572 5.521-53.793-.41-23.456-4.378-46.375-11.796-68.118a213.392 213.392 0 00-13.093-30.433 205.393 205.393 0 00-17.259-27.336c-6.372-8.51-13.42-16.494-20.949-23.731-7.546-7.253-15.676-13.853-24.165-19.615-8.568-5.817-17.62-10.862-26.907-14.994a165.905 165.905 0 00-29.177-9.867l-.668-.158-.092-.68a157.221 157.221 0 00-6.206-27.168 156.11 156.11 0 00-10.64-25.077 155.08 155.08 0 00-32.743-42.067 153.211 153.211 0 00-21.18-16.08 150.689 150.689 0 00-23.766-12.173c-17.035-6.885-35.021-10.522-53.457-10.81l-.576-.008-.281-.503c-17.013-30.402-41.62-55.915-71.158-73.782a194.679 194.679 0 00-47.593-20.725 193.967 193.967 0 00-52.958-7.343v-1m0 0c73.683 0 138.306 41.112 172.581 102.362 75.821 1.18 138.679 58.93 148.967 134.239 80.91 19.143 142.434 98.72 144.116 195.05 1.303 74.682-33.695 140.561-86.856 176.627 14.812 28.737 23.54 61.927 24.159 97.38 1.953 111.877-77.544 203.987-177.56 205.733-.964.017-1.922.025-2.883.025-27.56 0-53.75-6.91-77.223-19.28-24.07 63.983-87.558 109.683-162.09 109.683-86.946 0-158.86-62.188-170.704-143.047-17.456 5.442-35.96 8.366-55.12 8.366-105.803 0-191.573-89.15-191.573-199.12 0-42.688 12.922-82.236 34.926-114.653-69.453-69.859-91.41-174.574-46.924-261.882 26.59-52.187 72.164-88.823 125.317-106.623 15.72-67.603 74.688-118.403 145.914-119.646a150.485 150.485 0 0127.238 1.989c35.55-40.395 86.838-66.171 144.25-67.173 1.158-.02 2.312-.03 3.465-.03z" fill="#cee7ad"/></g><g fill="none"><path d="M1059.166 363.903c-67.828 1.183-128.419 31.636-170.419 79.358a177.971 177.971 0 00-32.179-2.35c-84.146 1.469-153.812 61.485-172.384 141.35-62.8 21.03-116.636 64.312-148.05 125.965-52.555 103.147-26.616 226.858 55.437 309.39a240.521 240.521 0 00-41.262 135.451c0 129.919 101.329 235.24 226.325 235.24a218.414 218.414 0 0065.119-9.883c13.993 95.527 98.953 169 201.672 169 88.052 0 163.056-53.991 191.493-129.582a194.763 194.763 0 0094.638 22.749c118.159-2.063 212.077-110.882 209.77-243.054a260.8 260.8 0 00-28.542-115.046c62.8-42.608 104.153-120.438 102.612-208.669-1.987-113.8-74.671-207.816-170.259-230.433-12.155-88.97-86.415-157.2-175.99-158.59-40.493-72.362-116.839-120.932-203.888-120.932q-2.043 0-4.093.036z"/><path d="M1063.26 363.867v1c-1.364 0-2.735.012-4.076.036-16.587.29-33.114 2.362-49.124 6.16a229.033 229.033 0 00-45.36 15.97 232.58 232.58 0 00-40.54 24.659 236.882 236.882 0 00-34.662 32.23l-.367.416-.547-.09a177.382 177.382 0 00-31.998-2.337c-20.468.357-40.481 4.196-59.485 11.41-18.37 6.972-35.419 16.943-50.675 29.635a182.552 182.552 0 00-20.969 20.527 184.023 184.023 0 00-17.485 23.732 183.776 183.776 0 00-22.813 55.273l-.127.544-.53.178c-15.652 5.241-30.805 11.906-45.039 19.81-14.382 7.985-27.984 17.324-40.429 27.756a250.208 250.208 0 00-34.564 35.34 249.729 249.729 0 00-27.444 42.564c-12.81 25.142-21.204 52.034-24.949 79.93-3.622 26.985-2.855 54.526 2.28 81.857 5.073 27 14.302 53.251 27.429 78.025 13.272 25.048 30.26 48.068 50.494 68.419l.581.584-.463.682c-13.116 19.324-23.294 40.49-30.251 62.91-7.191 23.176-10.838 47.394-10.838 71.981 0 15.896 1.541 31.782 4.58 47.216a239.868 239.868 0 0013.132 43.973 237.328 237.328 0 0020.78 39.79 234.218 234.218 0 0027.518 34.668 229.105 229.105 0 0033.35 28.6 222.793 222.793 0 0038.272 21.592 217.984 217.984 0 0042.29 13.644 218.661 218.661 0 0045.403 4.758c22.072 0 43.882-3.31 64.822-9.838l1.117-.348.17 1.158a189.65 189.65 0 008.425 34.506 191.921 191.921 0 0014.425 31.851 196.358 196.358 0 0019.804 28.6 200.706 200.706 0 0024.566 24.745 203.714 203.714 0 0028.706 20.292 205.473 205.473 0 0032.225 15.237 207.275 207.275 0 0035.125 9.583 211.432 211.432 0 0037.406 3.327c21.448 0 42.567-3.22 62.77-9.57a204.603 204.603 0 0054.765-26.698c16.586-11.425 31.268-25.15 43.638-40.797 12.496-15.804 22.382-33.255 29.384-51.868l.4-1.061 1.002.528c13.93 7.341 28.594 12.989 43.585 16.785a192.325 192.325 0 0050.57 5.849 192.568 192.568 0 0042.81-5.586c13.612-3.367 26.973-8.27 39.714-14.571 12.51-6.19 24.55-13.79 35.783-22.59 11.129-8.72 21.563-18.693 31.013-29.643 9.453-10.951 17.998-22.97 25.4-35.723 7.473-12.876 13.845-26.614 18.939-40.831 5.189-14.482 9.104-29.61 11.637-44.966 2.6-15.757 3.774-31.95 3.492-48.127-.357-20.46-3.033-40.738-7.953-60.271-4.773-18.951-11.663-37.232-20.478-54.334l-.407-.788.734-.497c15.555-10.553 29.871-23.338 42.55-38 12.683-14.663 23.635-31.098 32.554-48.848 9.069-18.048 15.98-37.354 20.543-57.38 4.707-20.659 6.903-42.056 6.527-63.597-.484-27.73-5.176-54.824-13.946-80.53a252.279 252.279 0 00-15.48-35.979 242.863 242.863 0 00-20.404-32.32c-7.534-10.061-15.867-19.501-24.768-28.057-8.923-8.576-18.536-16.38-28.573-23.193-10.131-6.878-20.836-12.843-31.816-17.73a196.181 196.181 0 00-34.502-11.667l-.668-.158-.092-.68a185.934 185.934 0 00-7.339-32.128 184.629 184.629 0 00-12.583-29.656 184.321 184.321 0 00-17.284-26.646 183.389 183.389 0 00-21.438-23.1 181.178 181.178 0 00-25.045-19.017 178.192 178.192 0 00-28.107-14.395 175.998 175.998 0 00-30.623-9.239 176.863 176.863 0 00-32.597-3.545l-.576-.009-.281-.502c-20.115-35.945-49.207-66.11-84.13-87.234-17.642-10.67-36.574-18.915-56.272-24.504-20.301-5.76-41.368-8.682-62.614-8.682v-1m0 0c87.05 0 163.395 48.57 203.889 120.931 89.575 1.394 163.835 69.62 175.99 158.59 95.588 22.617 168.272 116.63 170.259 230.433 1.54 88.231-39.808 166.061-102.613 208.67 17.5 33.95 27.812 73.16 28.543 115.045 2.307 132.172-91.611 240.99-209.77 243.054-1.14.02-2.273.03-3.408.03-32.559 0-63.499-8.164-91.23-22.78-28.438 75.591-103.441 129.582-191.494 129.582-102.719 0-187.679-73.47-201.672-168.996-20.622 6.428-42.483 9.883-65.119 9.883-124.995 0-226.325-105.322-226.325-235.241 0-50.433 15.266-97.155 41.262-135.452-82.053-82.532-107.992-206.243-55.436-309.39 31.414-61.653 85.254-104.935 148.05-125.965 18.572-79.865 88.237-139.881 172.383-141.35a177.755 177.755 0 0132.179 2.35c42-47.722 102.591-78.175 170.42-79.358a231.53 231.53 0 014.092-.036z" fill="#cee7ad"/></g><g fill="none"><path d="M1058.864 272.28c-78.243 1.365-148.138 36.493-196.587 91.543a205.305 205.305 0 00-37.12-2.71c-97.067 1.694-177.43 70.926-198.853 163.055-72.438 24.259-134.546 74.187-170.783 145.307-60.625 118.985-30.7 261.692 63.948 356.9a277.454 277.454 0 00-47.6 156.251c0 149.868 116.889 271.362 261.078 271.362a251.953 251.953 0 0075.118-11.4c16.141 110.2 114.147 194.946 232.638 194.946 101.573 0 188.094-62.282 220.9-149.479a224.669 224.669 0 00109.17 26.242c136.3-2.38 244.642-127.908 241.981-280.375a300.848 300.848 0 00-32.925-132.711c72.449-49.151 120.146-138.931 118.369-240.71-2.292-131.278-86.137-239.727-196.4-265.816-14.025-102.636-99.687-181.339-203.013-182.947-46.716-83.472-134.784-139.5-235.2-139.5q-2.357 0-4.721.042z"/><path d="M1063.585 272.238v1c-1.566 0-3.149.014-4.704.041-19.144.334-38.22 2.727-56.699 7.112a264.357 264.357 0 00-52.355 18.431 268.476 268.476 0 00-46.793 28.462 273.408 273.408 0 00-40.007 37.2l-.366.416-.548-.09a204.786 204.786 0 00-36.939-2.698c-23.628.413-46.732 4.844-68.67 13.172a204.66 204.66 0 00-30.767 14.735 207.81 207.81 0 00-27.733 19.476 210.711 210.711 0 00-24.206 23.697 212.433 212.433 0 00-20.185 27.396 212.15 212.15 0 00-26.335 63.806l-.127.544-.53.177c-18.064 6.05-35.553 13.742-51.98 22.863-16.6 9.217-32.299 19.995-46.662 32.036a288.79 288.79 0 00-39.892 40.788 288.23 288.23 0 00-31.676 49.126c-14.785 29.018-24.473 60.056-28.794 92.253-4.18 31.145-3.296 62.93 2.631 94.474a313.934 313.934 0 0012.35 45.995 323.756 323.756 0 0019.305 44.055c15.318 28.908 34.924 55.474 58.275 78.96l.58.585-.462.682c-15.14 22.304-26.887 46.733-34.916 72.611-8.3 26.75-12.509 54.7-12.509 83.079 0 18.347 1.778 36.681 5.286 54.495a276.852 276.852 0 0015.157 50.754 273.922 273.922 0 0023.984 45.926 270.306 270.306 0 0031.762 40.013c11.77 12.234 24.72 23.34 38.493 33.01 13.903 9.764 28.766 18.149 44.175 24.923a251.604 251.604 0 0048.813 15.75 252.387 252.387 0 0052.408 5.49c25.477 0 50.65-3.82 74.82-11.354l1.118-.349.17 1.158a218.921 218.921 0 009.725 39.833 221.538 221.538 0 0016.651 36.768 226.653 226.653 0 0022.861 33.012 231.657 231.657 0 0028.357 28.565 235.157 235.157 0 0033.135 23.423 237.183 237.183 0 0037.198 17.589 239.27 239.27 0 0040.545 11.06 244.056 244.056 0 0043.176 3.841c24.757 0 49.134-3.717 72.454-11.048a236.129 236.129 0 0063.216-30.816c19.146-13.188 36.093-29.032 50.373-47.092 14.423-18.243 25.835-38.388 33.919-59.875l.399-1.061 1.003.529c16.08 8.474 33.006 14.993 50.311 19.376a222.012 222.012 0 0058.375 6.75c16.67-.29 33.297-2.46 49.418-6.447 15.713-3.887 31.136-9.546 45.843-16.82 14.442-7.144 28.338-15.918 41.304-26.076 12.846-10.064 24.89-21.576 35.797-34.214 10.91-12.64 20.773-26.513 29.316-41.232 8.626-14.862 15.98-30.717 21.86-47.127 5.988-16.713 10.507-34.174 13.43-51.896 3-18.186 4.356-36.874 4.03-55.545-.412-23.614-3.5-47.017-9.178-69.561-5.51-21.873-13.461-42.97-23.636-62.71l-.406-.787.734-.498c17.955-12.18 34.48-26.938 49.114-43.86 14.638-16.926 27.279-35.895 37.573-56.38 10.467-20.832 18.444-43.113 23.71-66.228 5.433-23.842 7.967-48.536 7.533-73.397-.558-32.005-5.974-63.275-16.095-92.943a291.164 291.164 0 00-17.866-41.526c-6.89-13.084-14.813-25.635-23.55-37.303-8.696-11.613-18.315-22.509-28.589-32.384-10.3-9.9-21.395-18.906-32.98-26.771-11.695-7.94-24.05-14.825-36.725-20.465-12.878-5.731-26.278-10.263-39.827-13.468l-.668-.158-.093-.68a214.639 214.639 0 00-8.471-37.088 213.12 213.12 0 00-14.527-34.234 212.77 212.77 0 00-19.952-30.76 211.697 211.697 0 00-24.747-26.667 209.143 209.143 0 00-28.913-21.953 205.694 205.694 0 00-32.447-16.618 203.19 203.19 0 00-35.351-10.665 204.18 204.18 0 00-37.63-4.093l-.576-.009-.282-.502a275.845 275.845 0 00-42.182-56.806c-16.39-16.987-34.868-31.75-54.922-43.879-20.361-12.316-42.213-21.832-64.949-28.283-23.432-6.65-47.748-10.02-72.27-10.021v-1m0 0c100.416.001 188.484 56.028 235.196 139.5 103.33 1.608 188.992 80.311 203.014 182.942 110.265 26.09 194.11 134.539 196.402 265.816 1.777 101.78-45.92 191.56-118.369 240.71 20.187 39.164 32.082 84.395 32.925 132.712 2.662 152.467-105.678 277.995-241.98 280.375-1.314.023-2.62.034-3.93.034-37.559 0-73.25-9.417-105.24-26.277-32.804 87.198-119.325 149.48-220.898 149.48-118.49 0-216.497-84.751-232.638-194.947-23.789 7.416-49.007 11.4-75.118 11.4-144.19 0-261.078-121.493-261.078-271.361 0-58.177 17.61-112.073 47.597-156.251-94.651-95.205-124.573-237.912-63.948-356.897 36.238-71.12 98.346-121.048 170.784-145.307 21.423-92.13 101.786-161.36 198.853-163.055a205.063 205.063 0 0137.12 2.71c48.449-55.05 118.344-90.177 196.587-91.543 1.577-.027 3.15-.041 4.72-.041z" fill="#cee7ad"/></g><g fill="none"><path d="M1058.561 183.306c-88.658 1.547-167.857 41.353-222.755 103.729a232.637 232.637 0 00-42.061-3.071c-109.988 1.92-201.048 80.367-225.323 184.759-82.08 27.488-152.456 84.062-193.517 164.649-68.7 134.823-34.791 296.526 72.46 404.4a314.387 314.387 0 00-53.933 177.05c0 169.817 132.448 307.483 295.83 307.483a285.492 285.492 0 0085.117-12.918c18.29 124.863 129.341 220.9 263.605 220.9 115.094 0 213.131-70.572 250.3-169.376a254.576 254.576 0 00123.7 29.735c154.446-2.7 277.206-144.934 274.191-317.7-.956-54.748-14.434-106-37.308-150.377 82.093-55.693 136.138-157.425 134.125-272.752-2.6-148.752-97.6-271.637-222.546-301.2-15.888-116.293-112.953-205.472-230.037-207.294-52.925-94.578-152.716-158.064-266.498-158.064q-2.671 0-5.35.047z"/><path d="M1063.91 183.259v1c-1.779 0-3.573.016-5.332.047-21.702.378-43.327 3.09-64.274 8.061a299.692 299.692 0 00-59.351 20.895c-18.641 8.86-36.488 19.716-53.045 32.264a309.944 309.944 0 00-45.351 42.169l-.367.417-.547-.091a232.215 232.215 0 00-41.88-3.058c-26.789.468-52.984 5.492-77.857 14.934a232.013 232.013 0 00-34.882 16.706 235.606 235.606 0 00-31.443 22.081 238.925 238.925 0 00-27.443 26.866 240.843 240.843 0 00-22.885 31.06 241.48 241.48 0 00-17.766 34.663 241.96 241.96 0 00-12.09 37.676l-.127.544-.53.178c-20.477 6.857-40.301 15.577-58.922 25.916-18.816 10.448-36.612 22.665-52.894 36.314-16.579 13.898-31.793 29.455-45.22 46.237a325.822 325.822 0 00-19.22 26.691 328.945 328.945 0 00-16.687 28.997c-16.76 32.893-27.742 68.078-32.641 104.575-4.739 35.305-3.735 71.336 2.983 107.092 3.298 17.555 8.008 35.097 13.999 52.137a366.969 366.969 0 0021.883 49.938c17.362 32.767 39.586 62.88 66.054 89.502l.582.585-.463.682c-17.162 25.283-30.479 52.976-39.581 82.311-9.41 30.323-14.18 62.008-14.18 94.177 0 20.798 2.016 41.582 5.992 61.775a313.818 313.818 0 0017.182 57.534 310.513 310.513 0 0027.188 52.062 306.45 306.45 0 0036.006 45.359c13.342 13.868 28.023 26.458 43.636 37.421 15.76 11.068 32.61 20.573 50.079 28.253a285.225 285.225 0 0055.335 17.854c19.421 4.131 39.41 6.225 59.412 6.225 28.882 0 57.42-4.33 84.82-12.872l1.117-.348.17 1.158a248.196 248.196 0 0011.026 45.158 251.158 251.158 0 0018.878 41.685 256.98 256.98 0 0025.917 37.426 262.683 262.683 0 0032.148 32.384 266.609 266.609 0 0037.565 26.554 268.859 268.859 0 0042.17 19.94 271.241 271.241 0 0045.964 12.539c16.03 2.89 32.499 4.354 48.948 4.354 28.066 0 55.7-4.214 82.137-12.524 25.572-8.04 49.685-19.793 71.667-34.936 21.705-14.951 40.919-32.913 57.107-53.388 16.352-20.683 29.29-43.52 38.454-67.88l.399-1.061 1.003.528c18.229 9.607 37.42 16.998 57.038 21.966a251.702 251.702 0 0066.18 7.654 251.997 251.997 0 0056.026-7.31c17.813-4.406 35.3-10.822 51.972-19.069 16.372-8.099 32.127-18.045 46.826-29.561 14.561-11.41 28.215-24.459 40.58-38.786 12.367-14.33 23.548-30.056 33.232-46.74 9.778-16.848 18.115-34.821 24.78-53.422 6.789-18.947 11.911-38.74 15.225-58.829 3.4-20.614 4.937-41.798 4.568-62.961-.467-26.767-3.968-53.297-10.405-78.851-6.245-24.794-15.259-48.71-26.792-71.085l-.406-.788.734-.498c20.354-13.809 39.087-30.538 55.678-49.722 16.593-19.186 30.923-40.69 42.592-63.913 11.865-23.613 20.908-48.87 26.878-75.072 6.157-27.026 9.03-55.019 8.538-83.2-.633-36.278-6.772-71.724-18.245-105.354-5.537-16.23-12.35-32.068-20.252-47.073-7.81-14.832-16.792-29.06-26.697-42.286-9.857-13.165-20.76-25.516-32.408-36.711-11.675-11.223-24.254-21.433-37.388-30.349-13.257-9-27.265-16.806-41.634-23.2-14.6-6.498-29.79-11.635-45.152-15.27l-.667-.158-.093-.68a243.35 243.35 0 00-9.604-42.047 241.646 241.646 0 00-16.47-38.813 241.208 241.208 0 00-22.62-34.874 240.045 240.045 0 00-28.057-30.233 237.149 237.149 0 00-32.78-24.889 233.23 233.23 0 00-36.787-18.841 230.374 230.374 0 00-40.08-12.092 231.514 231.514 0 00-42.665-4.64l-.575-.009-.282-.502a312.697 312.697 0 00-47.817-64.395c-18.58-19.256-39.527-35.991-62.26-49.741-23.082-13.961-47.853-24.749-73.626-32.062-26.564-7.538-54.128-11.36-81.927-11.36v-1m0 0c113.782.001 213.573 63.486 266.503 158.07 117.084 1.821 214.15 91 230.038 207.293 124.942 29.562 219.948 152.447 222.545 301.199 2.013 115.327-52.032 217.058-134.125 272.752 22.874 44.376 36.352 95.628 37.308 150.376 3.015 172.762-119.745 315-274.191 317.696-1.49.026-2.968.039-4.452.039-42.558 0-83.002-10.67-119.25-29.774-37.17 98.804-135.208 169.376-250.301 169.376-134.264 0-245.316-96.032-263.606-220.895-26.955 8.402-55.53 12.917-85.117 12.917-163.382 0-295.83-137.666-295.83-307.483 0-65.92 19.954-126.991 53.933-177.05-107.25-107.877-141.156-269.58-72.46-404.403 41.06-80.588 111.436-137.161 193.517-164.65 24.274-104.392 115.335-182.839 225.322-184.759a232.383 232.383 0 0142.06 3.071c54.899-62.377 134.098-102.181 222.756-103.728 1.788-.032 3.57-.047 5.35-.047z" fill="#cee7ad"/></g><g fill="none"><path d="M1058.259 91.681c-99.073 1.729-187.576 46.209-248.923 115.915a259.971 259.971 0 00-47-3.432c-122.91 2.145-224.663 89.807-251.795 206.465-91.722 30.716-170.368 93.935-216.25 183.99-76.765 150.661-38.877 331.36 80.973 451.91-37.97 55.94-60.269 124.184-60.269 197.849 0 189.766 148.007 343.6 330.583 343.6a319.03 319.03 0 0095.116-14.435c20.438 139.532 144.536 246.845 294.572 246.845 128.614 0 238.169-78.862 279.705-189.274a284.482 284.482 0 00138.234 33.228c172.589-3.013 309.771-161.96 306.4-355.017-1.068-61.179-16.129-118.452-41.69-168.042 91.736-62.236 152.131-175.918 149.881-304.793-2.9-166.227-109.069-303.547-248.689-336.582-17.754-129.954-126.223-229.61-257.061-231.646-59.146-105.689-170.66-176.633-297.809-176.633q-2.985 0-5.978.052z"/><path d="M1064.237 91.629v1a340.075 340.075 0 00-42.478 2.663 335.852 335.852 0 00-35.333 6.401 334.988 334.988 0 00-66.347 23.357c-20.838 9.906-40.788 22.04-59.296 36.067a346.465 346.465 0 00-50.697 47.14l-.366.416-.548-.091a259.594 259.594 0 00-46.82-3.419c-29.95.523-59.235 6.14-87.043 16.696a259.427 259.427 0 00-38.998 18.677 263.42 263.42 0 00-35.152 24.687 267.133 267.133 0 00-30.68 30.035 269.28 269.28 0 00-25.585 34.724 269.966 269.966 0 00-19.863 38.751 270.535 270.535 0 00-13.516 42.12l-.126.545-.53.178c-22.89 7.665-45.05 17.412-65.864 28.97-21.033 11.677-40.926 25.335-59.126 40.592a368.458 368.458 0 00-26.46 24.489 364.754 364.754 0 00-24.089 27.196 364.187 364.187 0 00-21.485 29.837 367.65 367.65 0 00-18.653 32.412c-18.735 36.77-31.01 76.1-36.487 116.898-2.65 19.74-3.7 39.936-3.12 60.03.573 19.853 2.744 39.933 6.455 59.68 3.686 19.624 8.951 39.231 15.648 58.279 6.694 19.041 14.924 37.822 24.46 55.82a420.215 420.215 0 0032.893 52.307 428.05 428.05 0 0040.942 47.738l.582.584-.464.682c-19.184 28.263-34.07 59.22-44.245 92.013-10.518 33.896-15.85 69.315-15.85 105.275 0 23.248 2.253 46.481 6.697 69.054a350.817 350.817 0 0019.207 64.315 347.12 347.12 0 0030.392 58.198 342.563 342.563 0 0040.25 50.704c14.915 15.503 31.326 29.577 48.779 41.832 17.619 12.372 36.454 22.999 55.982 31.584a318.867 318.867 0 0061.86 19.959 318.81 318.81 0 0032.72 5.19 322.274 322.274 0 0033.695 1.768c32.286 0 64.188-4.841 94.818-14.39l1.118-.348.17 1.158a277.478 277.478 0 0012.327 50.485 280.818 280.818 0 0021.103 46.6 287.289 287.289 0 0028.974 41.841 293.622 293.622 0 0035.939 36.202 298.032 298.032 0 0041.994 29.686 300.6 300.6 0 0047.143 22.29 303.244 303.244 0 0051.384 14.018c17.92 3.23 36.33 4.868 54.718 4.868 31.375 0 62.269-4.71 91.822-14.001 28.587-8.987 55.543-22.127 80.118-39.055 24.264-16.714 45.743-36.795 63.84-59.684 18.28-23.121 32.745-48.653 42.99-75.885l.399-1.062 1.003.53c20.379 10.739 41.832 19 63.764 24.555a281.906 281.906 0 0033.964 6.412 282.458 282.458 0 0071.829-.21 281.526 281.526 0 0030.826-5.817c19.914-4.926 39.462-12.098 58.101-21.318 18.303-9.054 35.915-20.173 52.347-33.047 16.278-12.754 31.541-27.342 45.364-43.358 13.825-16.019 26.324-33.598 37.15-52.25 10.93-18.831 20.249-38.923 27.699-59.716 7.588-21.178 13.314-43.303 17.018-65.76 3.802-23.043 5.52-46.721 5.107-70.379-.523-29.92-4.436-59.575-11.63-88.14-6.981-27.715-17.058-54.45-29.95-79.46l-.406-.789.734-.498c22.754-15.436 43.695-34.137 62.241-55.583 18.549-21.448 34.568-45.485 47.612-71.445 13.263-26.395 23.372-54.63 30.045-83.918 6.883-30.21 10.095-61.5 9.545-93.002-.708-40.552-7.57-80.174-20.395-117.766-6.19-18.143-13.806-35.847-22.638-52.62-8.731-16.58-18.771-32.484-29.843-47.27-11.02-14.716-23.209-28.523-36.228-41.038-13.052-12.544-27.114-23.96-41.795-33.926-14.822-10.061-30.481-18.787-46.544-25.936-16.321-7.264-33.304-13.007-50.477-17.07l-.667-.158-.093-.68a272.04 272.04 0 00-10.737-47.007 270.144 270.144 0 00-18.412-43.391 269.722 269.722 0 00-25.289-38.988 268.336 268.336 0 00-31.367-33.8 265.108 265.108 0 00-36.647-27.825 260.755 260.755 0 00-41.126-21.064 257.573 257.573 0 00-44.81-13.518 258.821 258.821 0 00-47.698-5.188l-.576-.008-.281-.503a349.563 349.563 0 00-53.453-71.984c-20.77-21.525-44.185-40.233-69.597-55.603-25.803-15.607-53.494-27.666-82.305-35.84-29.694-8.427-60.507-12.7-91.583-12.7v-1m0 0c127.149.001 238.663 70.944 297.81 176.639 130.839 2.035 239.307 101.691 257.061 231.645 139.62 33.035 245.788 170.356 248.69 336.582 2.25 128.875-58.146 242.557-149.882 304.793 25.561 49.59 40.623 106.862 41.69 168.042 3.37 193.057-133.811 352.004-306.4 355.017-1.665.03-3.318.043-4.976.043-47.558 0-92.752-11.924-133.259-33.271-41.536 110.411-151.09 189.273-279.705 189.273-150.036 0-274.133-107.313-294.572-246.845-30.122 9.39-62.053 14.435-95.116 14.435-182.576 0-330.583-153.838-330.583-343.604 0-73.665 22.299-141.91 60.269-197.85-119.85-120.55-157.738-301.248-80.973-451.91 45.885-90.054 124.528-153.273 216.25-183.99 27.127-116.657 128.885-204.32 251.793-206.465a259.663 259.663 0 0147.002 3.432c61.347-69.705 149.85-114.185 248.923-115.914a341.07 341.07 0 015.978-.052z" fill="#cee7ad"/></g><g fill="none"><path d="M1057.956.058c-109.489 1.91-207.295 51.066-275.089 128.099a287.316 287.316 0 00-51.943-3.793c-135.829 2.371-248.284 99.249-278.262 228.168-101.367 33.947-188.277 103.813-238.985 203.334-84.835 166.5-42.965 366.195 89.485 499.417-41.962 61.82-66.6 137.239-66.6 218.648 0 209.716 163.566 379.726 365.335 379.726a352.569 352.569 0 00105.111-15.957c22.587 154.2 159.73 272.8 325.539 272.8 142.135 0 263.206-87.153 309.109-209.171a314.387 314.387 0 00152.766 36.721c190.733-3.33 342.336-178.986 338.611-392.338-1.18-67.611-17.825-130.9-46.073-185.707 101.38-68.778 168.124-194.411 165.638-336.834-3.207-183.702-120.531-335.459-274.831-371.971-19.62-143.615-139.491-253.747-284.084-256C1328.315 78.4 1205.078 0 1064.567 0q-3.3 0-6.611.058z"/><path d="M1064.563 0v1a375.873 375.873 0 00-46.956 2.943 371.272 371.272 0 00-39.06 7.077 370.338 370.338 0 00-73.342 25.82c-23.035 10.95-45.088 24.363-65.548 39.869a383.013 383.013 0 00-56.041 52.109l-.367.416-.547-.09a287.013 287.013 0 00-51.763-3.78c-33.11.578-65.485 6.788-96.228 18.458a286.781 286.781 0 00-43.113 20.649 291.193 291.193 0 00-38.861 27.29 295.286 295.286 0 00-33.919 33.205 297.7 297.7 0 00-28.283 38.387 298.432 298.432 0 00-21.958 42.842 299.055 299.055 0 00-14.943 46.564l-.126.544-.53.178c-25.302 8.473-49.797 19.247-72.806 32.023-23.25 12.91-45.24 28.006-65.357 44.871a407.362 407.362 0 00-29.251 27.07 403.345 403.345 0 00-26.627 30.063 402.74 402.74 0 00-23.75 32.982 406.443 406.443 0 00-20.619 35.83c-20.71 40.646-34.28 84.122-40.334 129.22-2.928 21.82-4.089 44.146-3.448 66.358.632 21.946 3.033 44.142 7.134 65.97 4.076 21.692 9.895 43.366 17.298 64.421 7.4 21.048 16.496 41.808 27.038 61.703a464.451 464.451 0 0036.359 57.819 473.13 473.13 0 0045.256 52.767l.581.585-.463.682c-21.207 31.243-37.662 65.464-48.91 101.713-11.626 37.47-17.522 76.623-17.522 116.373 0 12.92.633 25.95 1.882 38.727a393.726 393.726 0 005.522 37.608 387.783 387.783 0 0021.232 71.094 383.705 383.705 0 0033.596 64.334c13.035 20.054 28.005 38.912 44.493 56.05 16.488 17.138 34.63 32.696 53.923 46.243 19.477 13.677 40.298 25.424 61.885 34.914a352.48 352.48 0 0068.383 22.063 352.3 352.3 0 0036.171 5.738 356.28 356.28 0 0037.249 1.955c35.69 0 70.955-5.352 104.817-15.907l1.117-.349.17 1.158a306.735 306.735 0 0013.628 55.812 310.422 310.422 0 0023.33 51.517c9.216 16.232 19.993 31.794 32.03 46.254a324.6 324.6 0 0039.73 40.021 329.489 329.489 0 0046.424 32.817 332.293 332.293 0 0052.115 24.642 335.193 335.193 0 0056.803 15.496c19.81 3.57 40.162 5.381 60.49 5.381 34.684 0 68.835-5.207 101.506-15.478 31.602-9.935 61.401-24.46 88.568-43.174a328.206 328.206 0 0037.853-30.445 323.435 323.435 0 0032.721-35.535c20.21-25.56 36.2-53.785 47.525-83.89l.4-1.062 1.002.528c22.529 11.873 46.245 21.007 70.49 27.147a311.645 311.645 0 0037.547 7.088 312.234 312.234 0 0079.408-.23 311.278 311.278 0 0034.078-6.433c22.015-5.445 43.625-13.374 64.23-23.567 20.234-10.008 39.703-22.3 57.868-36.532 17.996-14.099 34.868-30.225 50.149-47.93 15.282-17.708 29.098-37.14 41.065-57.758 12.082-20.817 22.384-43.027 30.62-66.011 8.388-23.411 14.717-47.868 18.812-72.69a429.28 429.28 0 004.553-38.36 437.719 437.719 0 001.091-39.438c-.577-33.074-4.902-65.854-12.856-97.43-7.716-30.637-18.855-60.19-33.106-87.837l-.406-.788.734-.497c25.153-17.065 48.303-37.738 68.805-61.445 20.504-23.71 38.212-50.281 52.631-78.977 14.661-29.178 25.836-60.388 33.212-92.764 7.609-33.395 11.159-67.983 10.55-102.804-.393-22.546-2.542-45.113-6.386-67.073-3.756-21.458-9.192-42.69-16.157-63.106-6.842-20.055-15.262-39.625-25.025-58.166-9.65-18.328-20.75-35.908-32.99-52.253-12.18-16.268-25.654-31.53-40.047-45.365-14.428-13.868-29.973-26.486-46.203-37.504-16.384-11.123-33.695-20.77-51.453-28.672-18.042-8.03-36.817-14.378-55.801-18.87l-.668-.158-.093-.68a300.743 300.743 0 00-11.87-51.968 298.614 298.614 0 00-20.354-47.969 298.15 298.15 0 00-27.957-43.102 296.668 296.668 0 00-34.677-37.366 293.082 293.082 0 00-40.514-30.76 288.278 288.278 0 00-45.467-23.288 284.722 284.722 0 00-49.539-14.944 286.105 286.105 0 00-52.73-5.736l-.577-.009-.28-.502a386.414 386.414 0 00-59.089-79.573c-22.959-23.794-48.844-44.475-76.935-61.465-28.523-17.253-59.134-30.583-90.983-39.62C1132.977 5.723 1098.915 1 1064.562 1V0m0 0c140.516.001 263.753 78.402 329.119 195.207 144.592 2.25 264.464 112.382 284.084 255.998 154.298 36.507 271.626 188.264 274.833 371.965 2.486 142.423-64.258 268.056-165.638 336.834 28.248 54.803 44.893 118.097 46.073 185.708 3.724 213.352-147.879 389.008-338.611 392.338-1.84.032-3.667.048-5.5.048-52.557 0-102.501-13.178-147.266-36.77-45.903 122.019-166.975 209.171-309.11 209.171-165.808 0-302.951-118.595-325.538-272.795-33.289 10.377-68.577 15.953-105.115 15.953-201.77 0-365.336-170.01-365.336-379.726 0-81.409 24.643-156.827 66.605-218.648-132.45-133.222-174.32-332.917-89.485-499.417 50.708-99.521 137.618-169.387 238.983-203.333 29.978-128.92 142.433-225.798 278.262-228.169 1.697-.03 3.389-.044 5.08-.044 15.942 0 31.598 1.312 46.863 3.837C850.661 51.124 948.468 1.968 1057.956.058a375.6 375.6 0 016.607-.058z" fill="#cee7ad"/></g><g fill="none"><path d="M1057.653.058c-119.9 1.91-227.014 51.066-301.259 128.1a344 344 0 00-56.884-3.793c-148.75 2.371-271.9 99.249-304.732 228.168-111.007 33.946-206.185 103.812-261.718 203.333-92.905 166.5-47.052 366.195 98 499.417-45.954 61.82-72.94 137.239-72.94 218.648 0 209.716 179.126 379.726 400.088 379.726A420.061 420.061 0 00673.32 1637.7c24.74 154.2 174.924 272.8 356.506 272.8 155.655 0 288.244-87.153 338.513-209.171a370.989 370.989 0 00167.3 36.721c208.876-3.33 374.9-178.986 370.822-392.338A392.066 392.066 0 001856.003 1160c111.024-68.778 184.116-194.411 181.394-336.834-3.512-183.7-132-335.458-300.976-371.965-21.487-143.615-152.761-253.747-311.108-256C1353.73 78.4 1218.769 0 1064.888 0q-3.613 0-7.235.058z"/><path d="M1064.888 0v1a450.437 450.437 0 00-51.445 2.944 441.907 441.907 0 00-42.794 7.08c-27.614 5.983-54.647 14.674-80.35 25.83-25.233 10.953-49.392 24.37-71.804 39.88-22.219 15.377-42.87 32.911-61.381 52.117l-.359.372-.51-.077a343.77 343.77 0 00-56.72-3.782c-36.28.579-71.754 6.792-105.44 18.467a328.162 328.162 0 00-47.235 20.658 320.929 320.929 0 00-42.571 27.3C491 201.876 478.5 213.05 467.127 225c-11.393 11.97-21.814 24.886-30.975 38.39-9.24 13.618-17.33 28.03-24.045 42.836a280.735 280.735 0 00-16.36 46.555l-.139.545-.538.164c-27.717 8.476-54.55 19.253-79.755 32.032a471.708 471.708 0 00-36.955 20.872 451.824 451.824 0 00-34.636 24.01 433.386 433.386 0 00-32.038 27.074 417.631 417.631 0 00-29.162 30.065 405.825 405.825 0 00-26.01 32.983 399.044 399.044 0 00-22.58 35.828c-22.676 40.64-37.535 84.11-44.163 129.2-3.207 21.814-4.477 44.135-3.776 66.342.693 21.94 3.321 44.132 7.812 65.957 4.462 21.687 10.834 43.358 18.94 64.41 8.102 21.045 18.063 41.803 29.607 61.696 11.61 20.008 25.007 39.46 39.817 57.818 14.98 18.568 31.656 36.323 49.564 52.77l.664.61-.538.724c-23.222 31.24-41.242 65.459-53.558 101.703-12.73 37.462-19.185 76.607-19.185 116.348 0 12.917.693 25.944 2.06 38.718a361.666 361.666 0 006.046 37.599c5.242 24.313 13.064 48.229 23.249 71.082 10 22.44 22.377 44.083 36.789 64.33 14.275 20.054 30.67 38.913 48.728 56.052 18.059 17.14 37.93 32.702 59.063 46.252 21.336 13.68 44.145 25.43 67.793 34.924 24.087 9.67 49.293 17.096 74.92 22.073a420.139 420.139 0 0039.63 5.74 427.067 427.067 0 0040.81 1.956c39.103 0 77.74-5.354 114.84-15.914l1.083-.309.179 1.112c3.037 18.933 8.057 37.706 14.92 55.798 6.73 17.742 15.326 35.072 25.546 51.51 10.092 16.232 21.894 31.794 35.078 46.254 13.12 14.39 27.76 27.858 43.515 40.027 15.805 12.209 32.915 23.253 50.855 32.826 18.138 9.68 37.347 17.973 57.094 24.651 20.108 6.8 41.047 12.016 62.234 15.503 21.706 3.573 44.004 5.384 66.276 5.384 38.001 0 75.42-5.21 111.215-15.485 34.622-9.939 67.267-24.47 97.029-43.19 14.607-9.188 28.557-19.434 41.463-30.452 12.896-11.01 24.954-22.967 35.839-35.539 22.131-25.56 39.64-53.783 52.043-83.886l.403-.98.955.46c24.681 11.878 50.665 21.015 77.23 27.159a370.802 370.802 0 0041.139 7.09 374.266 374.266 0 0048.479 2.374 375.241 375.241 0 0037.999-2.541 370.367 370.367 0 0036.845-6.269 368.57 368.57 0 0069.522-22.967c21.917-9.754 43.038-21.737 62.776-35.618 19.546-13.745 37.917-29.477 54.604-46.76a384.507 384.507 0 0046.124-58.112 386.485 386.485 0 0034.424-66.658 388.394 388.394 0 0021.173-73.563 393.482 393.482 0 005.132-38.86 399.031 399.031 0 00-2.83-89.68 393.237 393.237 0 00-10.007-47.701 389.543 389.543 0 00-36.25-87.825l-.473-.836.816-.506c27.553-17.068 52.91-37.745 75.365-61.455a384.428 384.428 0 0057.638-78.977 386.605 386.605 0 0036.366-92.751c8.33-33.388 12.218-67.969 11.552-102.782-.43-22.541-2.784-45.103-6.993-67.059a391.333 391.333 0 00-17.69-63.095 390.024 390.024 0 00-27.404-58.16 389.535 389.535 0 00-36.126-52.251 387.256 387.256 0 00-43.862-45.37 382.368 382.368 0 00-50.608-37.511 375.899 375.899 0 00-56.367-28.682 370.882 370.882 0 00-61.138-18.879l-.675-.146-.102-.683a278.725 278.725 0 00-12.996-51.954c-5.867-16.512-13.365-32.648-22.287-47.962-8.803-15.109-19.104-29.61-30.616-43.101-11.444-13.412-24.223-25.985-37.981-37.372-13.785-11.409-28.717-21.761-44.38-30.77a328.056 328.056 0 00-49.813-23.296 334.457 334.457 0 00-54.28-14.952c-18.917-3.532-38.357-5.463-57.78-5.739l-.55-.008-.288-.47c-17.751-28.964-39.523-55.736-64.711-79.574-25.148-23.799-53.5-44.483-84.271-61.478-31.247-17.258-64.782-30.592-99.673-39.633C1139.842 5.725 1102.524 1 1064.888 1V0m0 0c153.881.001 288.842 78.402 360.425 195.207 158.347 2.25 289.621 112.382 311.108 255.998 168.975 36.507 297.464 188.264 300.976 371.965 2.722 142.423-70.37 268.056-181.394 336.834 30.935 54.803 49.163 118.097 50.456 185.708 4.078 213.352-161.946 389.008-370.822 392.338-2.014.032-4.015.048-6.022.048-57.557 0-112.252-13.178-161.276-36.77-50.27 122.019-182.858 209.171-338.513 209.171-181.582 0-331.77-118.595-356.506-272.795-36.455 10.377-75.1 15.953-115.114 15.953-220.962 0-400.088-170.01-400.088-379.726 0-81.409 26.987-156.827 72.94-218.648C86.01 922.061 40.157 722.365 133.062 555.866c55.532-99.521 150.71-169.387 261.717-203.333 32.83-128.92 155.982-225.798 304.732-228.169a349.75 349.75 0 015.561-.044c17.461 0 34.604 1.312 51.323 3.837C830.639 51.124 937.75 1.968 1057.653.057c2.417-.038 4.826-.057 7.235-.057z" fill="#cee7ad"/></g><g fill="none"><path d="M1057.354.058c-130.318 1.91-246.732 51.066-327.427 128.1a405.836 405.836 0 00-61.825-3.793c-161.67 2.371-295.52 99.249-331.2 228.168-120.65 33.946-224.094 103.812-284.45 203.333-100.98 166.499-51.144 366.195 106.502 499.417-49.945 61.82-79.276 137.239-79.276 218.648 0 209.716 194.685 379.726 434.84 379.726a493.682 493.682 0 00125.116-15.957c26.884 154.2 190.12 272.8 387.472 272.8 169.176 0 313.281-87.153 367.917-209.171a432.728 432.728 0 00181.831 36.721c227.02-3.33 407.465-178.986 403.032-392.338A368.41 368.41 0 001925.047 1160c120.668-68.778 200.109-194.411 197.15-336.834-3.817-183.7-143.466-335.458-327.119-371.965-23.353-143.615-166.03-253.747-338.131-256C1379.145 78.4 1232.462 0 1065.214 0q-3.927 0-7.86.058z"/><path d="M1065.214 0v1a531.477 531.477 0 00-55.933 2.946 518.999 518.999 0 00-46.526 7.081c-30.022 5.986-59.413 14.679-87.356 25.838-27.433 10.956-53.697 24.377-78.061 39.89-24.153 15.38-46.602 32.917-66.724 52.126l-.35.333-.479-.066a405.624 405.624 0 00-61.672-3.784c-39.449.579-78.022 6.795-114.648 18.475-17.686 5.64-34.965 12.593-51.358 20.666-16.2 7.978-31.772 17.165-46.283 27.308-14.435 10.089-28.022 21.265-40.386 33.216-12.383 11.971-23.71 24.888-33.668 38.391-10.041 13.619-18.833 28.03-26.131 42.834-7.407 15.025-13.389 30.685-17.778 46.546l-.15.543-.543.152c-30.133 8.479-59.304 19.258-86.705 32.04a526.6 526.6 0 00-40.174 20.877 494.404 494.404 0 00-37.652 24.014c-12.106 8.527-23.823 17.637-34.825 27.079a436.154 436.154 0 00-31.7 30.068 413.073 413.073 0 00-28.27 32.984 395.913 395.913 0 00-24.54 35.827C28.658 597.02 12.511 640.483 5.308 685.565a345.317 345.317 0 00-3.656 33.14 348.34 348.34 0 00-.447 33.187c.753 21.936 3.61 44.123 8.489 65.943 4.849 21.684 11.774 43.35 20.581 64.4 8.806 21.043 19.632 41.8 32.178 61.691 12.618 20.008 27.178 39.461 43.275 57.818 16.283 18.57 34.409 36.326 53.874 52.776l.747.63-.615.762c-25.239 31.24-44.822 65.455-58.207 101.696-13.833 37.454-20.847 76.59-20.847 116.323 0 12.914.754 25.938 2.239 38.71a334.97 334.97 0 006.57 37.59 339.23 339.23 0 0010.683 36.283 347.912 347.912 0 0014.58 34.787c10.868 22.438 24.32 44.08 39.983 64.326 15.517 20.056 33.336 38.917 52.965 56.057 19.631 17.144 41.233 32.707 64.205 46.26 23.196 13.685 47.993 25.438 73.703 34.934 26.187 9.673 53.592 17.101 81.453 22.08a494.087 494.087 0 0043.088 5.743 504.487 504.487 0 0044.371 1.956c42.516 0 84.525-5.356 124.86-15.92l1.052-.276.187 1.071c3.3 18.929 8.755 37.697 16.212 55.785 7.315 17.74 16.655 35.069 27.763 51.505 10.97 16.232 23.797 31.795 38.127 46.256 14.261 14.393 30.176 27.862 47.302 40.034 17.182 12.211 35.783 23.258 55.286 32.834 19.72 9.682 40.605 17.978 62.074 24.658 21.862 6.803 44.628 12.02 67.665 15.51 23.6 3.573 47.843 5.385 72.058 5.385 41.318 0 82.001-5.212 120.92-15.49 37.642-9.943 73.134-24.478 105.49-43.204 15.88-9.19 31.046-19.438 45.075-30.459 14.018-11.012 27.126-22.97 38.958-35.544 24.054-25.56 43.084-53.782 56.562-83.882l.407-.91.91.404c26.835 11.881 55.086 21.022 83.968 27.168a435.16 435.16 0 0044.73 7.094 441.888 441.888 0 0052.712 2.374 442.626 442.626 0 0043.566-2.793 434.145 434.145 0 0042.158-6.935c27.205-5.872 53.845-14.42 79.179-25.406 24.872-10.786 48.697-24.012 70.814-39.31 21.923-15.164 42.321-32.47 60.627-51.437 16.89-17.5 32.132-36.555 45.3-56.636 13.304-20.287 24.631-41.835 33.667-64.044a366.546 366.546 0 0012.026-34.365 363.64 363.64 0 008.583-35.696 363.829 363.829 0 004.963-36.855 367.927 367.927 0 001.164-37.84 367.821 367.821 0 00-4.42-49.699 365.899 365.899 0 00-10.876-47.692c-9.182-30.628-22.436-60.173-39.395-87.815l-.54-.88.897-.512c29.952-17.072 57.516-37.752 81.926-61.466 24.407-23.711 45.484-50.283 62.646-78.979 17.447-29.17 30.744-60.373 39.521-92.739 9.053-33.38 13.276-67.955 12.553-102.76a368.917 368.917 0 00-2.28-33.957 365.99 365.99 0 00-5.319-33.088 367.24 367.24 0 00-19.224-63.084c-8.142-20.051-18.161-39.617-29.78-58.155-11.487-18.327-24.697-35.907-39.265-52.252-14.5-16.27-30.542-31.536-47.677-45.374-17.18-13.873-35.69-26.497-55.016-37.52a423.259 423.259 0 00-61.281-28.69 429.436 429.436 0 00-66.473-18.886l-.68-.135-.112-.685c-2.865-17.622-7.616-35.098-14.12-51.94-6.376-16.51-14.525-32.644-24.22-47.956-9.568-15.11-20.764-29.611-33.277-43.103-12.44-13.412-26.331-25.988-41.286-37.376-14.987-11.412-31.22-21.767-48.249-30.778-17.197-9.1-35.419-16.94-54.16-23.305-19.06-6.473-38.917-11.506-59.018-14.959-20.57-3.533-41.708-5.465-62.827-5.74l-.527-.008-.292-.438c-19.293-28.965-42.957-55.74-70.336-79.579-27.337-23.803-58.158-44.491-91.608-61.49-33.971-17.263-70.43-30.601-108.363-39.644-39.1-9.322-79.674-14.049-120.593-14.05V0m0 0c167.248.002 313.93 78.403 391.732 195.208 172.102 2.25 314.778 112.382 338.131 255.998 183.654 36.507 323.303 188.264 327.12 371.965 2.959 142.423-76.483 268.056-197.15 336.834 33.622 54.803 53.433 118.097 54.838 185.707 4.433 213.353-176.013 389.009-403.032 392.339-2.189.032-4.365.048-6.546.048-62.556 0-122.002-13.178-175.283-36.77-54.637 122.018-198.742 209.171-367.918 209.171-197.354 0-360.588-118.595-387.472-272.795-39.621 10.377-81.624 15.953-125.114 15.953-240.155 0-434.84-170.01-434.84-379.726 0-81.409 29.331-156.827 79.276-218.648C1.308 922.061-48.528 722.365 52.447 555.866c60.356-99.521 163.8-169.387 284.45-203.333 35.681-128.92 169.53-225.798 331.2-228.169 2.021-.03 4.036-.044 6.048-.044 18.977 0 37.608 1.312 55.778 3.837C810.618 51.124 927.032 1.968 1057.35.058a529.62 529.62 0 017.864-.058z" fill="#cee7ad"/></g></svg>