<svg xmlns="http://www.w3.org/2000/svg" width="117" height="133.12" viewBox="0 0 117 133.12">
  <g id="like" transform="translate(-31)">
    <g id="Group_30" data-name="Group 30" transform="translate(31 23.66)">
      <g id="Group_29" data-name="Group 29" transform="translate(0)">
        <path id="Path_32" data-name="Path 32" d="M145.013,149.76a11.693,11.693,0,0,0-8.713-19.5H113.592A75.622,75.622,0,0,0,116.8,110.5v-3.9A15.619,15.619,0,0,0,101.2,91H97.3a3.9,3.9,0,0,0-3.783,2.954l-2.124,8.5c-2.977,11.9-12.428,25.035-22.209,27.422A11.716,11.716,0,0,0,58.3,122.46H34.9a3.9,3.9,0,0,0-3.9,3.9v70.2a3.9,3.9,0,0,0,3.9,3.9H58.3a11.712,11.712,0,0,0,10.561-6.669l13.4,4.467a42.806,42.806,0,0,0,13.567,2.2H128.5a11.7,11.7,0,0,0,10.878-16.011,11.693,11.693,0,0,0,5.634-19.089,11.676,11.676,0,0,0,0-15.6Zm-82.813,39a3.9,3.9,0,0,1-3.9,3.9H38.8v-62.4H58.3a3.9,3.9,0,0,1,3.9,3.9Zm66.3-35.1h7.8a3.9,3.9,0,1,1,0,7.8h-7.8a3.9,3.9,0,1,0,0,7.8h7.8a3.9,3.9,0,1,1,0,7.8h-7.8a3.9,3.9,0,1,0,0,7.8,3.9,3.9,0,0,1,0,7.8H95.828a35.024,35.024,0,0,1-11.1-1.8L70,185.949V137.691c6.118-1.162,12.106-5.036,17.511-11.378a56.906,56.906,0,0,0,11.448-21.967l1.386-5.546h.855a7.81,7.81,0,0,1,7.8,7.8v3.9c0,5.236-1.638,15.28-3.734,19.763H97.3a3.9,3.9,0,1,0,0,7.8h39a3.9,3.9,0,1,1,0,7.8h-7.8a3.9,3.9,0,0,0,0,7.8Z" transform="translate(-31 -91)" fill="#94c023"/>
      </g>
    </g>
    <g id="Group_32" data-name="Group 32" transform="translate(46.6 109.72)">
      <g id="Group_31" data-name="Group 31" transform="translate(0)">
        <ellipse id="Ellipse_30" data-name="Ellipse 30" cx="3.5" cy="4" rx="3.5" ry="4" transform="translate(0.4 0.28)" fill="#94c023"/>
      </g>
    </g>
    <g id="Group_34" data-name="Group 34" transform="translate(101.2)">
      <g id="Group_33" data-name="Group 33">
        <path id="Path_33" data-name="Path 33" d="M304.9,0A3.9,3.9,0,0,0,301,3.9v8.06a3.9,3.9,0,1,0,7.8,0V3.9A3.9,3.9,0,0,0,304.9,0Z" transform="translate(-301)" fill="#94c023"/>
      </g>
    </g>
    <g id="Group_36" data-name="Group 36" transform="translate(76.381 10.541)">
      <g id="Group_35" data-name="Group 35" transform="translate(0)">
        <path id="Path_34" data-name="Path 34" d="M217.714,47.2,212.2,41.684a3.9,3.9,0,0,0-5.515,5.515l5.515,5.515a3.9,3.9,0,0,0,5.515-5.515Z" transform="translate(-205.54 -40.542)" fill="#94c023"/>
      </g>
    </g>
    <g id="Group_38" data-name="Group 38" transform="translate(120.504 10.541)">
      <g id="Group_37" data-name="Group 37">
        <path id="Path_35" data-name="Path 35" d="M387.42,41.684a3.9,3.9,0,0,0-5.515,0L376.389,47.2a3.9,3.9,0,0,0,5.515,5.516L387.42,47.2A3.9,3.9,0,0,0,387.42,41.684Z" transform="translate(-375.247 -40.542)" fill="#94c023"/>
      </g>
    </g>
  </g>
</svg>
